<svg width="28" height="37" viewBox="0 0 28 37" fill="none" xmlns="http://www.w3.org/2000/svg">
<path d="M9.24368 24.3233C9.17552 23.301 9.14145 22.5684 9.14145 22.1254C9.14145 20.4556 9.4311 19.0584 10.0104 17.9339C10.6238 16.7753 11.6972 15.787 13.2307 14.9692C14.0485 14.5262 14.6449 14.1343 15.0197 13.7935C15.3946 13.4527 15.582 13.0097 15.582 12.4645C15.582 11.9193 15.3776 11.5103 14.9686 11.2377C14.5597 10.931 13.9463 10.7777 13.1285 10.7777C10.9475 10.7777 8.08506 11.817 4.54104 13.8957L0.451792 4.38824C5.59743 1.79838 10.3341 0.503448 14.6619 0.503448C17.3199 0.503448 19.6542 0.912373 21.6648 1.73022C23.6753 2.54807 25.2088 3.68966 26.2652 5.15497C27.3556 6.62028 27.9009 8.29006 27.9009 10.1643C27.9009 11.9704 27.3897 13.555 26.3674 14.9181C25.3792 16.2471 24.0672 17.4909 22.4315 18.6495C21.0343 19.774 20.0461 20.6941 19.4668 21.4097C18.9216 22.1254 18.6149 23.0966 18.5467 24.3233H9.24368ZM7.50575 37V26.2146H20.1313V37H7.50575Z" fill="white"/>
</svg>
