<svg width="56" height="53" viewBox="0 0 56 53" fill="none" xmlns="http://www.w3.org/2000/svg">
<path fill-rule="evenodd" clip-rule="evenodd" d="M29.2862 0L10.7515 15.9127H8.37691L0.39576 16.0351L0 26.7456L0.39576 36.5992L9.36631 36.8441H10.7515L29.2203 52.7568L29.9458 50.4923L30.2097 33.5391C33.0459 32.9883 35.4865 30.0506 35.8822 26.562C36.278 23.0734 33.5077 20.3805 30.3416 19.6461V2.3257L29.2203 0H29.2862ZM42.5442 4.89622C46.6996 7.09952 50.0636 10.2821 52.3722 14.0154C54.6808 17.7488 56 22.033 56 26.5008C56 30.9686 54.7468 35.2528 52.3722 38.9862C50.1955 42.4747 47.1614 45.4736 43.3357 47.6769L41.0931 45.9021L40.3675 44.5556C43.8634 42.7195 46.6337 40.0266 48.6125 36.9053C50.5253 33.7839 51.6466 30.2342 51.6466 26.5008C51.6466 22.7674 50.5913 19.2177 48.6125 16.0963C46.7656 13.0974 44.1272 10.5269 40.8292 8.69079L41.6207 5.93667L42.6101 4.89622H42.5442ZM38.6525 12.363C41.159 13.8318 43.2038 15.8515 44.6549 18.1772C46.2379 20.6865 47.0954 23.5631 47.0954 26.5008C47.0954 29.4385 46.2379 32.3151 44.6549 34.8244C43.0718 37.3337 40.8292 39.4758 38.0589 40.9446L36.0801 38.4353L35.8163 37.4561C37.927 36.3544 39.6419 34.702 40.7633 32.8659C41.9505 30.9686 42.5442 28.8265 42.5442 26.562C42.5442 24.2975 41.8846 22.1554 40.7633 20.2581C39.576 18.3608 37.861 16.7696 35.8163 15.6679L36.4759 14.5663L38.5866 12.4242L38.6525 12.363Z" fill="white"/>
</svg>
