<svg width="54" height="8" viewBox="0 0 54 8" fill="none" xmlns="http://www.w3.org/2000/svg">
<g clip-path="url(#clip0_1_3710)">
<path d="M10.5738 7.18566C10.2316 7.18566 9.88788 7.17569 9.54995 7.15292C9.19347 7.12871 8.83847 7.07886 8.48914 7.00481V0.922941C8.77602 0.867387 9.09549 0.830334 9.43917 0.801862C9.78137 0.77339 10.1009 0.760544 10.3977 0.760544C10.7967 0.760544 11.1617 0.789064 11.4954 0.848885C11.8291 0.904391 12.116 1.0027 12.3573 1.14085C12.5988 1.28043 12.7876 1.46133 12.9225 1.6892C13.0575 1.91712 13.1271 2.19629 13.1271 2.5253C13.1271 3.02663 12.8856 3.42117 12.4042 3.71035C12.8033 3.85847 13.0716 4.06784 13.2151 4.32424C13.3585 4.58485 13.4323 4.87686 13.4323 5.20161C13.4323 5.86107 13.191 6.35387 12.7138 6.68432C12.2281 7.02331 11.5195 7.18566 10.5738 7.18566ZM9.86094 3.29727H10.5468C10.9828 3.29727 11.2881 3.24171 11.4783 3.13065C11.6629 3.01954 11.7567 2.83864 11.7567 2.59222C11.7567 2.33731 11.6601 2.16067 11.4698 2.0581C11.2753 1.95557 10.9927 1.90428 10.6221 1.90428C10.5014 1.90428 10.3721 1.90428 10.2329 1.90854C10.0938 1.91286 9.9731 1.91851 9.86233 1.93136C9.86094 1.93136 9.86094 3.29727 9.86094 3.29727ZM9.86094 4.37548V5.99639C9.96318 6.01062 10.0739 6.01915 10.1946 6.02486C10.3153 6.03056 10.4488 6.03483 10.5936 6.03483C11.0154 6.03483 11.3534 5.97501 11.6133 5.85393C11.8731 5.73285 12.0024 5.51068 12.0024 5.18449C12.0024 4.8968 11.8958 4.68743 11.6786 4.56635C11.4613 4.441 11.1503 4.38118 10.747 4.38118H9.86233V4.37548H9.86094Z" fill="#F4F4F4"/>
<path d="M15.4373 0.969946C15.4373 1.21637 15.3592 1.41151 15.1958 1.55535C15.0382 1.6992 14.8479 1.76899 14.6307 1.76899C14.4219 1.77187 14.2203 1.69637 14.0655 1.55535C13.9079 1.41151 13.8241 1.22064 13.8241 0.969946C13.8241 0.723569 13.9022 0.528433 14.0655 0.384585C14.2203 0.245003 14.4219 0.168071 14.6307 0.170899C14.8394 0.168071 15.0411 0.243565 15.1958 0.384585C15.3578 0.528433 15.4373 0.723569 15.4373 0.969946ZM15.3081 7.10736H13.9647V2.34443H15.3081V7.10736Z" fill="#F4F4F4"/>
<path d="M16.031 1.15919L17.3744 0.941238V2.34424H18.9904V3.46799H17.3744V5.14019C17.3744 5.42362 17.4255 5.65149 17.522 5.81816C17.6186 5.98477 17.8231 6.07311 18.1242 6.07311C18.2732 6.07167 18.4224 6.05888 18.5686 6.0318C18.7121 6.00615 18.8526 5.96915 18.9904 5.92069L19.1807 6.97042C19.0046 7.04165 18.8228 7.10003 18.6382 7.14274C18.4394 7.18977 18.198 7.21685 17.9069 7.21685C17.5405 7.21685 17.2352 7.16556 16.9938 7.06869C16.7524 6.97186 16.5578 6.83228 16.4144 6.64994C16.271 6.47336 16.1687 6.2554 16.1134 6.00471C16.0537 5.72843 16.0239 5.44639 16.0253 5.16439V1.15919H16.031Z" fill="#F4F4F4"/>
<path d="M19.1805 4.7271C19.1777 4.39669 19.2345 4.06763 19.3467 3.75573C19.4518 3.46089 19.6151 3.19026 19.8281 2.96095C20.0368 2.73307 20.2953 2.55644 20.5963 2.42256C20.8974 2.28725 21.2396 2.22316 21.6244 2.22316C21.8786 2.22316 22.1101 2.24593 22.3189 2.29295C22.529 2.33854 22.7335 2.40406 22.9309 2.48809L22.6526 3.5663C22.5162 3.51645 22.377 3.47369 22.2351 3.44095C22.0689 3.40251 21.8999 3.38396 21.7295 3.3854C21.3305 3.3854 21.0351 3.51074 20.8406 3.75717C20.646 4.00354 20.5494 4.32829 20.5494 4.7328C20.5494 5.16012 20.6418 5.49484 20.8221 5.72698C21.0067 5.96344 21.3276 6.0802 21.7807 6.0802C21.9567 6.0802 22.1314 6.06458 22.3047 6.03323C22.4807 6.00615 22.654 5.95773 22.8187 5.88938L23.009 6.99463C22.8187 7.07156 22.6227 7.1285 22.4211 7.16699C22.1641 7.21684 21.9042 7.24249 21.6429 7.24105C21.2069 7.24105 20.8363 7.17552 20.5225 7.04591C20.2072 6.9163 19.953 6.73967 19.7485 6.51606C19.544 6.29245 19.4006 6.02896 19.3083 5.72554C19.2246 5.39941 19.182 5.06469 19.1805 4.7271Z" fill="#F4F4F4"/>
<path d="M27.6384 4.71856C27.6384 5.0946 27.583 5.43358 27.4765 5.74549C27.37 6.05743 27.2123 6.32092 27.0093 6.54027C26.802 6.76105 26.5506 6.9348 26.2723 7.05162C25.984 7.17265 25.6659 7.23247 25.3138 7.23247C24.9659 7.23247 24.6463 7.17265 24.3595 7.05162C24.0797 6.93624 23.8298 6.76105 23.6225 6.54027C23.418 6.32236 23.2561 6.05317 23.1453 5.74549C23.0289 5.43358 22.9735 5.09029 22.9735 4.71856C22.9735 4.34253 23.0331 4.00354 23.1496 3.69591C23.266 3.38966 23.4279 3.12474 23.6352 2.9111C23.8454 2.69319 24.0968 2.51939 24.3765 2.40401C24.6633 2.28298 24.9743 2.22316 25.3123 2.22316C25.6546 2.22316 25.9698 2.28298 26.2566 2.40401C26.5435 2.52509 26.7892 2.69176 26.9937 2.9111C27.2039 3.13758 27.3672 3.4039 27.4708 3.69591C27.5787 4.00354 27.6384 4.34253 27.6384 4.71856ZM26.268 4.71856C26.268 4.29982 26.1842 3.97507 26.0181 3.73862C25.8519 3.50221 25.6148 3.38113 25.3095 3.38113C25.0042 3.38113 24.7628 3.50216 24.5966 3.73862C24.4305 3.97507 24.3424 4.30552 24.3424 4.71856C24.3424 5.13731 24.4262 5.46632 24.5966 5.70848C24.7628 5.95486 25.0042 6.07594 25.3095 6.07594C25.6148 6.07594 25.8519 5.95486 26.0181 5.70848C26.1842 5.46206 26.268 5.1316 26.268 4.71856Z" fill="#F4F4F4"/>
<path d="M29.6493 0.969946C29.6493 1.21637 29.5712 1.41151 29.4079 1.55535C29.2503 1.6992 29.06 1.76899 28.8427 1.76899C28.634 1.77187 28.4323 1.69637 28.2775 1.55535C28.1199 1.41151 28.0361 1.22064 28.0361 0.969946C28.0361 0.723569 28.1142 0.528433 28.2775 0.384585C28.4323 0.245003 28.634 0.168071 28.8427 0.170899C29.0515 0.168071 29.2531 0.243565 29.4079 0.384585C29.5698 0.528433 29.6493 0.723569 29.6493 0.969946ZM29.5244 7.10736H28.181V2.34443H29.5244V7.10736Z" fill="#F4F4F4"/>
<path d="M30.2881 2.50666C30.5153 2.44114 30.8121 2.37705 31.1728 2.32149C31.5477 2.26306 31.9269 2.23315 32.3074 2.23315C32.7107 2.23315 33.0444 2.28444 33.3128 2.39129C33.5812 2.49808 33.7942 2.64624 33.9476 2.83706C34.1052 3.0322 34.216 3.26012 34.2813 3.52505C34.3466 3.78998 34.3779 4.08764 34.3779 4.41239V7.10293H33.0345V4.57474C33.0345 4.13749 32.9791 3.83125 32.8627 3.6504C32.7462 3.4695 32.5332 3.38116 32.2236 3.38116C32.1271 3.38116 32.0248 3.38547 31.9183 3.39544C31.8118 3.40541 31.7139 3.41394 31.6315 3.42818V7.10293H30.2881L30.2881 2.50666Z" fill="#F4F4F4"/>
<path d="M38.0519 7.23255C37.0323 7.23255 36.2598 6.94907 35.7273 6.38222C35.1948 5.81531 34.9307 5.012 34.9307 3.96657C34.9307 3.44669 35.0144 2.98663 35.1763 2.57785C35.3382 2.16908 35.5612 1.82578 35.8437 1.54662C36.1306 1.26462 36.4757 1.04667 36.8534 0.909967C37.2425 0.766119 37.6685 0.692062 38.1272 0.692062C38.3913 0.692062 38.6327 0.710564 38.85 0.751883C39.0431 0.783183 39.2334 0.828768 39.4194 0.88715C39.5586 0.929907 39.6949 0.982585 39.827 1.04528C39.9335 1.10084 40.0116 1.14211 40.0627 1.17063L39.6552 2.30866C39.4407 2.19755 39.2164 2.11065 38.9835 2.048C38.7293 1.97394 38.4368 1.94115 38.113 1.94115C37.8972 1.94115 37.6827 1.97821 37.4782 2.048C37.2709 2.12205 37.0834 2.2417 36.9273 2.39695C36.7696 2.55503 36.6404 2.76441 36.5424 3.0151C36.4458 3.27005 36.399 3.57774 36.399 3.93949C36.3976 4.21156 36.4288 4.48358 36.4913 4.74851C36.5566 4.9992 36.6575 5.21284 36.7966 5.39374C36.9443 5.58029 37.1346 5.72845 37.3519 5.82528C37.5791 5.93212 37.8574 5.98341 38.1812 5.98341C38.3657 5.98341 38.549 5.972 38.7322 5.94636C38.8798 5.92642 39.0247 5.89795 39.1681 5.85807C39.2817 5.82959 39.3939 5.79254 39.5018 5.74696C39.5984 5.70564 39.6864 5.66293 39.7617 5.63014L40.1508 6.76391C39.952 6.88499 39.6736 6.99183 39.3129 7.08865C38.9452 7.18553 38.5248 7.23255 38.0519 7.23255Z" fill="#F4F4F4"/>
<path d="M42.2579 2.21893C42.6569 2.21893 42.9849 2.26591 43.2491 2.3542C43.5132 2.44254 43.7262 2.57215 43.8838 2.74447C44.0457 2.91823 44.1607 3.12904 44.2218 3.35835C44.2871 3.60051 44.3184 3.86971 44.3184 4.16167V6.96758C44.1238 7.0089 43.8597 7.06019 43.5174 7.11574C43.1752 7.1713 42.7577 7.20404 42.272 7.20404C41.9668 7.20404 41.6884 7.17556 41.4385 7.12001C41.1886 7.06446 40.9755 6.97616 40.7952 6.85508C40.6163 6.73261 40.4729 6.56739 40.3777 6.37225C40.2811 6.17285 40.2343 5.93069 40.2343 5.63873C40.2343 5.35957 40.2897 5.12738 40.4004 4.93224C40.5055 4.74281 40.6588 4.58473 40.8449 4.47218C41.0295 4.35541 41.2439 4.27278 41.4839 4.22149C41.731 4.16881 41.9824 4.14316 42.2337 4.14316C42.4098 4.14316 42.5632 4.15313 42.6966 4.16598C42.8316 4.18022 42.9423 4.19872 43.0261 4.2258V4.10046C43.0261 3.87253 42.9565 3.68737 42.8174 3.54779C42.6782 3.4082 42.4382 3.33841 42.0945 3.33841C41.8688 3.33841 41.643 3.35553 41.4186 3.3897C41.1957 3.42249 41.0011 3.46803 40.8392 3.52928L40.6674 2.44254C40.7455 2.41973 40.8435 2.39125 40.9585 2.36417C41.075 2.3357 41.2042 2.31293 41.3433 2.29011C41.4825 2.26735 41.6259 2.25311 41.7793 2.23456C41.9426 2.2289 42.1002 2.21893 42.2579 2.21893ZM42.3644 6.16288C42.4992 6.16288 42.6242 6.15861 42.7435 6.15291C42.84 6.15147 42.9352 6.1415 43.0303 6.12439V5.10173C42.975 5.0875 42.8955 5.07896 42.7847 5.06473C42.6867 5.05188 42.5873 5.04618 42.4879 5.04618C42.3686 5.04762 42.2493 5.05476 42.1314 5.06899C42.0207 5.08323 41.9227 5.11027 41.8404 5.15729C41.7594 5.19573 41.6912 5.25555 41.6415 5.32966C41.5918 5.41081 41.5663 5.50341 41.5677 5.59885C41.5677 5.80822 41.6373 5.95634 41.7807 6.0361C41.9241 6.12583 42.1187 6.16288 42.3644 6.16288Z" fill="#F4F4F4"/>
<path d="M46.4073 6.14006C46.6529 6.14006 46.829 6.1173 46.9312 6.06601C47.0335 6.01898 47.0846 5.92216 47.0846 5.78684C47.0846 5.68 47.0193 5.58174 46.8858 5.50341C46.7509 5.41939 46.5521 5.33105 46.2794 5.22995C46.0707 5.15158 45.8762 5.07182 45.7058 4.98353C45.5339 4.8995 45.3863 4.79836 45.2698 4.68155C45.1477 4.56191 45.0539 4.41806 44.9915 4.25854C44.9261 4.09619 44.8949 3.90105 44.8949 3.66887C44.8949 3.22304 45.061 2.86982 45.3905 2.60916C45.72 2.34854 46.1729 2.21893 46.7523 2.21893C47.0306 2.21893 47.3076 2.24597 47.5816 2.29726C47.8458 2.34854 48.0588 2.40405 48.2122 2.46387L47.9764 3.51361C47.8088 3.45523 47.6398 3.40681 47.4666 3.36976C47.2636 3.32562 47.0576 3.3028 46.8503 3.30424C46.4286 3.30424 46.2198 3.42105 46.2198 3.65746C46.2184 3.70731 46.2283 3.75577 46.2482 3.80135C46.2723 3.84976 46.3093 3.89247 46.3547 3.92238C46.4257 3.97084 46.4995 4.01211 46.5777 4.04773C46.6927 4.10472 46.812 4.15313 46.9341 4.19589C47.2309 4.30695 47.4709 4.4138 47.6654 4.52064C47.86 4.62743 48.0077 4.74425 48.1198 4.86389C48.2263 4.98209 48.3073 5.12024 48.3557 5.27266C48.4022 5.42078 48.4252 5.59741 48.4252 5.79825C48.4252 6.26685 48.2493 6.62577 47.8969 6.86222C47.5447 7.10434 47.0491 7.22398 46.4058 7.22398C45.9841 7.22398 45.6319 7.18697 45.355 7.11718C45.0766 7.04308 44.8821 6.98187 44.7714 6.93628L44.9986 5.83952C45.2272 5.92925 45.4629 6.00048 45.7029 6.05321C45.9344 6.11159 46.1701 6.14006 46.4073 6.14006Z" fill="#F4F4F4"/>
<path d="M48.9237 7.10734V0.300485L50.2668 0.0825806V2.36435C50.3804 2.32873 50.4969 2.29882 50.6148 2.27605C50.75 2.24897 50.889 2.23473 51.0265 2.23473C51.4114 2.23473 51.7312 2.28602 51.9852 2.39282C52.2392 2.49966 52.4439 2.64777 52.5973 2.83865C52.7507 3.03378 52.8571 3.26166 52.9209 3.52658C52.9865 3.79151 53.0134 4.08922 53.0134 4.41397V7.10451H51.6698V4.57488C51.6698 4.13764 51.6147 3.83139 51.5039 3.65049C51.3932 3.46964 51.1842 3.3813 50.8875 3.3813C50.7739 3.37991 50.6603 3.39127 50.5496 3.41408C50.4432 3.43685 50.3507 3.4554 50.2668 3.48387V7.10307H48.9237V7.10734Z" fill="#F4F4F4"/>
<path fill-rule="evenodd" clip-rule="evenodd" d="M7.36428 3.71738C7.36428 5.67766 5.77994 7.26679 3.82551 7.26679C1.8711 7.26679 0.286743 5.67766 0.286743 3.71738C0.286743 1.75705 1.8711 0.167923 3.82551 0.167923C5.77994 0.167923 7.36428 1.75705 7.36428 3.71738ZM3.84537 2.12352C4.34523 2.04088 4.75279 2.12491 4.93029 2.52942C5.04674 2.8499 4.95017 3.09632 4.76273 3.26725C5.07088 3.29855 5.44007 3.57772 5.49405 3.91675C5.57927 4.48078 5.16743 4.84823 4.58522 4.99064L4.74711 5.6202L4.36795 5.71851L4.20607 5.08608C4.10666 5.11172 4.00726 5.13737 3.90217 5.16157L4.06406 5.79683L3.68633 5.8951L3.52302 5.26415C3.43356 5.28548 2.75903 5.45929 2.75903 5.45929L2.71785 4.98638C2.71785 4.98638 2.99902 4.91803 2.99334 4.9152C3.09985 4.88811 3.10837 4.80265 3.10269 4.7528L2.66247 3.0436C2.62697 2.97098 2.55455 2.89404 2.40118 2.93393C2.40402 2.92683 2.12569 3.00515 2.12569 3.00515L2.02061 2.59921C2.02061 2.59921 2.70223 2.42262 2.78317 2.39981L2.62271 1.77595L3.00186 1.67769L3.16091 2.29584C3.22147 2.27874 3.28253 2.2642 3.34319 2.24975C3.38353 2.24015 3.42368 2.23059 3.46338 2.22034L3.30575 1.59793L3.68491 1.49967L3.84537 2.12352ZM3.92277 4.68149C4.24418 4.6155 4.81214 4.49889 4.74711 4.01645C4.63279 3.57065 3.97355 3.76003 3.65745 3.85084C3.62409 3.86042 3.59455 3.8689 3.56988 3.87543L3.79283 4.71009C3.82777 4.70099 3.87222 4.69186 3.92277 4.68149ZM3.59044 3.46651C3.86057 3.41112 4.35045 3.31067 4.28133 2.87981C4.13855 2.47531 3.63896 2.6259 3.37591 2.7052C3.34072 2.71581 3.30976 2.72514 3.28445 2.73169L3.4861 3.48942C3.51414 3.48216 3.5498 3.47485 3.59044 3.46651Z" fill="#F4F4F4"/>
</g>
<defs>
<clipPath id="clip0_1_3710">
<rect width="53.6826" height="7.18429" fill="white" transform="translate(0.286743 0.0826721)"/>
</clipPath>
</defs>
</svg>
