<svg width="23" height="8" viewBox="0 0 23 8" fill="none" xmlns="http://www.w3.org/2000/svg">
<g clip-path="url(#clip0_1_3726)">
<path d="M2.96077 3.27482L4.34826 1.79956L5.73651 3.2756L6.54384 2.41717L4.34826 0.0825806L2.15344 2.41639L2.96077 3.27482Z" fill="#EDEDED"/>
<path d="M2.35298 3.77438L1.55474 2.87636L0.75647 3.77441L1.55471 4.67243L2.35298 3.77438Z" fill="#EDEDED"/>
<path d="M2.96168 4.27409L4.34867 5.74938L5.73634 4.27338L6.54384 5.13136L6.54343 5.13182L4.34867 7.46639L2.15455 5.1326L2.15344 5.13142L2.96168 4.27409Z" fill="#EDEDED"/>
<path d="M7.24226 4.67243L8.14031 3.77438L7.24229 2.87636L6.34424 3.77441L7.24226 4.67243Z" fill="#EDEDED"/>
<path d="M5.14621 3.77391H5.14655L4.34867 2.87636L3.75902 3.53967H3.75899L3.69126 3.61588L3.55152 3.77311L3.55042 3.77436L3.55152 3.77564L4.34867 4.67243L5.14655 3.77484L5.14692 3.77436L5.14621 3.77391Z" fill="#EDEDED"/>
<path d="M9.53735 1.67899H11.2813C11.7141 1.67899 12.0414 1.80272 12.2633 2.05014C12.4349 2.24177 12.5207 2.47927 12.5207 2.76261V2.77458C12.5207 2.8943 12.5074 3.00012 12.4807 3.09187C12.454 3.18375 12.4184 3.26646 12.3738 3.3403C12.3294 3.41421 12.2777 3.47906 12.219 3.53487C12.1602 3.5908 12.097 3.63874 12.0294 3.67854C12.2469 3.77043 12.4182 3.89509 12.5431 4.05277C12.6679 4.21051 12.7304 4.42904 12.7304 4.70837V4.72027C12.7304 4.91193 12.6973 5.0795 12.6311 5.22327C12.5649 5.36689 12.4701 5.48667 12.3466 5.5825C12.2232 5.67829 12.0747 5.7501 11.9012 5.79802C11.7277 5.8459 11.5354 5.86982 11.3244 5.86982H9.53735V1.67899ZM11.1069 3.37328C11.2898 3.37328 11.4349 3.33842 11.5423 3.26852C11.6498 3.19866 11.7036 3.08589 11.7036 2.93028V2.91829C11.7036 2.77865 11.6569 2.67189 11.5638 2.59802C11.4706 2.52418 11.3362 2.48722 11.1607 2.48722H10.3436V3.37328H11.1069ZM11.3274 5.06165C11.5101 5.06165 11.6534 5.02483 11.7574 4.95092C11.8613 4.87708 11.9133 4.7623 11.9133 4.60663V4.5947C11.9133 4.455 11.8649 4.34426 11.7681 4.26237C11.6713 4.18067 11.5155 4.13971 11.3004 4.13971H10.3436V5.06172H11.3274V5.06165Z" fill="#EDEDED"/>
<path d="M18.7173 1.67899H20.5702C21.0301 1.67899 21.3778 1.80272 21.6136 2.05014C21.7959 2.24177 21.8871 2.47927 21.8871 2.76261V2.77458C21.8871 2.8943 21.873 3.00012 21.8446 3.09187C21.8162 3.18375 21.7784 3.26646 21.731 3.3403C21.6838 3.41421 21.6289 3.47906 21.5665 3.53487C21.504 3.5908 21.4369 3.63874 21.365 3.67854C21.5962 3.77043 21.7782 3.89509 21.9109 4.05277C22.0435 4.21051 22.1099 4.42904 22.1099 4.70837V4.72027C22.1099 4.91193 22.0747 5.0795 22.0044 5.22327C21.9341 5.36689 21.8333 5.48667 21.7021 5.5825C21.571 5.67829 21.4132 5.7501 21.2289 5.79802C21.0445 5.8459 20.8402 5.86982 20.616 5.86982H18.7173V1.67899ZM20.385 3.37328C20.5792 3.37328 20.7334 3.33842 20.8476 3.26852C20.9618 3.19866 21.0189 3.08589 21.0189 2.93028V2.91829C21.0189 2.77865 20.9693 2.67189 20.8704 2.59802C20.7714 2.52418 20.6286 2.48722 20.4421 2.48722H19.5739V3.37328H20.385ZM20.6192 5.06165C20.8134 5.06165 20.9656 5.02483 21.0761 4.95092C21.1865 4.87708 21.2417 4.7623 21.2417 4.60663V4.5947C21.2417 4.455 21.1903 4.34426 21.0875 4.26237C20.9847 4.18067 20.8191 4.13971 20.5906 4.13971H19.5739V5.06172H20.6192V5.06165Z" fill="#EDEDED"/>
<path d="M13.9277 1.67899H14.7477L16.6421 4.25935V1.67899H17.5199V5.86982H16.7634L14.8055 3.20569V5.86982H13.9277V1.67899Z" fill="#EDEDED"/>
</g>
<defs>
<clipPath id="clip0_1_3726">
<rect width="21.952" height="7.18429" fill="white" transform="translate(0.157837 0.0826721)"/>
</clipPath>
</defs>
</svg>
