<svg width="23" height="8" viewBox="0 0 23 8" fill="none" xmlns="http://www.w3.org/2000/svg">
<g clip-path="url(#clip0_1_3510)">
<path fill-rule="evenodd" clip-rule="evenodd" d="M2.66053 5.91188C3.88849 6.21847 5.13205 5.47025 5.43816 4.24082C5.74428 3.01128 4.99711 1.76585 3.76923 1.45933C2.54164 1.15281 1.29808 1.90111 0.992108 3.1307C0.685855 4.36007 1.43308 5.60537 2.66053 5.91188ZM3.7215 2.7797C4.03901 2.8892 4.2712 3.05336 4.22558 3.35873C4.19255 3.58228 4.0688 3.69051 3.9045 3.72844C4.13011 3.84607 4.24492 4.02643 4.13554 4.33911C3.99983 4.72746 3.67738 4.76023 3.24858 4.67898L3.14452 5.09659L2.89306 5.03383L2.99577 4.62183C2.93059 4.60561 2.86398 4.5884 2.79536 4.56974L2.6923 4.9837L2.44113 4.92096L2.54519 4.50255C2.52203 4.49661 2.49872 4.49052 2.47525 4.4844C2.43921 4.47499 2.40279 4.46548 2.36592 4.45623L2.03868 4.37453L2.16352 4.0863C2.16352 4.0863 2.3488 4.13565 2.3463 4.132C2.41749 4.14964 2.44907 4.10316 2.46153 4.07217L2.62598 3.41201L2.65255 3.41862C2.64252 3.41461 2.63343 3.41202 2.62641 3.41024L2.74372 2.93897C2.7468 2.88547 2.7284 2.81799 2.62655 2.79253C2.63049 2.78988 2.44392 2.74707 2.44392 2.74707L2.51081 2.47812L2.8576 2.56483L2.85731 2.56612C2.90945 2.5791 2.96318 2.59143 3.0179 2.60392L3.12095 2.19039L3.37227 2.25315L3.27129 2.65856C3.33876 2.67399 3.40665 2.68955 3.47277 2.70604L3.57303 2.30328L3.8245 2.36602L3.7215 2.7797ZM2.92608 4.27948C3.13125 4.33375 3.57974 4.45236 3.65102 4.16549C3.72407 3.87217 3.28919 3.77445 3.07696 3.72676C3.05324 3.72143 3.0323 3.71672 3.01517 3.71244L2.87708 4.26675C2.89115 4.27024 2.90763 4.2746 2.92608 4.27948ZM3.11961 3.46953C3.29068 3.51524 3.66381 3.61494 3.72881 3.35422C3.79518 3.08752 3.43247 3.00712 3.25536 2.96786C3.23545 2.96345 3.21788 2.95955 3.20353 2.95597L3.07835 3.45871C3.09018 3.46166 3.10406 3.46537 3.11961 3.46953Z" fill="#F4F4F4"/>
<path d="M7.63977 2.77914C7.82563 2.77914 7.98622 2.81249 8.12114 2.87796C8.25673 2.94408 8.3686 3.03316 8.45834 3.14518C8.54685 3.25777 8.61275 3.38936 8.65529 3.54019C8.69756 3.69144 8.71876 3.85403 8.71876 4.02809C8.71876 4.29544 8.66984 4.54803 8.57108 4.78613C8.47229 5.02459 8.33831 5.23142 8.16784 5.40785C7.99753 5.58407 7.79641 5.72298 7.5645 5.8256C7.33295 5.92829 7.0812 5.97966 6.81091 5.97966C6.77594 5.97966 6.7145 5.97864 6.62769 5.97685C6.54088 5.97507 6.44112 5.96609 6.32938 5.95096C6.21695 5.93526 6.09805 5.91203 5.9725 5.8809C5.84701 5.85034 5.72784 5.80754 5.6156 5.75318L6.61917 1.53076L7.51802 1.39127L7.15869 2.88966C7.23562 2.85493 7.31311 2.82805 7.39046 2.80848C7.46789 2.78918 7.55097 2.77914 7.63977 2.77914ZM6.88582 5.26564C7.02119 5.26564 7.14873 5.2323 7.26857 5.16682C7.38874 5.10126 7.49246 5.01276 7.57933 4.90254C7.6662 4.7918 7.73497 4.66709 7.7851 4.52774C7.83523 4.3884 7.86059 4.24302 7.86059 4.09177C7.86059 3.90596 7.82958 3.76101 7.76775 3.65624C7.70595 3.55189 7.59158 3.49938 7.42548 3.49938C7.37104 3.49938 7.30094 3.50978 7.21399 3.52836C7.12676 3.54808 7.04869 3.58903 6.9787 3.65063L6.5961 5.24189C6.61917 5.24598 6.63958 5.24986 6.65698 5.25351C6.67403 5.25746 6.69286 5.26025 6.71162 5.26219C6.73146 5.26442 6.75417 5.26556 6.78161 5.26556C6.80903 5.26556 6.84334 5.26564 6.88582 5.26564Z" fill="#F4F4F4"/>
<path d="M9.65088 5.89884H8.79236L9.51737 2.84392H10.3818L9.65088 5.89884ZM10.0686 2.4717C9.94883 2.4717 9.84019 2.43599 9.74378 2.36441C9.64659 2.29327 9.59846 2.18376 9.59846 2.03617C9.59846 1.95498 9.61492 1.87882 9.64759 1.80696C9.68076 1.73524 9.72408 1.67349 9.77836 1.621C9.83258 1.56893 9.89541 1.52733 9.96673 1.49599C10.0385 1.46516 10.1148 1.44974 10.1962 1.44974C10.316 1.44974 10.424 1.48545 10.5208 1.55703C10.6172 1.62896 10.6657 1.73847 10.6657 1.88528C10.6657 1.96675 10.6493 2.0432 10.6164 2.11491C10.5836 2.18663 10.5403 2.24839 10.486 2.30087C10.4322 2.35302 10.3688 2.39447 10.2976 2.42552C10.2258 2.45685 10.1497 2.4717 10.0686 2.4717Z" fill="#F4F4F4"/>
<path d="M11.1342 2.08282L12.0334 1.94333L11.8126 2.84381H12.7756L12.6017 3.55224H11.6445L11.3895 4.62082C11.366 4.70988 11.3527 4.79308 11.349 4.87039C11.3447 4.94806 11.3545 5.01476 11.3778 5.07092C11.4008 5.12721 11.4423 5.1706 11.5025 5.20129C11.5623 5.23248 11.6481 5.24819 11.7605 5.24819C11.8531 5.24819 11.9434 5.23937 12.0306 5.22187C12.1173 5.20466 12.2052 5.18072 12.2942 5.14936L12.3582 5.81176C12.2422 5.85434 12.1165 5.891 11.9812 5.92183C11.8456 5.95311 11.6851 5.96815 11.4996 5.96815C11.2329 5.96815 11.0261 5.9285 10.8788 5.84955C10.7317 5.77001 10.6277 5.66136 10.5654 5.52381C10.504 5.38674 10.4766 5.22875 10.4843 5.05076C10.4922 4.87233 10.5191 4.68478 10.5654 4.48727L11.1342 2.08282Z" fill="#F4F4F4"/>
<path d="M12.7378 4.67902C12.7378 4.41589 12.7803 4.16773 12.8654 3.93544C12.9502 3.70295 13.0725 3.49963 13.2311 3.32514C13.3892 3.15152 13.5818 3.01396 13.8085 2.91298C14.0341 2.81258 14.2867 2.76195 14.5651 2.76195C14.7393 2.76195 14.895 2.77843 15.0319 2.8115C15.1694 2.84485 15.2938 2.88795 15.4063 2.94203L15.1103 3.61616C15.0329 3.58475 14.9526 3.55707 14.8696 3.53196C14.7865 3.50636 14.6851 3.49403 14.5651 3.49403C14.2786 3.49403 14.052 3.59293 13.8834 3.79008C13.7155 3.98737 13.6309 4.25295 13.6309 4.58606C13.6309 4.78351 13.6734 4.94314 13.7588 5.06527C13.8438 5.18742 14.0007 5.24815 14.2285 5.24815C14.341 5.24815 14.4495 5.2364 14.5534 5.21345C14.6581 5.19022 14.7506 5.16094 14.832 5.12638L14.8961 5.81745C14.7875 5.85961 14.6678 5.89769 14.5364 5.93106C14.4048 5.96325 14.2481 5.97995 14.0664 5.97995C13.8265 5.97995 13.6235 5.94483 13.4574 5.87562C13.2912 5.80533 13.1539 5.71202 13.0458 5.59384C12.937 5.47535 12.859 5.33702 12.8107 5.17824C12.7624 5.01959 12.7378 4.85294 12.7378 4.67902Z" fill="#F4F4F4"/>
<path d="M16.5517 5.97995C16.3468 5.97995 16.1688 5.9487 16.0179 5.88679C15.8673 5.82491 15.7426 5.73806 15.644 5.62547C15.5452 5.51345 15.4713 5.3807 15.4207 5.22772C15.3701 5.07481 15.3457 4.9055 15.3457 4.71997C15.3457 4.48724 15.383 4.25458 15.4584 4.02259C15.5335 3.79008 15.6449 3.58118 15.7923 3.3955C15.9385 3.20953 16.1189 3.05748 16.3313 2.93894C16.5436 2.82118 16.7876 2.76195 17.0618 2.76195C17.263 2.76195 17.44 2.79328 17.5931 2.85518C17.7455 2.91693 17.8709 3.0045 17.9701 3.11651C18.0683 3.22911 18.1428 3.36128 18.1929 3.51446C18.2434 3.66709 18.2684 3.83684 18.2684 4.02251C18.2684 4.25452 18.2316 4.48718 18.1585 4.71989C18.0854 4.95146 17.9768 5.16088 17.8336 5.347C17.6907 5.53267 17.5119 5.68464 17.2972 5.80268C17.0827 5.92072 16.8341 5.97995 16.5517 5.97995ZM16.9808 3.49411C16.8535 3.49411 16.741 3.53111 16.6447 3.60419C16.548 3.67812 16.4668 3.77108 16.4013 3.88318C16.3351 3.99577 16.2861 4.11854 16.2529 4.25201C16.2201 4.38576 16.2039 4.5122 16.2039 4.63232C16.2039 4.82617 16.2352 4.97714 16.2965 5.08579C16.3588 5.19387 16.4706 5.24823 16.6331 5.24823C16.7608 5.24823 16.8727 5.21151 16.9697 5.13765C17.0658 5.06427 17.147 4.97126 17.213 4.85894C17.2788 4.74693 17.3282 4.6238 17.3614 4.49011C17.3939 4.35678 17.4104 4.22964 17.4104 4.10972C17.4104 3.91636 17.3793 3.76505 17.3174 3.65655C17.2555 3.54847 17.1432 3.49411 16.9808 3.49411Z" fill="#F4F4F4"/>
<path d="M19.2038 5.89884H18.3446L19.0696 2.84392H19.9345L19.2038 5.89884ZM19.621 2.4717C19.5012 2.4717 19.3927 2.43599 19.2964 2.36441C19.1997 2.29327 19.1511 2.18376 19.1511 2.03617C19.1511 1.95498 19.1678 1.87882 19.2006 1.80696C19.2333 1.73524 19.2769 1.67349 19.3312 1.621C19.3851 1.56893 19.4485 1.52733 19.5197 1.49599C19.591 1.46516 19.6674 1.44974 19.7485 1.44974C19.8685 1.44974 19.9769 1.48545 20.0735 1.55703C20.1701 1.62896 20.2189 1.73847 20.2189 1.88528C20.2189 1.96675 20.2015 2.0432 20.1691 2.11491C20.1366 2.18663 20.093 2.24839 20.039 2.30087C19.9845 2.35302 19.9219 2.39447 19.8506 2.42552C19.7787 2.45685 19.7025 2.4717 19.621 2.4717Z" fill="#F4F4F4"/>
<path d="M20.5532 2.98287C20.6184 2.96379 20.6911 2.94084 20.7703 2.9159C20.8497 2.89093 20.9385 2.8677 21.0375 2.84675C21.1357 2.82518 21.2462 2.80767 21.368 2.79412C21.4897 2.78027 21.6282 2.77353 21.7823 2.77353C22.2351 2.77353 22.5472 2.90556 22.7196 3.16884C22.8918 3.43211 22.9216 3.79242 22.8098 4.2491L22.4149 5.8986H21.5508L21.9335 4.28383C21.9569 4.18299 21.9752 4.08552 21.9886 3.99029C22.0024 3.89589 22.0016 3.81272 21.9856 3.74071C21.9705 3.66957 21.9343 3.61134 21.8787 3.56622C21.822 3.52183 21.7364 3.49952 21.6202 3.49952C21.5083 3.49952 21.3945 3.51158 21.2782 3.5348L20.7155 5.89854H19.851L20.5532 2.98287Z" fill="#F4F4F4"/>
</g>
<defs>
<clipPath id="clip0_1_3510">
<rect width="21.952" height="7.18429" fill="white" transform="translate(0.923584 0.193069)"/>
</clipPath>
</defs>
</svg>
