<svg width="34" height="8" viewBox="0 0 34 8" fill="none" xmlns="http://www.w3.org/2000/svg">
<g clip-path="url(#clip0_1_3735)">
<path d="M10.1461 2.27824C10.6358 2.27824 10.9788 2.55005 10.9788 3.05461H11.6202C11.6202 2.16941 10.9738 1.743 10.1364 1.743C9.10776 1.743 8.51025 2.30698 8.51025 3.49887C8.51025 4.72034 9.10776 5.25449 10.1364 5.25449C10.9837 5.25449 11.6202 4.83923 11.6202 3.95375H11.0031C11.0031 4.44827 10.6651 4.72034 10.1464 4.72034C9.46539 4.72034 9.15143 4.33941 9.15143 3.54826V3.44949C9.15198 2.67368 9.47008 2.27824 10.1461 2.27824Z" fill="#EDEDED"/>
<path d="M13.1426 1.80304L11.8348 5.19592H12.4815L12.7507 4.45891H14.2876L14.564 5.19592H15.24L13.9314 1.80304H13.1426ZM12.9467 3.92394L13.2896 2.99381C13.3582 2.81103 13.4806 2.4153 13.5052 2.34609H13.5295C13.5541 2.4153 13.6766 2.81577 13.7451 2.99381L14.0878 3.92365L12.9467 3.92394Z" fill="#EDEDED"/>
<path d="M18.5632 2.83167C18.5632 2.20378 18.2056 1.80304 17.4661 1.80304H15.6929V5.19592H16.32V3.88431H17.363L17.9986 5.19592H18.6843L17.9657 3.78635C18.3623 3.62812 18.5632 3.29185 18.5632 2.83167ZM17.4168 3.35101H16.32V2.3422H17.4168C17.7548 2.3422 17.9311 2.52525 17.9311 2.83167C17.9311 3.15343 17.7403 3.35101 17.4168 3.35101Z" fill="#EDEDED"/>
<path d="M20.5886 1.80304H19.2461V5.19592H20.5881C21.6018 5.19592 22.2187 4.66178 22.2187 3.49947C22.2187 2.33717 21.6024 1.80304 20.5886 1.80304ZM21.578 3.54887C21.5731 4.29091 21.2255 4.65677 20.5886 4.65677H19.8736V2.3422H20.5886C21.2243 2.3422 21.578 2.70832 21.578 3.45008V3.54887Z" fill="#EDEDED"/>
<path d="M23.6874 1.80304L22.379 5.19592H23.0255L23.295 4.45891H24.8329L25.107 5.19592H25.7831L24.4752 1.80304H23.6874ZM23.4915 3.92394L23.8338 2.99381C23.9024 2.81103 24.0248 2.4153 24.0494 2.34609H24.0743C24.0986 2.4153 24.2213 2.81577 24.2899 2.99381L24.6325 3.92365L23.4915 3.92394Z" fill="#EDEDED"/>
<path d="M28.4755 3.82096C28.4755 3.88514 28.4852 4.05817 28.4852 4.08803L28.4608 4.0978C28.4463 4.07826 28.3481 3.90496 28.2951 3.82599L26.8356 1.80304H26.2372V5.19592H26.8397V3.1632C26.8397 3.07948 26.8298 2.91595 26.8298 2.89111L26.8543 2.87632C26.869 2.89614 26.9425 3.03958 27.0201 3.15343L28.4896 5.19592H29.0771V1.80304H28.475V3.82096H28.4755Z" fill="#EDEDED"/>
<path d="M31.2269 1.74405C30.1739 1.74405 29.5372 2.30776 29.5372 3.49965C29.5372 4.69154 30.1728 5.25525 31.2269 5.25525C32.281 5.25525 32.9215 4.69154 32.9215 3.49965C32.9215 2.30776 32.2799 1.74405 31.2269 1.74405ZM32.2799 3.55406C32.2799 4.33043 31.9127 4.72112 31.2269 4.72112C30.5463 4.72112 30.179 4.33043 30.179 3.55406V3.45025C30.179 2.67362 30.5512 2.27818 31.2269 2.27818C31.9079 2.27818 32.2799 2.67362 32.2799 3.45025V3.55406Z" fill="#EDEDED"/>
<path fill-rule="evenodd" clip-rule="evenodd" d="M7.29306 3.67472C7.29306 5.61453 5.73574 7.18704 3.81468 7.18704C1.89363 7.18704 0.336304 5.61453 0.336304 3.67472C0.336304 1.73491 1.89363 0.162399 3.81468 0.162399C5.73574 0.162399 7.29306 1.73491 7.29306 3.67472ZM2.71414 3.65752C2.70915 3.74575 2.73888 3.83237 2.79679 3.89836C2.85469 3.96436 2.93606 4.00432 3.023 4.00948H3.04091C3.10493 4.00941 3.16754 3.99032 3.221 3.95456C3.27446 3.91879 3.31642 3.86793 3.34171 3.80825C3.36701 3.74857 3.37454 3.68267 3.36336 3.61871C3.35218 3.55474 3.32279 3.49548 3.2788 3.44827C3.23483 3.40105 3.17818 3.36793 3.11587 3.35301C3.05356 3.33808 2.98831 3.34201 2.92815 3.36428C2.86801 3.38655 2.81561 3.42621 2.77743 3.47835C2.73923 3.53049 2.71692 3.59285 2.71325 3.6577L2.71414 3.65752ZM1.4319 3.58792C1.44993 3.57712 1.47071 3.572 1.49161 3.57318C1.50551 3.57395 1.51913 3.57749 1.53168 3.58362C1.54423 3.58974 1.55546 3.59833 1.56474 3.60886C1.57401 3.6194 1.58114 3.63169 1.58571 3.64504C1.59029 3.65839 1.59222 3.67252 1.5914 3.68663C1.59019 3.70783 1.58282 3.7282 1.57022 3.74516C1.55761 3.76213 1.54033 3.77492 1.52057 3.78191C1.5008 3.7889 1.47944 3.7898 1.45917 3.78448C1.4389 3.77915 1.42065 3.76786 1.40671 3.75201C1.39277 3.73615 1.38377 3.71647 1.38085 3.69544C1.37793 3.6744 1.38122 3.65296 1.39031 3.63383C1.3994 3.61469 1.41387 3.59871 1.4319 3.58792ZM2.69334 1.72675C2.71195 1.71706 2.72732 1.70199 2.73752 1.68344C2.74772 1.6649 2.75227 1.64371 2.75063 1.62254C2.74897 1.60137 2.74119 1.58117 2.72824 1.56448C2.71531 1.54779 2.69779 1.53536 2.6779 1.52875C2.65802 1.52214 2.63665 1.52165 2.61649 1.52734C2.59633 1.53302 2.57827 1.54464 2.5646 1.56072C2.55092 1.57679 2.54226 1.59662 2.53966 1.61769C2.53705 1.63876 2.54067 1.66014 2.55002 1.67913C2.55631 1.69186 2.56502 1.70317 2.57563 1.71247C2.58626 1.72174 2.59859 1.7288 2.6119 1.73324C2.62523 1.73766 2.63929 1.73937 2.65326 1.73825C2.66724 1.73715 2.68085 1.73324 2.69334 1.72675ZM3.0948 2.24878C3.07886 2.27739 3.05492 2.30056 3.02602 2.31536C3.00681 2.32519 2.98588 2.33108 2.96442 2.33269C2.94298 2.33432 2.92142 2.33164 2.90099 2.32479C2.88056 2.31796 2.86165 2.3071 2.84537 2.29285C2.82906 2.2786 2.8157 2.26122 2.80603 2.24172C2.79147 2.21238 2.78581 2.1793 2.78976 2.1467C2.79371 2.11408 2.8071 2.0834 2.82824 2.05851C2.8494 2.03362 2.87733 2.01566 2.90853 2.00688C2.93974 1.9981 2.9728 1.99891 3.00355 2.00919C3.0343 2.01949 3.06136 2.03881 3.08129 2.06469C3.10123 2.09058 3.11315 2.12189 3.11556 2.15467C3.11796 2.18743 3.11075 2.22019 3.0948 2.24878ZM1.90655 2.72021C1.92884 2.73509 1.95499 2.74293 1.98168 2.74273C2.00837 2.74252 2.0344 2.7343 2.05648 2.71906C2.07856 2.70385 2.09568 2.68233 2.1057 2.65723C2.11573 2.63212 2.11818 2.60458 2.11275 2.57805C2.10735 2.55153 2.0943 2.52724 2.07527 2.50825C2.05625 2.48926 2.03209 2.47641 2.00587 2.47137C1.97966 2.46631 1.95254 2.46924 1.92797 2.47983C1.9034 2.4904 1.88249 2.50813 1.86785 2.53079C1.84825 2.56112 1.84132 2.59811 1.84858 2.63362C1.85583 2.66914 1.87668 2.70029 1.90655 2.72021ZM2.01357 3.53539C2.04146 3.51871 2.07361 3.51079 2.10592 3.51264C2.14929 3.51516 2.18991 3.53507 2.21883 3.56796C2.24775 3.60086 2.26263 3.64405 2.26017 3.68807C2.25832 3.72087 2.24692 3.75237 2.22741 3.7786C2.20792 3.80483 2.1812 3.82462 2.15062 3.83542C2.12004 3.84625 2.087 3.84762 2.05566 3.83938C2.02431 3.83116 1.99609 3.81368 1.97452 3.78916C1.95297 3.76463 1.93906 3.73419 1.93455 3.70165C1.93004 3.66912 1.93515 3.63596 1.94921 3.60636C1.96328 3.57677 1.98567 3.55208 2.01357 3.53539ZM1.92443 4.62982C1.90062 4.64203 1.88092 4.66112 1.86781 4.6847C1.85469 4.70827 1.84876 4.73526 1.85076 4.76225C1.85276 4.78924 1.8626 4.81503 1.87904 4.83636C1.89548 4.85767 1.91777 4.87355 1.94312 4.88202C1.96846 4.89048 1.99571 4.89113 2.0214 4.88388C2.04711 4.87664 2.07011 4.86182 2.08752 4.8413C2.10491 4.82079 2.11593 4.7955 2.11919 4.76863C2.12243 4.74176 2.11775 4.71453 2.10573 4.69035C2.09775 4.67429 2.08673 4.65999 2.07331 4.64825C2.05987 4.63652 2.04429 4.62758 2.02745 4.62196C2.01062 4.61634 1.99284 4.61414 1.97517 4.61548C1.95749 4.61684 1.94026 4.6217 1.92443 4.62982ZM2.66833 3.20123C2.63021 3.20158 2.59285 3.19043 2.56096 3.16923C2.53976 3.15517 2.52151 3.137 2.50725 3.11577C2.49299 3.09453 2.48298 3.07065 2.47783 3.04549C2.47267 3.02033 2.47245 2.99438 2.47718 2.96914C2.48192 2.94389 2.49152 2.91984 2.50542 2.89837C2.52633 2.86601 2.55622 2.84067 2.59132 2.82557C2.6264 2.81045 2.66512 2.80623 2.70258 2.81345C2.74003 2.82067 2.77453 2.83899 2.80173 2.8661C2.82892 2.89323 2.84758 2.9279 2.85534 2.96579C2.86311 3.00366 2.85964 3.04301 2.84535 3.07889C2.83107 3.11476 2.80664 3.14552 2.77513 3.1673C2.74362 3.18908 2.70645 3.20089 2.66833 3.20123ZM4.58032 2.30233C4.60748 2.32029 4.63926 2.32969 4.67168 2.32932C4.70409 2.32897 4.73568 2.31887 4.76243 2.3003C4.78918 2.28173 4.80991 2.25553 4.82199 2.22501C4.83407 2.19448 4.83696 2.16102 4.83031 2.12882C4.82365 2.09663 4.80773 2.06716 4.78458 2.04416C4.76142 2.02113 4.73206 2.00562 4.7002 1.99953C4.66834 1.99345 4.63542 1.99708 4.6056 2.00998C4.57578 2.02288 4.55041 2.04446 4.53267 2.07198C4.52087 2.09028 4.51273 2.11075 4.50873 2.13224C4.50474 2.15373 4.50497 2.17579 4.50939 2.1972C4.51382 2.21859 4.52236 2.2389 4.53453 2.25694C4.54671 2.27498 4.56226 2.2904 4.58032 2.30233ZM4.97553 1.73311C4.95455 1.7333 4.93398 1.72717 4.91643 1.7155C4.89293 1.69987 4.87649 1.67541 4.87075 1.64749C4.86501 1.61957 4.87042 1.59049 4.8858 1.56661C4.89728 1.54879 4.91371 1.53483 4.93301 1.52648C4.95232 1.51814 4.97361 1.51579 4.99423 1.51974C5.01486 1.52369 5.03385 1.53375 5.04884 1.54866C5.06382 1.56357 5.07411 1.58266 5.07839 1.6035C5.08268 1.62434 5.08078 1.64601 5.07292 1.66575C5.06508 1.6855 5.05164 1.70244 5.0343 1.71443C5.01695 1.72642 4.99651 1.73292 4.97553 1.73311ZM4.60615 3.34087C4.56317 3.33837 4.5201 3.34447 4.47943 3.35885C4.43877 3.37323 4.40129 3.3956 4.36913 3.42467C4.30422 3.48339 4.26494 3.5659 4.25994 3.65401C4.25496 3.74212 4.28467 3.82864 4.34254 3.89451C4.40041 3.9604 4.48171 4.00026 4.56854 4.00532H4.58753C4.65077 4.00529 4.71267 3.98669 4.76575 3.95176C4.81881 3.91685 4.8608 3.86708 4.88662 3.80849C4.91246 3.7499 4.92103 3.68498 4.91132 3.62156C4.90161 3.55813 4.87402 3.49891 4.83189 3.45103C4.80335 3.41838 4.76869 3.39183 4.72994 3.37292C4.69119 3.354 4.64911 3.34311 4.60615 3.34087ZM3.25455 3.28008C3.20275 3.24773 3.1609 3.20135 3.13369 3.14618C3.10866 3.09547 3.09682 3.03912 3.09927 2.98247C3.10174 2.92581 3.11842 2.87073 3.14773 2.82245C3.17706 2.77418 3.21806 2.73431 3.26682 2.70661C3.3156 2.67893 3.37054 2.66434 3.42641 2.66424C3.4871 2.66395 3.54664 2.6808 3.5984 2.71292C3.65017 2.74502 3.6921 2.79112 3.71951 2.84604C3.74483 2.89679 3.75691 2.95329 3.7546 3.01012C3.75227 3.06696 3.73566 3.12225 3.7063 3.1707C3.67694 3.21917 3.63583 3.25918 3.58689 3.28694C3.53796 3.31469 3.48284 3.32927 3.42678 3.32925C3.36597 3.32944 3.30633 3.31241 3.25455 3.28008ZM5.7046 2.71986C5.72841 2.70767 5.74812 2.68859 5.76125 2.66502C5.77437 2.64146 5.78033 2.61448 5.77834 2.5875C5.77636 2.5605 5.76654 2.53472 5.75013 2.51339C5.73371 2.49206 5.71143 2.47614 5.6861 2.46766C5.66077 2.45917 5.63353 2.4585 5.60782 2.46571C5.58211 2.47295 5.55911 2.48773 5.54168 2.50823C5.52426 2.52871 5.51321 2.554 5.50993 2.58086C5.50666 2.60772 5.51131 2.63496 5.52329 2.65915C5.53942 2.69157 5.56756 2.71619 5.60156 2.72757C5.63555 2.73896 5.67261 2.73618 5.7046 2.71986ZM4.79203 2.90426C4.81081 2.87059 4.839 2.84334 4.87306 2.82594C4.89567 2.81434 4.92028 2.8074 4.94555 2.8055C4.9708 2.80358 4.99618 2.80676 5.02021 2.81481C5.04426 2.82287 5.0665 2.83566 5.08567 2.85244C5.10484 2.86923 5.12056 2.88968 5.13193 2.91264C5.14908 2.94719 5.15574 2.98613 5.15109 3.02454C5.14643 3.06294 5.13065 3.09907 5.10576 3.12836C5.08086 3.15767 5.04796 3.17881 5.01121 3.18914C4.97448 3.19947 4.93554 3.19851 4.89934 3.18638C4.86313 3.17426 4.83129 3.15151 4.80782 3.12102C4.78436 3.09052 4.77033 3.05365 4.76752 3.01507C4.76471 2.97649 4.77323 2.93791 4.79203 2.90426ZM3.80211 1.66527C3.82875 1.66681 3.85525 1.6603 3.87824 1.64656C3.90123 1.63282 3.9197 1.61246 3.93129 1.58807C3.94287 1.56368 3.94708 1.53635 3.94336 1.50954C3.93965 1.48272 3.92817 1.45763 3.9104 1.43743C3.89263 1.41723 3.86935 1.40283 3.84352 1.39606C3.81767 1.38929 3.79044 1.39045 3.76526 1.39939C3.74005 1.40832 3.71804 1.42464 3.702 1.44628C3.68595 1.46791 3.67659 1.49389 3.67509 1.52093C3.67308 1.55716 3.68533 1.59271 3.70916 1.61978C3.73297 1.64685 3.76641 1.66321 3.80211 1.66527ZM3.90943 2.50002C3.8766 2.51966 3.83876 2.529 3.80072 2.52683C3.74963 2.52388 3.70181 2.50045 3.66775 2.46174C3.63368 2.42301 3.61618 2.37214 3.61905 2.3203C3.62123 2.2817 3.63466 2.24461 3.65762 2.21374C3.68056 2.18286 3.71202 2.15957 3.74801 2.14683C3.78399 2.13409 3.82289 2.13246 3.85979 2.14215C3.89669 2.15184 3.92993 2.17242 3.95532 2.20127C3.98069 2.23012 3.99707 2.26596 4.00239 2.30426C4.0077 2.34256 4.00171 2.38159 3.98515 2.41645C3.96861 2.45128 3.94226 2.48037 3.90943 2.50002ZM2.75626 4.52358C2.7903 4.50617 2.81849 4.4789 2.83725 4.44523C2.85602 4.41154 2.86453 4.37297 2.8617 4.33438C2.85887 4.29581 2.84483 4.25895 2.82133 4.22845C2.79785 4.19798 2.76599 4.17524 2.72977 4.16314C2.69357 4.15102 2.65462 4.1501 2.61789 4.16044C2.58115 4.1708 2.54826 4.19197 2.52338 4.2213C2.49851 4.25061 2.48276 4.28677 2.47813 4.32517C2.47349 4.36358 2.4802 4.40252 2.49738 4.43705C2.52041 4.48337 2.56061 4.51849 2.60915 4.53471C2.65771 4.55095 2.71061 4.54694 2.75626 4.52358ZM3.87263 3.02156C3.8667 2.94778 3.8852 2.8741 3.92518 2.81219C3.95506 2.76597 3.99581 2.72802 4.04376 2.70177C4.0917 2.67553 4.14533 2.6618 4.19982 2.66185C4.27275 2.66194 4.34358 2.68672 4.40109 2.73225C4.45859 2.7778 4.4995 2.8415 4.51731 2.91328C4.53512 2.98506 4.52884 3.06081 4.49945 3.12857C4.47006 3.19631 4.41924 3.25217 4.35505 3.28733C4.29085 3.32247 4.21694 3.33489 4.145 3.32259C4.07306 3.31032 4.00722 3.27404 3.95789 3.21952C3.90856 3.16499 3.87856 3.09533 3.87263 3.02156ZM4.49527 4.20355C4.46901 4.15069 4.42933 4.1059 4.3803 4.0738C4.33128 4.04171 4.27473 4.02346 4.21643 4.02095C4.15815 4.01845 4.10027 4.03176 4.04876 4.05953C3.99723 4.08731 3.95396 4.12851 3.92336 4.17893C3.89279 4.22933 3.87601 4.28711 3.87478 4.34629C3.87354 4.40547 3.88788 4.46392 3.91633 4.5156C3.94479 4.56728 3.98631 4.61031 4.03662 4.64027C4.08693 4.67022 4.14421 4.68603 4.20254 4.68603C4.25386 4.68566 4.30439 4.67322 4.35016 4.64966C4.42757 4.60991 4.48631 4.54063 4.5135 4.45701C4.54071 4.3734 4.53415 4.28226 4.49527 4.20355ZM4.96087 4.14831C4.99899 4.14799 5.03635 4.15915 5.06823 4.18038C5.11088 4.20891 5.14066 4.25345 5.15104 4.30422C5.16142 4.35499 5.15153 4.40785 5.12358 4.45126C5.10265 4.48361 5.07275 4.50891 5.03765 4.52401C5.00255 4.5391 4.96381 4.5433 4.92637 4.53607C4.88892 4.52882 4.85442 4.51048 4.82724 4.48335C4.80006 4.45621 4.78142 4.42152 4.77369 4.38363C4.76594 4.34575 4.76945 4.30638 4.78374 4.27052C4.79805 4.23466 4.82251 4.20391 4.85404 4.18215C4.88556 4.16039 4.92274 4.14861 4.96087 4.14831ZM5.69596 3.6805C5.6978 3.64769 5.68999 3.61507 5.67356 3.58677C5.65712 3.55846 5.63277 3.53574 5.60361 3.52147C5.57444 3.5072 5.54176 3.50202 5.50971 3.50659C5.47765 3.51117 5.44764 3.52529 5.42348 3.54716C5.39932 3.56903 5.38209 3.59769 5.37398 3.62949C5.36585 3.66129 5.36721 3.69484 5.37788 3.72586C5.38854 3.75688 5.40802 3.784 5.43387 3.80378C5.45972 3.82358 5.49077 3.83514 5.52309 3.83702C5.56646 3.83951 5.60904 3.82441 5.64145 3.79506C5.67386 3.76572 5.69348 3.72451 5.69596 3.6805ZM6.08975 3.57674C6.10782 3.56595 6.12866 3.56086 6.14959 3.56207C6.17766 3.56376 6.20392 3.57666 6.22262 3.59796C6.24133 3.61926 6.25096 3.64721 6.24939 3.67569C6.24817 3.69694 6.24079 3.71736 6.22816 3.73435C6.21552 3.75134 6.19821 3.76414 6.1784 3.77115C6.15859 3.77816 6.13718 3.77904 6.11686 3.77369C6.09656 3.76835 6.07829 3.75702 6.06432 3.74112C6.05036 3.72523 6.04137 3.7055 6.03846 3.68441C6.03556 3.66334 6.03889 3.64185 6.04801 3.62269C6.05713 3.60353 6.07166 3.58753 6.08975 3.57674ZM5.72259 4.6294C5.70026 4.61457 5.67411 4.60678 5.64744 4.60702C5.62077 4.60727 5.59476 4.61553 5.57272 4.63077C5.55068 4.64602 5.53357 4.66754 5.52358 4.69265C5.5136 4.71775 5.51117 4.74529 5.51659 4.77179C5.52203 4.79829 5.53509 4.82256 5.55411 4.84154C5.57313 4.86051 5.59727 4.87335 5.62349 4.87839C5.6497 4.88345 5.67679 4.8805 5.70134 4.86993C5.72591 4.85936 5.74683 4.84164 5.76145 4.819C5.77118 4.80396 5.7779 4.78713 5.7812 4.76946C5.7845 4.75179 5.78435 4.73364 5.78074 4.71603C5.77714 4.69842 5.77013 4.6817 5.76016 4.66684C5.75018 4.65197 5.7374 4.63925 5.72259 4.6294ZM2.65364 5.61643C2.67462 5.61625 2.69518 5.6224 2.71271 5.63407C2.72436 5.64183 2.73439 5.65184 2.74222 5.66352C2.75006 5.67521 2.75554 5.68835 2.75837 5.70219C2.7612 5.71605 2.76131 5.73032 2.75871 5.74419C2.7561 5.75808 2.75082 5.77132 2.74316 5.78313C2.73165 5.80092 2.71519 5.81486 2.69587 5.82314C2.67657 5.83144 2.65526 5.83374 2.63465 5.82977C2.61405 5.82578 2.59508 5.81569 2.58014 5.80076C2.56518 5.78581 2.55494 5.76674 2.55068 5.74589C2.54641 5.72505 2.54834 5.7034 2.55622 5.68367C2.56407 5.66394 2.57753 5.64703 2.59487 5.63506C2.61222 5.62308 2.63268 5.6166 2.65364 5.61643ZM4.93565 5.62297C4.91693 5.63255 4.90141 5.64754 4.89108 5.66608C4.88076 5.68461 4.87608 5.70583 4.87763 5.72705C4.87918 5.74828 4.88691 5.76857 4.89983 5.78534C4.91274 5.80212 4.93028 5.81462 4.9502 5.82129C4.97012 5.82795 4.99154 5.82846 5.01175 5.82277C5.03197 5.81707 5.05006 5.80544 5.06375 5.7893C5.07744 5.77317 5.08611 5.75328 5.08867 5.73216C5.09122 5.71102 5.08753 5.68959 5.07808 5.67059C5.07183 5.65797 5.06318 5.64671 5.05264 5.63747C5.04208 5.62824 5.02984 5.62121 5.0166 5.61678C5.00339 5.61235 4.98943 5.61063 4.97553 5.61168C4.96163 5.61275 4.94808 5.61659 4.93565 5.62297ZM3.75632 4.3274C3.76225 4.40119 3.74377 4.47487 3.70378 4.5368C3.67404 4.58312 3.63335 4.62115 3.58541 4.64741C3.53747 4.67367 3.48381 4.68732 3.42932 4.68715C3.35637 4.68708 3.28552 4.66234 3.22799 4.61682C3.17045 4.5713 3.12953 4.50762 3.11168 4.43584C3.09383 4.36406 3.10009 4.28829 3.12945 4.22052C3.15883 4.15276 3.20963 4.09687 3.27382 4.0617C3.33803 4.02654 3.41195 4.01411 3.48389 4.02637C3.55584 4.03864 3.62169 4.0749 3.67104 4.12944C3.72038 4.18396 3.75039 4.25363 3.75632 4.3274ZM3.04863 5.0474C3.02153 5.02941 2.98978 5.01999 2.95742 5.02029C2.92504 5.02061 2.89348 5.03067 2.86673 5.04917C2.83997 5.06769 2.81923 5.09382 2.80712 5.1243C2.79502 5.15478 2.79208 5.18821 2.79869 5.22036C2.8053 5.25253 2.82116 5.28199 2.84426 5.30501C2.86736 5.32803 2.89667 5.34358 2.92848 5.3497C2.96029 5.35583 2.99318 5.35223 3.02298 5.33938C3.05279 5.32655 3.07816 5.30503 3.09592 5.27755C3.1197 5.24066 3.12808 5.1957 3.11921 5.15254C3.11034 5.10939 3.08495 5.07157 3.04863 5.0474ZM3.73689 5.70288C3.75988 5.68915 3.78636 5.68263 3.81299 5.68417C3.83068 5.68519 3.84801 5.68974 3.86398 5.69756C3.87993 5.70538 3.89422 5.7163 3.90602 5.72973C3.91781 5.74316 3.92689 5.7588 3.93272 5.77579C3.93856 5.79276 3.94102 5.81074 3.94001 5.8287C3.93848 5.85573 3.92909 5.88169 3.91302 5.90329C3.89696 5.9249 3.87494 5.94119 3.84973 5.95011C3.82455 5.95902 3.79732 5.96015 3.7715 5.95335C3.74567 5.94657 3.72241 5.93217 3.70465 5.91196C3.6869 5.89176 3.67545 5.86666 3.67173 5.83986C3.66803 5.81304 3.67226 5.78572 3.68385 5.76134C3.69543 5.73696 3.7139 5.71662 3.73689 5.70288ZM3.81455 4.82306C3.77647 4.82071 3.73855 4.82989 3.7056 4.84941C3.67265 4.86896 3.64617 4.89798 3.62949 4.9328C3.61281 4.96764 3.60669 5.0067 3.61191 5.04505C3.61712 5.08342 3.63344 5.11934 3.6588 5.14828C3.68415 5.17721 3.7174 5.19787 3.75431 5.20762C3.79125 5.21736 3.83021 5.21578 3.86624 5.20304C3.90227 5.19032 3.93378 5.16702 3.95676 5.1361C3.97973 5.10519 3.99315 5.06806 3.99532 5.02939C3.99826 4.97773 3.98087 4.92697 3.94699 4.88829C3.9131 4.84961 3.86546 4.82615 3.81455 4.82306ZM4.53423 5.10106C4.55012 5.07235 4.57404 5.04909 4.60298 5.03419C4.62212 5.02428 4.64303 5.01829 4.66446 5.01657C4.6859 5.01486 4.70747 5.01746 4.72791 5.02422C4.74837 5.03097 4.76731 5.04175 4.78365 5.05594C4.8 5.07013 4.8134 5.08745 4.82314 5.10692C4.83789 5.13623 4.84373 5.16932 4.83993 5.20202C4.83614 5.2347 4.82286 5.26551 4.8018 5.29055C4.78074 5.31558 4.75283 5.33372 4.72161 5.34264C4.69038 5.35156 4.65726 5.35089 4.62641 5.34071C4.59556 5.33052 4.5684 5.31127 4.54833 5.28541C4.52827 5.25954 4.51622 5.22822 4.51371 5.19539C4.5112 5.16259 4.51834 5.12975 4.53423 5.10106Z" fill="#EDEDED"/>
</g>
<defs>
<clipPath id="clip0_1_3735">
<rect width="32.7284" height="7.18429" fill="white" transform="translate(0.298584 0.0826721)"/>
</clipPath>
</defs>
</svg>
