<svg width="30" height="8" viewBox="0 0 30 8" fill="none" xmlns="http://www.w3.org/2000/svg">
<g clip-path="url(#clip0_1_3694)">
<path fill-rule="evenodd" clip-rule="evenodd" d="M4.13056 7.23325C6.10229 7.23325 7.70069 5.63253 7.70069 3.6579C7.70069 1.6833 6.10229 0.0825806 4.13056 0.0825806C2.15883 0.0825806 0.560425 1.6833 0.560425 3.6579C0.560425 5.63253 2.15883 7.23325 4.13056 7.23325ZM3.98828 1.54815H2.77763V3.42631H2.28041V3.88634H2.77765V5.7645H4.1883C4.1883 5.7645 6.17176 5.93092 6.17176 3.69151C6.17176 1.53898 4.36052 1.54661 4.01043 1.54808L3.98828 1.54815ZM3.57212 4.98511V3.88637H4.44769V3.42634H3.57212V2.32757H4.12881C4.33689 2.32757 5.38401 2.41142 5.38561 3.70675C5.38724 4.98664 4.33133 4.98532 4.16157 4.98511L4.15583 4.98511H3.57212ZM0.598005 3.65777C0.598005 1.70414 2.17947 0.120158 4.13061 0.120158C6.08176 0.120158 7.66322 1.70414 7.66322 3.65777C7.66322 5.61138 6.08176 7.19536 4.13061 7.19536C2.17947 7.19536 0.598005 5.61138 0.598005 3.65777ZM4.13061 0.319722C2.28996 0.319722 0.797568 1.81408 0.797568 3.65777C0.797568 5.50143 2.28996 6.9958 4.13061 6.9958C5.97127 6.9958 7.46366 5.50143 7.46366 3.65777C7.46366 1.81408 5.97127 0.319722 4.13061 0.319722Z" fill="#F4F4F4"/>
<path d="M11.9311 3.2369C11.9341 3.3652 11.9355 3.47781 11.9355 3.57473C11.9355 3.67168 11.9341 3.78429 11.9311 3.91256C11.9282 4.09218 11.8959 4.25468 11.8343 4.40009C11.7727 4.54262 11.6875 4.6638 11.579 4.76358C11.4704 4.86337 11.3413 4.94034 11.1916 4.99449C11.0419 5.04581 10.8761 5.07147 10.6941 5.07147H9.65963C9.62736 5.07147 9.59946 5.06007 9.57601 5.03727C9.55252 5.01447 9.54077 4.98738 9.54077 4.956V2.19346C9.54077 2.16211 9.55252 2.13502 9.57601 2.11222C9.59946 2.08942 9.62736 2.07802 9.65963 2.07802H10.6677C10.8497 2.07802 11.017 2.10508 11.1696 2.15926C11.3251 2.21057 11.4586 2.28612 11.5702 2.38591C11.6817 2.48569 11.7682 2.60827 11.8299 2.75368C11.8945 2.89621 11.9282 3.05731 11.9311 3.2369ZM11.5129 3.2583C11.51 3.15566 11.4924 3.05731 11.4601 2.96322C11.4308 2.86629 11.3823 2.78077 11.3148 2.70665C11.2473 2.6325 11.1593 2.57407 11.0507 2.53132C10.9421 2.48569 10.8086 2.46288 10.6501 2.46288H9.95897V4.68661H10.6721C10.8306 4.68661 10.9627 4.66523 11.0683 4.62246C11.1769 4.57685 11.2635 4.51696 11.328 4.44284C11.3926 4.36872 11.4381 4.28463 11.4645 4.19053C11.4939 4.09361 11.51 3.99383 11.5129 3.89119C11.5129 3.82847 11.5129 3.77289 11.5129 3.7244C11.5159 3.67311 11.5173 3.62462 11.5173 3.57902C11.5173 3.53056 11.5159 3.48209 11.5129 3.43363C11.5129 3.38231 11.5129 3.32385 11.5129 3.2583Z" fill="#F4F4F4"/>
<path d="M13.5342 2.67671C13.6848 2.67671 13.8187 2.70184 13.9358 2.7521C14.053 2.79939 14.1534 2.86592 14.2371 2.95167C14.3207 3.0374 14.3863 3.14235 14.4337 3.26652C14.4839 3.38774 14.5146 3.52079 14.5257 3.66566C14.5285 3.69227 14.5299 3.72478 14.5299 3.76321C14.5299 3.79871 14.5299 3.83714 14.5299 3.87851C14.5299 3.91694 14.5299 3.95538 14.5299 3.99384C14.5299 4.02931 14.5285 4.05888 14.5257 4.08253C14.5118 4.23034 14.4811 4.36487 14.4337 4.48609C14.3863 4.60729 14.3207 4.71076 14.2371 4.79652C14.1534 4.88225 14.053 4.95025 13.9358 5.00051C13.8187 5.04783 13.6848 5.07148 13.5342 5.07148C13.3836 5.07148 13.2497 5.04783 13.1326 5.00051C13.0154 4.95025 12.915 4.88225 12.8314 4.79652C12.7477 4.71076 12.6807 4.60729 12.6305 4.48609C12.5831 4.36487 12.5538 4.23034 12.5427 4.08253C12.5399 4.05888 12.5371 4.02931 12.5343 3.99384C12.5343 3.95538 12.5343 3.91694 12.5343 3.87851C12.5343 3.83714 12.5343 3.79871 12.5343 3.76321C12.5371 3.72478 12.5399 3.69227 12.5427 3.66566C12.5538 3.52079 12.5831 3.38774 12.6305 3.26652C12.6807 3.14235 12.7477 3.0374 12.8314 2.95167C12.915 2.86592 13.0154 2.79939 13.1326 2.7521C13.2497 2.70184 13.3836 2.67671 13.5342 2.67671ZM14.145 4.06034C14.1506 4.01008 14.1534 3.94948 14.1534 3.87851C14.1534 3.80461 14.1506 3.74105 14.145 3.68783C14.1367 3.59914 14.1185 3.51634 14.0906 3.43948C14.0627 3.36261 14.0237 3.29609 13.9735 3.23991C13.9233 3.18375 13.8619 3.13939 13.7894 3.10688C13.7169 3.07435 13.6318 3.05808 13.5342 3.05808C13.4366 3.05808 13.3515 3.07435 13.279 3.10688C13.2065 3.13939 13.1451 3.18375 13.0949 3.23991C13.0447 3.29609 13.0057 3.36261 12.9778 3.43948C12.9499 3.51634 12.9317 3.59914 12.9234 3.68783C12.9178 3.74105 12.915 3.80461 12.915 3.87851C12.915 3.94948 12.9178 4.01008 12.9234 4.06034C12.9317 4.14905 12.9499 4.23182 12.9778 4.30868C13.0057 4.38555 13.0447 4.45207 13.0949 4.50826C13.1451 4.56444 13.2065 4.60877 13.279 4.6413C13.3515 4.67381 13.4366 4.69008 13.5342 4.69008C13.6318 4.69008 13.7169 4.67381 13.7894 4.6413C13.8619 4.60877 13.9233 4.56444 13.9735 4.50826C14.0237 4.45207 14.0627 4.38555 14.0906 4.30868C14.1185 4.23182 14.1367 4.14905 14.145 4.06034Z" fill="#F4F4F4"/>
<path d="M14.9337 3.81183C14.943 3.6362 14.9754 3.47816 15.031 3.33767C15.0865 3.19718 15.1607 3.07902 15.2533 2.98324C15.3459 2.88425 15.4539 2.80921 15.5775 2.75813C15.704 2.70385 15.8399 2.67671 15.985 2.67671C16.1764 2.67671 16.3292 2.71182 16.4435 2.78207C16.5577 2.84912 16.6442 2.92256 16.7028 3.00241V2.85391C16.7028 2.8188 16.7152 2.78847 16.7399 2.76293C16.7646 2.73736 16.7939 2.72459 16.8279 2.72459H16.9992C17.0332 2.72459 17.0625 2.73736 17.0872 2.76293C17.1119 2.78847 17.1243 2.8188 17.1243 2.85391V5.18165C17.1243 5.51371 17.0332 5.77713 16.851 5.9719C16.6689 6.16987 16.3956 6.26886 16.0313 6.26886C15.846 6.26886 15.6871 6.24492 15.5543 6.19701C15.4246 6.1523 15.3166 6.09485 15.2301 6.02461C15.1467 5.95436 15.0834 5.87772 15.0402 5.7947C15.0001 5.71168 14.9785 5.63184 14.9754 5.55522C14.9723 5.52008 14.9831 5.48977 15.0078 5.46421C15.0356 5.43867 15.0665 5.4259 15.1004 5.4259H15.2394C15.2733 5.4259 15.3011 5.4339 15.3227 5.44984C15.3474 5.46901 15.3706 5.50414 15.3922 5.55522C15.4015 5.57439 15.4154 5.59993 15.4339 5.63184C15.4555 5.66698 15.4879 5.70051 15.5311 5.73242C15.5775 5.76756 15.6361 5.7963 15.7071 5.81864C15.7812 5.84418 15.8738 5.85695 15.985 5.85695C16.0869 5.85695 16.1811 5.84578 16.2675 5.82344C16.3571 5.80427 16.4342 5.77076 16.499 5.72285C16.5639 5.67495 16.6133 5.6111 16.6473 5.53128C16.6843 5.45144 16.7028 5.35405 16.7028 5.2391V4.93737C16.6411 5.02359 16.5531 5.1002 16.4389 5.16728C16.3246 5.23113 16.1733 5.26307 15.985 5.26307C15.8399 5.26307 15.704 5.23753 15.5775 5.18642C15.4539 5.13214 15.3459 5.0571 15.2533 4.96131C15.1607 4.86233 15.0865 4.7426 15.031 4.60211C14.9754 4.46161 14.943 4.30355 14.9337 4.12792C14.9306 4.08004 14.9291 4.02737 14.9291 3.96989C14.9291 3.91241 14.9306 3.85973 14.9337 3.81183ZM16.7028 3.79746C16.6936 3.57075 16.6272 3.39672 16.5037 3.27539C16.3833 3.15087 16.2258 3.08859 16.0313 3.08859C15.8275 3.08859 15.667 3.15567 15.5497 3.28976C15.4323 3.42388 15.3675 3.60589 15.3552 3.83577C15.3521 3.92518 15.3521 4.0146 15.3552 4.10398C15.3675 4.33389 15.4323 4.51589 15.5497 4.64999C15.667 4.78411 15.8275 4.85116 16.0313 4.85116C16.2258 4.85116 16.3833 4.78888 16.5037 4.66436C16.6272 4.53983 16.6936 4.36583 16.7028 4.14229C16.7059 4.09441 16.7075 4.03694 16.7075 3.96989C16.7075 3.90284 16.7059 3.84536 16.7028 3.79746Z" fill="#F4F4F4"/>
<path d="M17.5352 3.65236C17.5479 3.51634 17.5826 3.38922 17.6396 3.27096C17.6966 3.1527 17.7709 3.04922 17.8627 2.96053C17.9544 2.87184 18.0636 2.80235 18.1902 2.7521C18.3199 2.70184 18.4639 2.67671 18.6221 2.67671C18.793 2.67671 18.9449 2.70332 19.0778 2.75654C19.2138 2.8068 19.3293 2.8807 19.4243 2.97828C19.5192 3.07583 19.592 3.19409 19.6426 3.33304C19.6932 3.47201 19.7185 3.62723 19.7185 3.79871V3.91843C19.7185 3.95096 19.7059 3.97905 19.6806 4.0027C19.6552 4.02635 19.6252 4.03817 19.5904 4.03817H17.9576V4.06478C17.9639 4.26583 18.0288 4.42105 18.1522 4.53042C18.2788 4.63686 18.4354 4.69008 18.6221 4.69008C18.7961 4.69008 18.9259 4.66791 19.0113 4.62356C19.0999 4.57626 19.1711 4.52452 19.2249 4.46834C19.2502 4.44469 19.2724 4.42843 19.2913 4.41957C19.3103 4.41068 19.3388 4.40626 19.3768 4.40626H19.5192C19.554 4.40626 19.5856 4.41808 19.6141 4.44173C19.6426 4.46538 19.6537 4.49347 19.6473 4.526C19.6378 4.57922 19.6109 4.63834 19.5666 4.70338C19.5223 4.76546 19.4575 4.82461 19.372 4.88076C19.2898 4.93398 19.1854 4.97982 19.0588 5.01826C18.9354 5.05373 18.7898 5.07148 18.6221 5.07148C18.4639 5.07148 18.3215 5.04635 18.1949 4.99609C18.0684 4.94287 17.9576 4.8719 17.8627 4.78321C17.7709 4.69156 17.6966 4.58512 17.6396 4.4639C17.5826 4.33974 17.5479 4.20521 17.5352 4.06034C17.5194 3.92435 17.5194 3.78834 17.5352 3.65236ZM17.9576 3.66566H19.2913V3.65236C19.2913 3.47201 19.2296 3.32862 19.1062 3.22218C18.986 3.11278 18.8246 3.05808 18.6221 3.05808C18.5304 3.05808 18.4449 3.07287 18.3658 3.10244C18.2867 3.12905 18.2171 3.16896 18.157 3.22218C18.0969 3.27244 18.0494 3.33452 18.0146 3.40845C17.9798 3.48236 17.9608 3.56367 17.9576 3.65236V3.66566Z" fill="#F4F4F4"/>
<path d="M20.5202 4.02931C20.5317 4.14757 20.5563 4.24808 20.5938 4.33088C20.6342 4.41364 20.6818 4.48165 20.7366 4.53487C20.7943 4.58808 20.8578 4.628 20.927 4.65461C20.9963 4.67826 21.0669 4.69008 21.1391 4.69008C21.2776 4.69008 21.3959 4.66347 21.494 4.61025C21.5921 4.55703 21.6685 4.46834 21.7234 4.34418C21.7435 4.29686 21.7637 4.26583 21.784 4.25105C21.807 4.2333 21.8344 4.22444 21.8662 4.22444H21.996C22.0278 4.22444 22.0552 4.23626 22.0783 4.25991C22.1042 4.28355 22.1158 4.31165 22.1129 4.34418C22.11 4.41512 22.0869 4.49347 22.0436 4.57922C22.0032 4.66199 21.9412 4.74034 21.8575 4.81424C21.7767 4.88521 21.6757 4.94581 21.5546 4.99609C21.4363 5.04635 21.2978 5.07148 21.1391 5.07148C20.9804 5.07148 20.839 5.04487 20.7149 4.99165C20.5938 4.93843 20.4899 4.866 20.4033 4.77435C20.3197 4.6827 20.2533 4.57478 20.2043 4.45059C20.1581 4.32643 20.1321 4.19338 20.1263 4.05147C20.1235 4.00418 20.1206 3.94652 20.1177 3.87851C20.1177 3.80757 20.1206 3.74694 20.1263 3.69669C20.1379 3.55478 20.1667 3.42173 20.2129 3.29757C20.262 3.17341 20.3283 3.06549 20.412 2.97384C20.4957 2.88218 20.5981 2.80973 20.7193 2.75654C20.8405 2.70332 20.9804 2.67671 21.1391 2.67671C21.2978 2.67671 21.4363 2.70184 21.5546 2.7521C21.6757 2.80235 21.7767 2.86443 21.8575 2.93836C21.9412 3.00931 22.0032 3.08765 22.0436 3.17341C22.0869 3.25617 22.11 3.33304 22.1129 3.40401C22.1158 3.43652 22.1042 3.46461 22.0783 3.48825C22.0552 3.51193 22.0278 3.52375 21.996 3.52375H21.8662C21.8344 3.52375 21.807 3.51635 21.784 3.50156C21.7637 3.48384 21.7435 3.4513 21.7234 3.40401C21.6685 3.27982 21.5921 3.19113 21.494 3.13791C21.3959 3.08469 21.2776 3.05808 21.1391 3.05808C21.0669 3.05808 20.9948 3.07139 20.9227 3.098C20.8534 3.12167 20.79 3.1601 20.7323 3.2133C20.6774 3.26652 20.6298 3.33452 20.5894 3.41731C20.5519 3.50008 20.5288 3.60062 20.5202 3.71888C20.5115 3.82825 20.5115 3.93173 20.5202 4.02931Z" fill="#F4F4F4"/>
<path d="M23.5124 2.67671C23.663 2.67671 23.7969 2.70184 23.914 2.7521C24.0311 2.79939 24.1316 2.86592 24.2152 2.95167C24.2989 3.0374 24.3644 3.14235 24.4118 3.26652C24.4621 3.38774 24.4927 3.52079 24.5039 3.66566C24.5067 3.69227 24.5081 3.72478 24.5081 3.76321C24.5081 3.79871 24.5081 3.83714 24.5081 3.87851C24.5081 3.91694 24.5081 3.95538 24.5081 3.99384C24.5081 4.02931 24.5067 4.05888 24.5039 4.08253C24.4899 4.23034 24.4593 4.36487 24.4118 4.48609C24.3644 4.60729 24.2989 4.71076 24.2152 4.79652C24.1316 4.88225 24.0311 4.95025 23.914 5.00051C23.7969 5.04783 23.663 5.07148 23.5124 5.07148C23.3618 5.07148 23.2279 5.04783 23.1107 5.00051C22.9936 4.95025 22.8932 4.88225 22.8095 4.79652C22.7258 4.71076 22.6589 4.60729 22.6087 4.48609C22.5613 4.36487 22.532 4.23034 22.5208 4.08253C22.518 4.05888 22.5152 4.02931 22.5125 3.99384C22.5125 3.95538 22.5125 3.91694 22.5125 3.87851C22.5125 3.83714 22.5125 3.79871 22.5125 3.76321C22.5152 3.72478 22.518 3.69227 22.5208 3.66566C22.532 3.52079 22.5613 3.38774 22.6087 3.26652C22.6589 3.14235 22.7258 3.0374 22.8095 2.95167C22.8932 2.86592 22.9936 2.79939 23.1107 2.7521C23.2279 2.70184 23.3618 2.67671 23.5124 2.67671ZM24.1232 4.06034C24.1288 4.01008 24.1316 3.94948 24.1316 3.87851C24.1316 3.80461 24.1288 3.74105 24.1232 3.68783C24.1148 3.59914 24.0967 3.51634 24.0688 3.43948C24.0409 3.36261 24.0019 3.29609 23.9516 3.23991C23.9014 3.18375 23.8401 3.13939 23.7676 3.10688C23.695 3.07435 23.61 3.05808 23.5124 3.05808C23.4147 3.05808 23.3297 3.07435 23.2572 3.10688C23.1846 3.13939 23.1233 3.18375 23.0731 3.23991C23.0229 3.29609 22.9838 3.36261 22.9559 3.43948C22.928 3.51634 22.9099 3.59914 22.9016 3.68783C22.896 3.74105 22.8932 3.80461 22.8932 3.87851C22.8932 3.94948 22.896 4.01008 22.9016 4.06034C22.9099 4.14905 22.928 4.23182 22.9559 4.30868C22.9838 4.38555 23.0229 4.45207 23.0731 4.50826C23.1233 4.56444 23.1846 4.60877 23.2572 4.6413C23.3297 4.67381 23.4147 4.69008 23.5124 4.69008C23.61 4.69008 23.695 4.67381 23.7676 4.6413C23.8401 4.60877 23.9014 4.56444 23.9516 4.50826C24.0019 4.45207 24.0409 4.38555 24.0688 4.30868C24.0967 4.23182 24.1148 4.14905 24.1232 4.06034Z" fill="#F4F4F4"/>
<path d="M25.6694 4.95763C25.6694 4.98856 25.6599 5.01527 25.6407 5.03775C25.6215 5.06023 25.5987 5.07147 25.5724 5.07147H25.4393C25.4129 5.07147 25.3902 5.06023 25.371 5.03775C25.3518 5.01527 25.3422 4.98856 25.3422 4.95763V2.99292C25.3422 2.96201 25.3518 2.93531 25.371 2.91282C25.3902 2.89032 25.4129 2.87908 25.4393 2.87908H25.5724C25.5987 2.87908 25.6215 2.89032 25.6407 2.91282C25.6599 2.93531 25.6694 2.96201 25.6694 2.99292V4.95763ZM25.7054 2.43216C25.7054 2.46309 25.6958 2.4898 25.6766 2.51228C25.6575 2.53476 25.6347 2.546 25.6083 2.546H25.4034C25.377 2.546 25.3542 2.53476 25.335 2.51228C25.3159 2.4898 25.3063 2.46309 25.3063 2.43216V2.19186C25.3063 2.16093 25.3159 2.13425 25.335 2.11174C25.3542 2.08926 25.377 2.07802 25.4034 2.07802H25.6083C25.6347 2.07802 25.6575 2.08926 25.6766 2.11174C25.6958 2.13425 25.7054 2.16093 25.7054 2.19186V2.43216Z" fill="#F4F4F4"/>
<path d="M28.2997 4.94947C28.2997 4.98262 28.2881 5.01124 28.265 5.03534C28.2422 5.05943 28.2148 5.07148 28.1831 5.07148H28.0232C27.9915 5.07148 27.9641 5.05943 27.941 5.03534C27.918 5.01124 27.9066 4.98262 27.9066 4.94947V3.7566C27.9066 3.52467 27.8533 3.35146 27.7469 3.23698C27.6402 3.12252 27.4919 3.06528 27.3018 3.06528C27.1205 3.06528 26.9735 3.12252 26.8612 3.23698C26.7517 3.35146 26.6972 3.52467 26.6972 3.7566V4.94947C26.6972 4.98262 26.6856 5.01124 26.6625 5.03534C26.6394 5.05943 26.6121 5.07148 26.5804 5.07148H26.4207C26.389 5.07148 26.3616 5.05943 26.3386 5.03534C26.3155 5.01124 26.3041 4.98262 26.3041 4.94947V2.84388C26.3041 2.81076 26.3155 2.78214 26.3386 2.75805C26.3616 2.73393 26.389 2.72188 26.4207 2.72188H26.5804C26.6121 2.72188 26.6394 2.73393 26.6625 2.75805C26.6856 2.78214 26.6972 2.81076 26.6972 2.84388V2.98397C26.7517 2.90865 26.8323 2.83936 26.939 2.7761C27.0485 2.70983 27.191 2.67671 27.3667 2.67671C27.502 2.67671 27.6272 2.70081 27.7423 2.74899C27.8576 2.79419 27.9555 2.86046 28.0361 2.9478C28.1197 3.03216 28.1844 3.13759 28.2305 3.26409C28.2766 3.39062 28.2997 3.53219 28.2997 3.68883V4.94947Z" fill="#F4F4F4"/>
</g>
<defs>
<clipPath id="clip0_1_3694">
<rect width="28.7372" height="7.18429" fill="white" transform="translate(0.360962 0.0826721)"/>
</clipPath>
</defs>
</svg>
