<svg width="32" height="8" viewBox="0 0 32 8" fill="none" xmlns="http://www.w3.org/2000/svg">
<g clip-path="url(#clip0_1_3641)">
<path d="M5.97811 0.100998C2.9865 0.100998 0.570068 1.47314 0.570068 3.17539C0.570068 3.89592 1.00888 4.55615 1.75604 5.09009C1.40159 4.68919 1.20056 4.18234 1.18678 3.65478C1.18678 1.89511 3.55873 0.465561 6.4703 0.465561C8.3471 0.45695 9.99859 1.04542 10.9474 1.94392C10.0964 0.858834 8.18701 0.100998 5.97811 0.100998Z" fill="#EDEDED"/>
<path d="M5.41383 4.02328C5.59577 4.03336 5.77628 3.98712 5.92965 3.89117C6.00274 3.84709 6.06238 3.78476 6.10242 3.71061C6.14245 3.6365 6.16142 3.55325 6.15733 3.46953C6.15398 3.12361 6.03113 2.78891 5.80863 2.51948C5.58516 2.22684 5.28714 1.99623 4.94411 1.85052C4.67853 1.74668 4.39453 1.6951 4.10843 1.69874C3.82242 1.68827 3.53735 1.7361 3.27139 1.83919C3.00543 1.94228 2.76444 2.09836 2.56383 2.29744C2.37086 2.48275 2.21848 2.70438 2.11594 2.94885C2.0134 3.19336 1.96284 3.45558 1.96731 3.71971C1.96293 3.98387 2.01645 4.24592 2.12429 4.48831C2.23214 4.73067 2.39182 4.94778 2.59265 5.1251C3.01744 5.50519 3.57844 5.7071 4.15454 5.68726C4.48064 5.68884 4.80513 5.64241 5.11703 5.54953C5.42505 5.47717 5.70335 5.31547 5.91526 5.08575C6.00058 4.99355 6.05049 4.87533 6.05647 4.75125C6.05647 4.4702 5.88931 4.31561 5.55504 4.31561C5.35565 4.35198 5.16194 4.41339 4.97869 4.49831C4.735 4.60835 4.47177 4.67134 4.20354 4.6838C3.9743 4.69091 3.74827 4.63018 3.55514 4.50955C3.46826 4.45462 3.39552 4.38092 3.34255 4.29413C3.28958 4.20738 3.2578 4.10989 3.24968 4.00921L5.41383 4.02328ZM3.53785 2.80619C3.70107 2.67946 3.90576 2.61457 4.1142 2.62349C4.31193 2.62176 4.50391 2.6885 4.65594 2.81181C4.73049 2.86962 4.79181 2.94198 4.83599 3.02428C4.88014 3.10657 4.90618 3.19695 4.91243 3.28966H3.24968C3.28498 3.10065 3.38692 2.92964 3.53785 2.80619Z" fill="#EDEDED"/>
<path d="M6.91837 5.10917C7.1207 5.30432 7.36231 5.45636 7.6279 5.55568C7.89349 5.65503 8.1773 5.69951 8.46138 5.68634C8.78825 5.6962 9.11354 5.63862 9.41605 5.5174C9.77082 5.36256 9.94675 5.1683 9.94675 4.95432C9.94962 4.82688 9.90091 4.70346 9.81119 4.61085C9.76554 4.56339 9.71 4.52601 9.64829 4.50125C9.58661 4.47647 9.52021 4.46488 9.45356 4.46726C9.3245 4.47397 9.19761 4.50253 9.07859 4.55172C8.92033 4.60677 8.75343 4.63441 8.58541 4.63337C8.45412 4.63983 8.32299 4.61794 8.20135 4.56929C8.07971 4.52062 7.97058 4.44638 7.88168 4.35183C7.72757 4.16302 7.6496 3.92569 7.66247 3.6846C7.65277 3.44787 7.72714 3.21512 7.87304 3.02578C7.95358 2.93102 8.05587 2.85613 8.17162 2.80721C8.28741 2.75827 8.41335 2.7367 8.53926 2.74427C8.70857 2.73828 8.87758 2.76211 9.03822 2.81463C9.1613 2.86417 9.29185 2.89366 9.42469 2.90191C9.49366 2.90409 9.56238 2.89277 9.62678 2.86858C9.69117 2.84442 9.74994 2.80787 9.79965 2.76116C9.8479 2.71856 9.88626 2.66637 9.91211 2.60807C9.93799 2.5498 9.95078 2.4868 9.94962 2.42331C9.94962 2.16147 9.77658 1.96721 9.43336 1.8377C9.14408 1.7403 8.83943 1.6936 8.5335 1.69975C8.24493 1.68627 7.95651 1.72913 7.68512 1.82581C7.41373 1.9225 7.16483 2.07107 6.95298 2.26284C6.75602 2.44846 6.60133 2.6725 6.49894 2.92038C6.39659 3.16826 6.34886 3.4344 6.35884 3.70149C6.35036 3.96102 6.39583 4.21956 6.49247 4.46151C6.58915 4.70343 6.73499 4.92376 6.92127 5.10917H6.91837Z" fill="#EDEDED"/>
<path d="M10.5703 5.09867C10.7906 5.29427 11.0526 5.4473 11.3404 5.54845C11.6282 5.64963 11.9357 5.69677 12.2443 5.68705C12.5523 5.69787 12.8595 5.65203 13.1472 5.55237C13.435 5.45267 13.6973 5.30118 13.9184 5.10709C14.1229 4.9213 14.2834 4.69973 14.39 4.45599C14.4966 4.21221 14.5471 3.95139 14.5384 3.68938C14.5481 3.42563 14.4981 3.16282 14.3915 2.91712C14.2848 2.67141 14.1239 2.44798 13.9184 2.2605C13.6981 2.06907 13.4367 1.92057 13.1503 1.82418C12.864 1.72779 12.5588 1.68557 12.2536 1.70013C11.9479 1.68998 11.6431 1.73589 11.3575 1.83508C11.0719 1.93428 10.8115 2.08471 10.592 2.27731C10.3825 2.4625 10.2175 2.6847 10.1071 2.93004C9.99668 3.17536 9.94331 3.43861 9.9503 3.7034C9.94285 3.96274 9.99399 4.22072 10.1006 4.46159C10.2072 4.70246 10.367 4.92112 10.5703 5.10427V5.09867ZM11.5561 3.03937C11.6376 2.94558 11.7416 2.86974 11.8603 2.8176C11.979 2.76542 12.1093 2.73832 12.2412 2.73832C12.3732 2.73832 12.5034 2.76542 12.6221 2.8176C12.7408 2.86974 12.8448 2.94558 12.9263 3.03937C13.0751 3.22359 13.1515 3.44745 13.1434 3.67539C13.1535 3.90402 13.0805 4.12935 12.9357 4.31698C12.8597 4.41872 12.7565 4.50137 12.6356 4.55723C12.5146 4.61308 12.38 4.64032 12.2443 4.63638C12.1115 4.64121 11.9794 4.61578 11.8602 4.56241C11.741 4.50905 11.6386 4.42948 11.5623 4.331C11.4131 4.14489 11.3367 3.91911 11.3453 3.68938C11.3361 3.45957 11.4101 3.23332 11.5561 3.04498V3.03937Z" fill="#EDEDED"/>
<path d="M16.2502 1.41927H16.8296C17.4264 1.41927 17.7248 1.6502 17.7248 2.11206C17.7248 2.58281 17.4351 2.81967 16.8296 2.81967H16.2502V1.41927ZM16.2502 4.8329V3.92399H17.1193C17.6499 3.9582 18.1742 3.79051 18.591 3.45325C18.772 3.28556 18.9141 3.07861 19.0068 2.84761C19.0996 2.61658 19.1406 2.36731 19.1269 2.11798C19.1413 1.86221 19.0963 1.60659 18.9956 1.37197C18.8949 1.13735 18.7414 0.930375 18.5475 0.767931C18.1126 0.438569 17.5786 0.275166 17.0382 0.30607H15.8475C15.5976 0.279449 15.3467 0.345661 15.1406 0.492592C15.0659 0.583997 15.01 0.689808 14.9762 0.803737C14.9423 0.917662 14.9313 1.03738 14.9436 1.15578V4.82993C14.9436 5.40136 15.1609 5.68853 15.5955 5.68853C16.03 5.68853 16.2502 5.39246 16.2502 4.8329Z" fill="#EDEDED"/>
<path d="M20.7131 3.06092C20.7873 2.96856 20.8842 2.89456 20.9955 2.84533C21.1068 2.7961 21.229 2.77307 21.3518 2.77825C21.4748 2.77185 21.5975 2.79431 21.709 2.84363C21.8205 2.89298 21.9173 2.96763 21.9905 3.06092C22.1259 3.24148 22.1944 3.45904 22.1855 3.67998C22.1944 3.90352 22.126 4.12377 21.9905 4.3075C21.9173 4.40079 21.8205 4.47544 21.709 4.52479C21.5975 4.57411 21.4748 4.59657 21.3518 4.59017C21.2276 4.596 21.1038 4.57333 20.991 4.5241C20.8782 4.47487 20.7797 4.40052 20.7041 4.3075C20.5685 4.12398 20.5011 3.90337 20.5122 3.67998C20.5057 3.45715 20.5798 3.23891 20.7221 3.06092H20.7131ZM22.8692 5.65299C23.304 5.65299 23.5199 5.37032 23.5199 4.83043V2.56909C23.5199 2.02353 23.304 1.75217 22.8692 1.75217C22.7404 1.75117 22.6138 1.78361 22.5032 1.84593C22.3927 1.90826 22.3025 1.99806 22.2425 2.10551C22.1074 1.96998 21.9429 1.86347 21.7603 1.79323C21.5776 1.72299 21.381 1.69067 21.1839 1.69847C20.9001 1.6905 20.618 1.74276 20.3584 1.85138C20.0989 1.96 19.8686 2.12219 19.6845 2.32599C19.3222 2.70144 19.124 3.19222 19.1298 3.69975C19.1215 4.19935 19.3107 4.68399 19.6605 5.05938C19.8387 5.261 20.0628 5.42215 20.3161 5.53081C20.5695 5.63944 20.8456 5.6928 21.1239 5.6869C21.33 5.69671 21.5359 5.66384 21.7271 5.5906C21.9183 5.51735 22.0901 5.40549 22.2305 5.26291C22.2788 5.38183 22.3649 5.48373 22.4772 5.55459C22.5894 5.62544 22.7221 5.66181 22.8572 5.65864L22.8692 5.65299Z" fill="#EDEDED"/>
<path d="M26.5018 2.15446L25.7211 3.99456L24.9928 2.25863C24.9436 2.11698 24.8718 1.98412 24.7801 1.86514C24.7228 1.81006 24.6546 1.76726 24.58 1.73939C24.5053 1.71152 24.4257 1.69917 24.346 1.70312C24.1811 1.69803 24.0205 1.75603 23.8974 1.86514C23.8405 1.91687 23.7953 1.97996 23.7646 2.05026C23.734 2.12056 23.7187 2.19648 23.7196 2.27308C23.7211 2.38215 23.7459 2.48967 23.7925 2.58846L25.0802 5.30521L24.5529 6.34099C24.4891 6.46182 24.4533 6.59526 24.448 6.73158C24.4447 6.80735 24.4588 6.88287 24.489 6.95252C24.5193 7.02216 24.565 7.0841 24.6228 7.13372C24.7508 7.23921 24.9141 7.29294 25.0802 7.28418C25.3074 7.28418 25.4938 7.12793 25.6424 6.82125L27.6089 2.64632C27.6707 2.52181 27.7055 2.38577 27.7109 2.24706C27.7109 1.8796 27.5011 1.69733 27.0787 1.69733C26.8369 1.69733 26.6504 1.84778 26.5164 2.15446H26.5018Z" fill="#EDEDED"/>
<path d="M30.9009 4.59269H29.6437L31.3335 2.57568C31.4742 2.43735 31.5652 2.25479 31.5919 2.05734C31.599 1.99206 31.583 1.92635 31.5468 1.87204C31.5106 1.81773 31.4566 1.7784 31.3945 1.76115C31.196 1.71198 30.9918 1.69105 30.7876 1.69895H28.7553C28.2124 1.69895 27.9423 1.87667 27.9423 2.2321C27.9423 2.58752 28.2094 2.77412 28.7466 2.77412H29.8411L28.0991 4.86816C27.984 4.99054 27.9168 5.15178 27.9104 5.3213C27.9104 5.56716 28.134 5.6886 28.5782 5.6886H30.9009C31.4351 5.6886 31.7021 5.50793 31.7021 5.14655C31.7021 4.77634 31.438 4.59269 30.9096 4.59269H30.9009Z" fill="#EDEDED"/>
</g>
<defs>
<clipPath id="clip0_1_3641">
<rect width="31.1319" height="7.18429" fill="white" transform="translate(0.570068 0.100998)"/>
</clipPath>
</defs>
</svg>
