<svg width="29" height="8" viewBox="0 0 29 8" fill="none" xmlns="http://www.w3.org/2000/svg">
<g clip-path="url(#clip0_1_3679)">
<path fill-rule="evenodd" clip-rule="evenodd" d="M8.97654 3.06967H7.61113V4.17277H9.21363V4.67245H7.01843V1.08031H9.21363V1.58471H7.61113V2.57467H8.97654V3.06967Z" fill="#F4F4F4"/>
<path fill-rule="evenodd" clip-rule="evenodd" d="M10.3647 1.47934V2.09475H10.7972V2.51396H10.3647V3.92316C10.3577 3.99779 10.3777 4.07245 10.4209 4.13276C10.4756 4.18174 10.548 4.20446 10.6199 4.1952C10.684 4.19633 10.7479 4.18886 10.8102 4.17289V4.61885C10.6934 4.65314 10.5726 4.67115 10.4512 4.67236C10.0273 4.67236 9.81542 4.43155 9.81542 3.94993V2.51396H9.41321V2.09475H9.81542V1.47934H10.3647Z" fill="#F4F4F4"/>
<path fill-rule="evenodd" clip-rule="evenodd" d="M11.8186 2.30078C11.997 2.07393 12.2679 1.94302 12.5534 1.94574C13.1162 1.94574 13.3999 2.26765 13.4046 2.9209V4.67237H12.8139V2.95876C12.8291 2.81718 12.7871 2.67537 12.6976 2.56586C12.6 2.48382 12.4751 2.44312 12.3488 2.45226C12.1252 2.44374 11.9175 2.56983 11.8186 2.77415V4.66763H11.2094V0.880661H11.8L11.8186 2.30078Z" fill="#F4F4F4"/>
<path d="M15.005 4.67067C14.6796 4.68847 14.3624 4.55618 14.132 4.3065C13.9093 4.05219 13.7912 3.71093 13.8046 3.36064V3.29916C13.8006 3.05219 13.8499 2.80764 13.9487 2.58502C14.0387 2.38948 14.1779 2.22555 14.3503 2.11208C14.5213 1.9703 14.7287 1.88933 14.9439 1.88033C15.238 1.86084 15.5242 1.98799 15.7209 2.22558C15.9195 2.50843 16.0171 2.85941 15.9959 3.21402V3.45521H14.3808C14.3885 3.65129 14.4614 3.83775 14.586 3.98017C14.7014 4.10597 14.8588 4.17589 15.0225 4.1741C15.2713 4.18962 15.5107 4.06884 15.6598 3.85248L15.9567 4.16464C15.8585 4.32458 15.7229 4.45347 15.5638 4.53825C15.3888 4.62646 15.198 4.67167 15.005 4.67067ZM14.9396 2.37692C14.7999 2.37074 14.6651 2.43332 14.5729 2.54717C14.4707 2.68218 14.407 2.84652 14.3896 3.02012H15.4503V2.97756C15.4531 2.80601 15.4006 2.63875 15.3019 2.50462C15.2025 2.40974 15.0714 2.36352 14.9396 2.37692Z" fill="#F4F4F4"/>
<path fill-rule="evenodd" clip-rule="evenodd" d="M17.7902 2.49691C17.7088 2.48942 17.627 2.48942 17.5456 2.49691C17.3134 2.47167 17.0915 2.60114 16.9953 2.81796V4.67226H16.3979V1.94111H16.9812V2.24296C17.0991 2.01635 17.3315 1.87584 17.5833 1.87882C17.6553 1.87589 17.7272 1.88727 17.7949 1.91235L17.7902 2.49691Z" fill="#F4F4F4"/>
<path d="M19.1958 4.67046C18.8702 4.68949 18.5526 4.557 18.3228 4.30634C18.1001 4.05202 17.9819 3.71079 17.9954 3.36052V3.29905C17.9914 3.05212 18.0407 2.80757 18.1395 2.58496C18.3046 2.15167 18.6977 1.87209 19.1304 1.88035C19.4257 1.86076 19.7132 1.9878 19.9117 2.22555C20.1103 2.5084 20.2079 2.85933 20.1867 3.21392V3.45511H18.5716C18.5787 3.65923 18.6585 3.85246 18.7943 3.99423C18.9091 4.12091 19.0669 4.19101 19.2308 4.18812C19.4761 4.19484 19.7084 4.06898 19.8506 3.85235L20.1518 4.16446C20.052 4.32457 19.915 4.4534 19.7546 4.53805C19.58 4.62748 19.3889 4.67276 19.1958 4.67046ZM19.1304 2.37688C18.9896 2.37195 18.854 2.43419 18.7593 2.54712C18.6607 2.68398 18.5988 2.84759 18.5803 3.02003H19.6367V2.97747C19.6418 2.80555 19.5891 2.63749 19.4883 2.50457C19.3906 2.40995 19.2609 2.36369 19.1304 2.37688Z" fill="#F4F4F4"/>
<path fill-rule="evenodd" clip-rule="evenodd" d="M22.2124 4.37401C22.0225 4.57681 21.7468 4.68588 21.463 4.67057C21.2192 4.68624 20.9807 4.59737 20.8118 4.42795C20.6506 4.22847 20.5721 3.97872 20.5917 3.72701V2.07802H21.1866V3.71802C21.1866 4.04153 21.3271 4.20327 21.6035 4.20327C21.8438 4.22993 22.0765 4.11211 22.189 3.90673V2.07802H22.7839V4.62113H22.2312L22.2124 4.37401Z" fill="#F4F4F4"/>
<path fill-rule="evenodd" clip-rule="evenodd" d="M23.9155 1.94425V2.22763C24.0996 1.989 24.3796 1.86026 24.6677 1.88182C24.9576 1.85216 25.2348 2.01609 25.366 2.29487C25.5404 2.02515 25.8306 1.8694 26.1363 1.88182C26.3684 1.86187 26.5973 1.95126 26.7631 2.12675C26.9112 2.33774 26.9857 2.59777 26.9736 2.86159V4.64827H26.4004V2.89522C26.4127 2.75926 26.3759 2.62346 26.2973 2.51578C26.098 2.36265 25.8299 2.36265 25.6303 2.51578C25.5481 2.59349 25.489 2.69535 25.4601 2.80876V4.67226H24.8915V2.876C24.9044 2.7449 24.8613 2.61457 24.7744 2.52134C24.6875 2.42813 24.566 2.38195 24.4438 2.39571C24.2407 2.37813 24.0485 2.49651 23.9603 2.6935V4.66265H23.3827V1.94425H23.9155Z" fill="#F4F4F4"/>
<path fill-rule="evenodd" clip-rule="evenodd" d="M3.26772 0.0825806L3.22681 0.223328V4.42759L3.26772 4.47298L5.02288 3.31976L3.26772 0.0825806Z" fill="#F4F4F4"/>
<path fill-rule="evenodd" clip-rule="evenodd" d="M3.22672 0.0825806L1.23108 3.31976L3.22672 4.47298V2.42987V0.0825806Z" fill="#F4F4F4"/>
<path fill-rule="evenodd" clip-rule="evenodd" d="M3.25152 4.76209L3.22681 4.78776V6.20052L3.25152 6.26903L5.02288 3.6747L3.25152 4.76209Z" fill="#F4F4F4"/>
<path fill-rule="evenodd" clip-rule="evenodd" d="M3.22672 6.26903V4.76209L1.23108 3.6747L3.22672 6.26903Z" fill="#F4F4F4"/>
<path fill-rule="evenodd" clip-rule="evenodd" d="M3.22681 4.47288L5.02288 3.23381L3.22681 2.27768V4.47288Z" fill="#F4F4F4"/>
<path fill-rule="evenodd" clip-rule="evenodd" d="M1.23108 3.23381L3.22672 4.47288V2.27768L1.23108 3.23381Z" fill="#F4F4F4"/>
</g>
<defs>
<clipPath id="clip0_1_3679">
<rect width="27.3402" height="7.18429" fill="white" transform="translate(0.832031 0.0826721)"/>
</clipPath>
</defs>
</svg>
