<svg width="24" height="8" viewBox="0 0 24 8" fill="none" xmlns="http://www.w3.org/2000/svg">
<g clip-path="url(#clip0_1_3650)">
<path fill-rule="evenodd" clip-rule="evenodd" d="M0.39807 1.81106L0.398071 1.81106L0.398072 1.81106L0.398073 1.81106L0.398074 1.81106L0.398076 1.81106L0.39808 1.81106C0.463936 1.78549 0.53008 1.7598 0.596655 1.73757C0.663828 1.70591 0.663828 1.63862 0.663828 1.60696V1.60696C0.663828 1.40905 0.663828 1.21115 0.695439 1.00929C0.794223 0.47892 1.15775 0.182069 1.82158 0.114782C2.11793 0.0831181 2.44984 0.146446 2.7462 0.213733C2.75748 0.219052 2.76865 0.223477 2.77913 0.227628L2.77913 0.227629L2.77913 0.22763L2.77914 0.227631L2.77914 0.227632C2.83104 0.248191 2.86597 0.262023 2.81337 0.344347C2.77308 0.42268 2.74559 0.502435 2.71554 0.589591C2.69549 0.647762 2.6743 0.70923 2.64741 0.775772C2.6158 0.874722 2.58024 0.874722 2.48145 0.843058C2.38267 0.811394 2.24832 0.775772 2.11793 0.775772C1.7544 0.775772 1.62006 0.874722 1.52127 1.23886C1.42249 1.67028 1.4541 1.70195 1.8848 1.70195H1.95197C2.2318 1.70195 2.37207 1.70195 2.43455 1.77166C2.49734 1.84174 2.48153 1.98225 2.44984 2.26399V2.26399C2.44984 2.36294 2.41823 2.36294 2.35106 2.36294H1.69118C1.56079 2.36294 1.49361 2.3946 1.49361 2.56084V5.44624C1.49361 5.57685 1.462 5.64414 1.32766 5.61247H0.798175C0.699391 5.58081 0.66778 5.51352 0.66778 5.41457V2.49751C0.66778 2.3669 0.636169 2.29961 0.501823 2.33127H0.00395136C0 2.33127 0 1.93547 0 1.93547C0.132294 1.91427 0.264589 1.8629 0.39807 1.81106ZM12.6089 3.53445C12.6181 3.5634 12.6192 3.59539 12.6203 3.6245C12.6228 3.69486 12.6246 3.74829 12.7393 3.70069C13.17 3.60173 13.5019 3.33655 13.6639 2.93679C13.731 2.77055 13.6955 2.60431 13.5651 2.50536C13.4842 2.42433 13.3794 2.45478 13.2726 2.48586C13.2489 2.49273 13.2252 2.49963 13.2016 2.50536C13.1028 2.53703 13.004 2.60431 12.9368 2.70326C12.7393 2.97241 12.6405 3.26926 12.6089 3.53445ZM14.9161 4.93162C14.9961 4.87583 15.0762 4.81996 15.1574 4.76544V7.2471H15.9832C15.9832 7.07497 15.9854 6.9009 15.9876 6.72485V6.72483V6.72481V6.72479V6.72477V6.72475V6.72473V6.7247V6.72468V6.72465V6.72463C15.9943 6.18825 16.0012 5.63337 15.9477 5.05831L16.0465 5.15726C16.576 5.81825 18.034 5.88554 18.4963 4.72584C18.7611 3.99756 18.7611 3.23366 18.4963 2.50539C18.034 1.38131 16.6115 1.41297 16.082 2.0423C16.0726 2.05179 16.0631 2.06447 16.0527 2.07844C16.0283 2.11109 15.9987 2.15074 15.9516 2.17291C15.9464 2.14521 15.9421 2.11662 15.9381 2.08776L15.9266 2.00096C15.9108 1.88574 15.8897 1.77579 15.8212 1.70982C15.7598 1.65064 15.6531 1.66225 15.5418 1.67437C15.467 1.68251 15.3901 1.69089 15.3234 1.67816C15.189 1.67816 15.1574 1.71378 15.1574 1.8444V3.73637C15.0523 3.83855 14.9496 3.92135 14.8475 4.00372C14.8191 4.02663 14.7907 4.04949 14.7623 4.07274C14.3 4.40125 13.8338 4.66644 13.2727 4.73373C13.1067 4.76539 12.9408 4.73373 12.842 4.56749C12.676 4.40125 12.7116 4.36959 12.9092 4.3023C13.569 4.06878 14.0985 3.66902 14.3633 3.00803C14.5924 2.41037 14.2289 1.78104 13.6006 1.68209C13.0712 1.58314 12.6405 1.74938 12.3086 2.14518C11.7791 2.77451 11.5815 3.50278 11.6487 4.29835C11.7158 5.02662 12.2137 5.52533 12.9408 5.62428C13.2846 5.68793 13.5684 5.60284 13.879 5.50971L13.9326 5.49367C14.2998 5.36163 14.6072 5.14718 14.9161 4.93165L14.9161 4.93162ZM22.9653 5.54514H23.6607H23.6686V2.99618C23.6686 2.97874 23.6663 2.96158 23.6639 2.94454C23.6571 2.89581 23.6505 2.84813 23.7002 2.79828V2.69932C23.6518 2.69932 23.6591 2.65974 23.6651 2.62701C23.6669 2.61707 23.6686 2.60775 23.6686 2.60037C23.6015 2.16895 23.3723 1.83648 22.9416 1.70586C22.6097 1.57129 22.2461 1.57129 21.9142 1.63857C21.5823 1.73753 21.286 1.90376 21.0528 2.20061C21.0289 2.12882 21.0136 2.05753 20.9992 1.99101C20.9732 1.8705 20.9505 1.76566 20.8869 1.7019C20.8133 1.63105 20.6749 1.64543 20.5413 1.65931C20.4884 1.66481 20.4361 1.67024 20.389 1.67024C20.2902 1.67024 20.2586 1.7019 20.2586 1.80085V5.41848C20.2586 5.51744 20.2902 5.5491 20.389 5.5491H20.9185C21.0528 5.5491 21.0844 5.51348 21.0844 5.38286V3.69279C21.0844 3.45926 21.0844 3.26136 21.1161 3.06346C21.2188 2.53309 21.6139 2.2679 22.1434 2.29956C22.5385 2.33123 22.7361 2.53309 22.8033 2.92889C22.8349 3.02784 22.8349 3.12679 22.8349 3.22574V5.41453C22.8349 5.51348 22.8665 5.54514 22.9653 5.54514ZM16.8802 2.31144C16.5167 2.34311 16.2519 2.47768 16.1176 2.87348C16.0188 3.10305 16.0188 3.33657 16.0188 3.63342C16.0188 3.69477 16.0258 3.77183 16.0332 3.85354L16.0332 3.85365L16.0332 3.85369C16.0415 3.9459 16.0504 4.04402 16.0504 4.13213C16.0504 4.21599 16.0731 4.2771 16.1017 4.35402C16.1068 4.36787 16.1122 4.38222 16.1176 4.39732C16.2164 4.72979 16.4495 4.92769 16.8446 4.92769C17.2753 4.95936 17.5045 4.82874 17.706 4.46461C17.8364 4.19942 17.872 3.90257 17.872 3.63738C17.872 3.34053 17.8404 3.00805 17.706 2.74287C17.5401 2.44602 17.2437 2.27978 16.8802 2.31144ZM10.7872 5.55693H11.6486C11.6241 5.53238 11.6043 5.50835 11.5874 5.48773L11.5873 5.48769L11.5873 5.48766L11.5873 5.48763L11.5873 5.48762C11.5578 5.4518 11.5369 5.42632 11.5143 5.42632L10.3249 3.73624C10.2578 3.63333 10.2578 3.60167 10.3249 3.50272C10.5066 3.23761 10.6972 2.96458 10.8878 2.69156L10.888 2.69132L10.8882 2.69109C11.0788 2.41807 11.2694 2.14504 11.4511 1.87993C11.4866 1.84431 11.5499 1.78098 11.5182 1.71369H10.7556C10.6529 1.71369 10.5897 1.74536 10.5225 1.84431C10.3254 2.18222 10.0832 2.54277 9.85306 2.88529C9.81095 2.94798 9.76923 3.01006 9.72828 3.07129C9.69667 3.00797 9.66111 2.97234 9.62949 2.94068C9.47988 2.67971 9.31511 2.43392 9.15388 2.19339L9.15387 2.19339C9.06813 2.06548 8.98338 1.93906 8.90244 1.81264C8.89205 1.80223 8.88507 1.78797 8.878 1.77351C8.86357 1.744 8.84875 1.71369 8.80366 1.71369H7.87904C8.30974 2.3074 8.70883 2.87339 9.10396 3.43543C9.17114 3.53438 9.20275 3.60167 9.10396 3.73228C8.91348 3.99428 8.73936 4.25833 8.55806 4.53327C8.48738 4.64046 8.41561 4.7493 8.34135 4.86032C8.28391 4.94115 8.22646 5.01772 8.16901 5.09429C8.0605 5.23891 7.95199 5.38354 7.84348 5.55693C7.93437 5.55693 8.02106 5.5532 8.10516 5.54958C8.26604 5.54265 8.41743 5.53614 8.57053 5.55693C8.73649 5.55693 8.83527 5.48964 8.93406 5.35903C9.03429 5.20767 9.13906 5.05688 9.24493 4.90451L9.24495 4.90447L9.24504 4.90435L9.24505 4.90433C9.41876 4.65432 9.59542 4.40006 9.75989 4.13204C9.85815 4.28356 9.95259 4.43169 10.0456 4.57754C10.2368 4.87745 10.4219 5.16771 10.6213 5.45798C10.629 5.46488 10.6366 5.47347 10.6447 5.48269L10.6447 5.48271L10.6447 5.48273L10.6448 5.48274C10.6739 5.51582 10.71 5.55693 10.7872 5.55693ZM6.18774 1.64654C6.78439 1.64654 7.2467 1.88006 7.57861 2.37481C7.77618 2.70728 7.81174 3.0358 7.81174 3.4039C7.81174 3.8214 7.81174 3.83487 7.4214 3.83531L5.3619 3.83532C5.23151 3.83532 5.19594 3.86699 5.23151 4.00156C5.3619 4.76546 5.82816 5.09397 6.62238 4.99502C6.91874 4.96336 7.21904 4.89607 7.48378 4.7615C7.51144 4.72983 7.547 4.69421 7.61022 4.69421V5.29187C7.61022 5.35916 7.57861 5.39082 7.51144 5.39082C6.816 5.65601 6.08895 5.7233 5.3619 5.45811C4.80081 5.22459 4.46889 4.7615 4.37011 4.16384C4.27133 3.53451 4.30294 2.93685 4.66646 2.37481C4.99838 1.81277 5.55947 1.61091 6.18774 1.64654ZM5.19594 3.10705C5.19594 3.206 5.19594 3.23766 5.29473 3.23766C5.55947 3.206 5.82421 3.206 6.08895 3.206H6.85156C6.85723 3.206 6.86405 3.20701 6.87141 3.20811C6.90511 3.21315 6.95035 3.21991 6.95035 3.13871C6.98196 2.77457 6.71722 2.37481 6.35369 2.31148C5.7926 2.14525 5.26312 2.50938 5.19594 3.10705ZM19.9228 5.39076V3.60173V1.80875C19.9228 1.7098 19.9228 1.67814 19.7924 1.67814H19.2313C19.1325 1.67814 19.1009 1.67814 19.1009 1.77709V5.42242C19.1009 5.52137 19.1641 5.52137 19.2313 5.52137H19.7924C19.8912 5.52137 19.9228 5.48971 19.9228 5.39076ZM4.03827 2.83776V5.39068C4.03827 5.5213 4.00666 5.55692 3.87231 5.55692H3.37444C3.20848 5.55692 3.17687 5.52525 3.17687 5.39068V0.918118V0.288793C3.17687 0.158179 3.20848 0.122556 3.34283 0.122556H3.87231C4.00271 0.122556 4.03827 0.154221 4.03827 0.288793C4.01723 0.860344 4.0242 1.41963 4.03121 1.98297V1.98299V1.98302C4.03473 2.26621 4.03827 2.55044 4.03827 2.83776ZM19.0258 0.684679C19.0614 0.949867 19.2273 1.1161 19.5237 1.1161C19.824 1.1161 19.986 0.949867 19.9504 0.684679C19.9504 0.387828 19.7845 0.221591 19.4881 0.221591C19.1918 0.221591 19.0258 0.387828 19.0258 0.684679Z" fill="#F4F4F4"/>
</g>
<defs>
<clipPath id="clip0_1_3650">
<rect width="23.9476" height="7.18429" fill="white" transform="translate(0 0.106384)"/>
</clipPath>
</defs>
</svg>
