<svg width="16" height="8" viewBox="0 0 16 8" fill="none" xmlns="http://www.w3.org/2000/svg">
<g clip-path="url(#clip0_1_3661)">
<path fill-rule="evenodd" clip-rule="evenodd" d="M0.450806 0.70953C0.484755 0.64056 0.517632 0.571232 0.551938 0.502622C0.740266 0.125447 1.19625 -0.0074626 1.54718 0.212736C1.87917 0.42108 1.97208 0.897758 1.74408 1.22428C1.45105 1.64492 0.787437 1.59032 0.551938 1.1255C0.517274 1.05725 0.484755 0.98828 0.451163 0.919311V0.70953H0.450806Z" fill="#F4F4F4"/>
<path fill-rule="evenodd" clip-rule="evenodd" d="M10.0519 4.53131C10.0519 4.19113 10.0552 3.85096 10.0498 3.51114C10.0504 3.4157 10.0344 3.32088 10.0026 3.23095C9.97808 3.15995 9.93149 3.09875 9.86973 3.05639C9.80796 3.01403 9.73428 2.99274 9.65956 2.99567C9.4966 2.99567 9.37689 3.08044 9.31649 3.23095C9.2854 3.30962 9.26861 3.39943 9.26825 3.48456C9.26468 4.17317 9.26503 4.86215 9.26789 5.55112C9.26789 5.61937 9.28219 5.69014 9.30363 5.7548C9.36009 5.92399 9.48731 6.02133 9.64633 6.02744C9.81286 6.03355 9.95938 5.93261 10.0158 5.75551C10.0419 5.67433 10.0494 5.58489 10.0505 5.49903C10.0541 5.17646 10.0519 4.85389 10.0519 4.53131ZM9.24609 2.16193C9.44872 2.07213 9.62132 1.97155 9.80679 1.9191C10.241 1.79553 10.658 1.96221 10.8646 2.36668C10.9761 2.5858 11.069 2.84157 11.0747 3.08332C11.0997 4.07762 11.0943 5.07337 11.0826 6.06839C11.0804 6.2444 11.0111 6.42581 10.9439 6.5932C10.6988 7.20818 9.84788 7.21644 9.47302 6.92548C9.41226 6.87806 9.35509 6.8249 9.29791 6.7764C9.27718 6.78646 9.25217 6.79077 9.25002 6.80083C9.1907 7.06772 9.19106 7.06844 8.91983 7.06988C8.75473 7.0706 8.58963 7.07204 8.42488 7.06916C8.19081 7.06557 8.19081 7.06413 8.18617 6.84034V0.529302C8.18653 0.297249 8.18903 0.295453 8.41059 0.292579C8.61893 0.290065 8.82763 0.298327 9.03597 0.290424C9.18534 0.285036 9.23251 0.351131 9.23144 0.493021C9.22715 0.955689 9.2293 1.41836 9.23108 1.88103C9.23144 1.97334 9.24073 2.06566 9.24609 2.16193ZM5.75935 3.56897C5.75828 3.97525 5.75828 3.97525 6.17389 3.97489C6.25108 3.97489 6.33041 3.98279 6.40581 3.96914C6.44512 3.96196 6.5073 3.91526 6.5073 3.88652C6.5073 3.67099 6.51909 3.45043 6.47764 3.24173C6.43297 3.01758 6.27323 2.92562 6.08312 2.95436C5.89729 2.98238 5.77436 3.12499 5.76042 3.33513C5.75506 3.41272 5.75935 3.49103 5.75935 3.56897ZM4.67906 4.63584C4.67906 4.32117 4.67798 4.00686 4.67906 3.69219C4.67995 3.33346 4.75542 2.97888 4.90062 2.65118C5.11718 2.15726 5.47346 1.86953 6.03452 1.90222C6.23249 1.91371 6.4394 1.90761 6.62594 1.96329C7.22809 2.14397 7.57294 2.62819 7.58295 3.27837C7.58974 3.73278 7.58581 4.18718 7.58366 4.64123C7.58259 4.85891 7.57937 4.8643 7.36818 4.8661C6.91612 4.86969 6.46406 4.8661 6.01236 4.86789C5.72111 4.86933 5.71718 4.87149 5.71968 5.15634C5.72147 5.3302 5.71182 5.51053 5.75506 5.67541C5.78472 5.78784 5.87621 5.91321 5.97555 5.97248C6.22928 6.12335 6.47335 5.99942 6.50802 5.70486C6.52445 5.56118 6.57949 5.53244 6.70206 5.53496C6.92791 5.53999 7.15376 5.53639 7.37961 5.53711C7.4618 5.53711 7.52613 5.5443 7.544 5.65529C7.62726 6.18046 7.17806 6.92152 6.66204 7.05084C6.29753 7.14208 5.91873 7.15142 5.5603 7.0142C5.00568 6.80227 4.73409 6.36295 4.69228 5.7882C4.66476 5.406 4.68728 5.01984 4.68728 4.63584H4.67906ZM2.33657 1.40183C2.48309 1.06058 2.51847 0.730103 2.40733 0.391004C2.36338 0.256658 2.44092 0.23726 2.54241 0.253066C3.31037 0.37448 3.94862 0.798353 4.14159 1.71507C4.17733 1.88498 4.19805 2.06063 4.19877 2.23413C4.20306 3.22126 4.20591 4.20874 4.19412 5.19622C4.18912 5.60249 4.07333 5.98936 3.87143 6.34355C3.56874 6.87447 3.10454 7.10365 2.50132 7.07024C2.3816 7.06377 2.32907 7.01923 2.33086 6.89674C2.33443 6.59967 2.33443 6.3026 2.33086 6.00553C2.32907 5.89417 2.37946 5.86543 2.48345 5.84496C2.84974 5.77312 2.98697 5.62081 3.0202 5.24866C3.04057 5.02308 3.04271 4.79533 3.04379 4.56831C3.04629 3.8779 3.0445 3.18749 3.0445 2.49708C3.0445 2.44463 3.04522 2.39219 3.0445 2.33974C3.03521 1.77434 2.88583 1.57102 2.33693 1.40219M13.4551 3.27011C13.4551 2.51935 13.4547 1.76859 13.4554 1.01783C13.4554 0.750219 13.4568 0.7495 13.7313 0.747345C13.9135 0.746267 14.0962 0.745549 14.2784 0.747704C14.5432 0.751296 14.5493 0.757044 14.5511 1.03364C14.5532 1.33897 14.5571 1.64466 14.55 1.95C14.5464 2.10805 14.6057 2.17127 14.7633 2.16445C14.9456 2.15654 15.1278 2.16552 15.3101 2.16445C15.4187 2.16409 15.4659 2.2115 15.4627 2.32322C15.4577 2.50642 15.4577 2.68998 15.4627 2.87318C15.4659 2.98597 15.4162 3.03123 15.309 3.03087C15.1178 3.03015 14.9267 3.0359 14.7358 3.03195C14.6018 3.02908 14.5507 3.08835 14.5514 3.22018C14.555 3.90987 14.5482 4.59956 14.5579 5.28925C14.5622 5.60249 14.6776 5.84927 15.026 5.92147C15.0671 5.92973 15.1178 6.01846 15.1196 6.07198C15.1293 6.34211 15.1214 6.61296 15.125 6.88381C15.1268 7.01815 15.0635 7.06126 14.9356 7.07096C14.2416 7.1252 13.6523 6.6751 13.5119 5.96242C13.4762 5.77414 13.458 5.58294 13.4576 5.39127C13.4515 4.68434 13.4551 3.97704 13.4551 3.27011Z" fill="#F4F4F4"/>
<path fill-rule="evenodd" clip-rule="evenodd" d="M1.7372 4.61699C1.7372 5.34152 1.73791 6.06642 1.7372 6.79095C1.7372 7.05462 1.73577 7.05605 1.48562 7.05893C1.28585 7.06108 1.08609 7.06072 0.886328 7.05893C0.6276 7.05677 0.625456 7.05533 0.625456 6.80029C0.624742 5.97086 0.625456 5.14144 0.625456 4.31201C0.625456 3.65716 0.629745 3.00196 0.621883 2.34711C0.620096 2.19013 0.66012 2.12799 0.825219 2.13697C1.05893 2.1499 1.29407 2.13805 1.5285 2.14056C1.73398 2.14307 1.73648 2.14559 1.73684 2.36399C1.73827 3.11475 1.73755 3.86587 1.73755 4.61699" fill="#F4F4F4"/>
<path fill-rule="evenodd" clip-rule="evenodd" d="M11.7219 4.5895C11.7216 3.85634 11.7208 3.12319 11.7219 2.39003C11.7223 2.1375 11.7248 2.13678 11.9824 2.1357C12.2083 2.13463 12.4341 2.1393 12.6596 2.13463C12.7722 2.13211 12.819 2.17845 12.8129 2.28873C12.8104 2.33184 12.8133 2.37566 12.8133 2.41948V6.76562C12.8133 7.06736 12.8119 7.06808 12.5131 7.06988C12.3223 7.07059 12.1314 7.07311 11.9403 7.0688C11.7312 7.06377 11.7233 7.05802 11.7226 6.84106C11.7201 6.0903 11.7216 5.3399 11.7216 4.5895M12.968 0.804456C12.9712 1.20857 12.6893 1.50205 12.289 1.51031C11.8734 1.51893 11.575 1.23013 11.5733 0.817029C11.5711 0.418301 11.8913 0.0896192 12.2765 0.0957258C12.6632 0.102192 12.9652 0.411475 12.968 0.804097" fill="#F4F4F4"/>
</g>
<defs>
<clipPath id="clip0_1_3661">
<rect width="15.3664" height="7.18429" fill="white" transform="translate(0.13623 0.0826721)"/>
</clipPath>
</defs>
</svg>
