<svg width="23" height="8" viewBox="0 0 23 8" fill="none" xmlns="http://www.w3.org/2000/svg">
<g clip-path="url(#clip0_1_3667)">
<path d="M3.79538 0.698914C2.09095 0.698914 0.708984 2.07683 0.708984 3.77624C0.708984 5.47567 2.09095 6.8536 3.79538 6.8536C5.49979 6.8536 6.88177 5.47567 6.88177 3.77624C6.87822 2.07683 5.49979 0.698914 3.79538 0.698914ZM3.84144 3.87517L3.52252 4.9563H5.23759C5.29782 4.9563 5.33679 5.01284 5.32262 5.06938L5.17379 5.58168C5.15962 5.63113 5.11356 5.66647 5.0604 5.66647H2.43821L2.88116 4.17196L2.39215 4.32389L2.49845 3.97058L2.991 3.81865L3.61466 1.71998C3.62883 1.67052 3.67491 1.63519 3.72805 1.63519H4.39068C4.45093 1.63519 4.4899 1.69172 4.47573 1.74825L3.94775 3.52186L4.43674 3.36995L4.33045 3.72679L3.84144 3.87517Z" fill="#F4F4F4"/>
<path d="M8.66435 1.63158H8.473C8.43756 1.63158 8.41276 1.65278 8.40567 1.68811L7.90958 5.60631C7.90602 5.64519 7.91666 5.66285 7.95564 5.66285H8.147C8.18597 5.66285 8.20723 5.64519 8.21431 5.60631L8.71396 1.68811C8.72458 1.64924 8.70332 1.63158 8.66435 1.63158Z" fill="#F4F4F4"/>
<path d="M9.66699 2.76205H9.47563C9.44021 2.76205 9.4154 2.77974 9.40832 2.81859L9.05397 5.60975C9.05042 5.6486 9.07168 5.66628 9.10712 5.66628H9.29846C9.3339 5.66628 9.35871 5.6486 9.36579 5.60975L9.71661 2.82212C9.72014 2.78327 9.70597 2.76205 9.66699 2.76205Z" fill="#F4F4F4"/>
<path d="M18.051 2.71622C17.7853 2.71622 17.5549 2.79041 17.36 2.94234C17.1652 3.09427 17.0376 3.29212 16.9738 3.53944C16.9206 3.74082 16.8746 4.02348 16.8533 4.21426C16.825 4.47218 16.8002 4.68417 16.8002 4.88909C16.8037 5.13994 16.8852 5.33778 17.0376 5.48971C17.1935 5.63811 17.4061 5.71584 17.6754 5.71584C17.9376 5.71584 18.168 5.64164 18.3629 5.48971C18.5577 5.34132 18.6853 5.13994 18.7491 4.88909C18.7916 4.72303 18.8341 4.50044 18.8696 4.21426C18.905 3.91749 18.9227 3.69136 18.9227 3.5359C18.9227 3.28859 18.8448 3.09074 18.6889 2.94234C18.5294 2.79041 18.3168 2.71622 18.051 2.71622ZM18.5896 3.94222C18.5719 4.08353 18.5613 4.17541 18.5577 4.21426C18.5223 4.50397 18.4904 4.7089 18.4621 4.83255C18.4195 5.01627 18.3274 5.16466 18.1892 5.27774C18.051 5.39079 17.888 5.44379 17.7073 5.44379C17.523 5.44379 17.3778 5.38726 17.2679 5.27774C17.1581 5.1682 17.1049 5.02335 17.1049 4.84315C17.1049 4.74775 17.1155 4.62764 17.1333 4.48631C17.151 4.345 17.1616 4.25312 17.1652 4.21426C17.2006 3.93868 17.2325 3.73375 17.2608 3.59597C17.3033 3.41226 17.3955 3.26386 17.5337 3.15079C17.6719 3.03773 17.8349 2.98473 18.0156 2.98473C18.1998 2.98473 18.3451 3.04127 18.455 3.14725C18.5648 3.25679 18.618 3.40164 18.618 3.58184C18.618 3.6843 18.6074 3.80088 18.5896 3.94222Z" fill="#F4F4F4"/>
<path d="M20.0142 2.76205H19.8264C19.7909 2.76205 19.7661 2.78327 19.759 2.81859L19.4011 5.60975C19.3976 5.6486 19.4189 5.66628 19.4543 5.66628H19.6456C19.6811 5.66628 19.7059 5.6486 19.713 5.60975L20.0638 2.82212C20.0673 2.78327 20.0531 2.76205 20.0142 2.76205Z" fill="#F4F4F4"/>
<path d="M22.4308 2.92826C22.2997 2.79046 22.1153 2.72333 21.8745 2.72333C21.7186 2.72333 21.5769 2.75161 21.4458 2.81165C21.3147 2.87172 21.2047 2.96005 21.1125 3.08019C21.095 3.09432 21.0878 3.09078 21.0878 3.06957L21.1161 2.82225C21.1197 2.78693 21.1055 2.76574 21.07 2.76574H20.8788C20.8433 2.76574 20.8186 2.78693 20.8114 2.82225L20.4606 5.60988C20.4571 5.64522 20.4677 5.66641 20.5067 5.66641H20.698C20.7335 5.66641 20.7583 5.64522 20.7619 5.60988L21.0169 3.61015C21.0594 3.4229 21.148 3.27097 21.2792 3.16143C21.4103 3.05191 21.5661 2.99539 21.7505 2.99539C21.9205 2.99539 22.0553 3.04838 22.1544 3.15437C22.2536 3.26037 22.3033 3.40168 22.3033 3.58187C22.3033 3.63487 22.2997 3.67728 22.2961 3.70907L22.0517 5.60988C22.0517 5.62756 22.0517 5.63815 22.0586 5.64875C22.0694 5.65935 22.0836 5.66641 22.1047 5.66641H22.2961C22.3317 5.66641 22.3564 5.64875 22.36 5.60988L22.6045 3.66313C22.6114 3.5854 22.615 3.52889 22.615 3.49001C22.6256 3.24978 22.5619 3.06251 22.4308 2.92826Z" fill="#F4F4F4"/>
<path d="M9.79116 1.63505C9.67777 1.57498 9.53248 1.61738 9.47579 1.73397C9.41554 1.84703 9.46162 1.99189 9.57501 2.05195C9.6884 2.11201 9.83013 2.06608 9.89038 1.95302C9.95061 1.83643 9.9081 1.69511 9.79116 1.63505Z" fill="#F4F4F4"/>
<path d="M20.1522 1.63505C20.0388 1.57498 19.8936 1.61738 19.8369 1.73397C19.7766 1.84703 19.8227 1.99189 19.9361 2.05195C20.0495 2.11201 20.1948 2.06608 20.255 1.95302C20.3117 1.83643 20.2656 1.69511 20.1522 1.63505Z" fill="#F4F4F4"/>
<path d="M15.5563 2.71622C15.2905 2.71622 15.0602 2.79395 14.8653 2.94234C14.6704 3.09427 14.5428 3.29212 14.4791 3.53944C14.4259 3.74082 14.3763 4.0588 14.3586 4.21426C14.3338 4.44039 14.3054 4.68417 14.3054 4.88909C14.309 5.13994 14.3905 5.33778 14.5428 5.48971C14.6988 5.63811 14.9114 5.71584 15.1807 5.71584C15.4429 5.71584 15.6732 5.64164 15.8681 5.48971C16.063 5.34132 16.1906 5.13994 16.2544 4.88909C16.2579 4.86789 16.265 4.84668 16.2685 4.82548C16.2721 4.80782 16.2579 4.79369 16.2437 4.79369H16.0063C15.9921 4.79369 15.9744 4.80076 15.9709 4.82195C15.9709 4.82548 15.9673 4.83255 15.9673 4.83255C15.9248 5.01627 15.8327 5.16466 15.6945 5.27774C15.5563 5.39079 15.3933 5.44379 15.2126 5.44379C15.0283 5.44379 14.883 5.38726 14.7732 5.27774C14.6633 5.1682 14.6102 5.02335 14.6102 4.84315C14.6102 4.74775 14.6208 4.62764 14.6385 4.48631C14.6527 4.36619 14.6669 4.25312 14.6704 4.21426C14.7058 3.93868 14.7377 3.73375 14.7661 3.59597C14.8086 3.41226 14.9007 3.26386 15.0389 3.15079C15.1771 3.03773 15.3401 2.98473 15.5208 2.98473C15.7016 2.98473 15.8504 3.03773 15.9602 3.14725C16.0701 3.25679 16.1232 3.40164 16.1232 3.58184V3.58538C16.1232 3.6101 16.1445 3.6313 16.1693 3.6313H16.3926C16.4103 3.6313 16.428 3.61717 16.428 3.59597C16.428 3.57123 16.428 3.55003 16.428 3.52884C16.428 3.28152 16.35 3.08367 16.1941 2.93528C16.0347 2.79041 15.8256 2.71622 15.5563 2.71622Z" fill="#F4F4F4"/>
<path d="M13.6321 2.94234C13.4762 2.79395 13.2636 2.71622 12.9978 2.71622C12.7321 2.71622 12.5017 2.79041 12.3068 2.94234C12.1119 3.09427 11.9844 3.29212 11.9206 3.53944C11.8674 3.74082 11.8426 3.92102 11.8001 4.21426C11.7611 4.50397 11.7469 4.68417 11.7469 4.88909C11.7505 5.13994 11.832 5.33778 11.9844 5.48971C12.1403 5.63811 12.3529 5.71584 12.6222 5.71584C12.8844 5.71584 13.1147 5.64164 13.3096 5.48971C13.5045 5.34132 13.6321 5.13994 13.6959 4.88909C13.6994 4.86789 13.7065 4.84668 13.7101 4.82548C13.7136 4.80782 13.703 4.79369 13.6852 4.79369H13.4478C13.4337 4.79369 13.4159 4.80076 13.4124 4.82195C13.4124 4.82548 13.4089 4.83255 13.4089 4.83255C13.3663 5.01627 13.2742 5.16466 13.136 5.27774C12.9978 5.39079 12.8348 5.44379 12.6541 5.44379C12.4698 5.44379 12.3245 5.38726 12.2147 5.27774C12.1048 5.1682 12.0517 5.02335 12.0517 4.84315C12.0517 4.75835 12.0588 4.65236 12.073 4.53225L13.7951 3.99873C13.8305 3.98814 13.8447 3.97047 13.8518 3.92809C13.8624 3.83976 13.8695 3.68783 13.8695 3.53237C13.866 3.30978 13.788 3.09074 13.6321 2.94234ZM13.5648 3.74435C13.5648 3.76203 13.5541 3.77616 13.5364 3.77969L12.1084 4.22133C12.1084 4.21779 12.1084 4.21779 12.1084 4.21426C12.1438 3.93868 12.1757 3.73375 12.2041 3.59597C12.2466 3.41226 12.3387 3.26386 12.4769 3.15079C12.6151 3.03773 12.7781 2.98473 12.9588 2.98473C13.1431 2.98473 13.2884 3.04127 13.3982 3.14725C13.5719 3.32746 13.5754 3.51118 13.5648 3.74435Z" fill="#F4F4F4"/>
<path d="M11.0916 5.35908C11.127 5.3414 11.166 5.36614 11.1589 5.405L11.1341 5.59578C11.1306 5.62053 11.1128 5.64172 11.0916 5.65232C10.9215 5.71592 10.6841 5.74418 10.4927 5.65938C10.273 5.56046 10.2163 5.34495 10.2482 5.07642L10.4998 3.03075L10.5352 2.73751L10.6203 2.08741C10.6238 2.04855 10.6486 2.03088 10.6876 2.03088H10.8719C10.9144 2.03088 10.925 2.05562 10.9179 2.08741L10.8081 3.01309H11.4069C11.4424 3.01309 11.4565 3.03428 11.4565 3.06962L11.4388 3.20387C11.4353 3.22506 11.4317 3.23568 11.4211 3.24981C11.4105 3.26041 11.3892 3.26394 11.375 3.26394H10.7797L10.5707 4.94217C10.5494 5.12236 10.5246 5.28488 10.6167 5.37321C10.7372 5.47213 10.9711 5.41559 11.0916 5.35908Z" fill="#F4F4F4"/>
</g>
<defs>
<clipPath id="clip0_1_3667">
<rect width="21.952" height="7.18429" fill="white" transform="translate(0.691406 0.0826721)"/>
</clipPath>
</defs>
</svg>
