<svg width="41" height="8" viewBox="0 0 41 8" fill="none" xmlns="http://www.w3.org/2000/svg">
<g clip-path="url(#clip0_1_3527)">
<path d="M4.20874 6.52309H7.31363V0.952209H4.20874V6.52309Z" fill="#F4F4F4"/>
<path d="M4.40604 3.73781C4.40604 2.60761 4.93604 1.60112 5.76135 0.95237C5.15772 0.477911 4.39619 0.19487 3.56841 0.19487C1.60878 0.19487 0.0202637 1.78112 0.0202637 3.73781C0.0202637 5.69449 1.60878 7.28074 3.56841 7.28074C4.39619 7.28074 5.15772 6.9977 5.76135 6.52325C4.93604 5.87449 4.40604 4.86791 4.40604 3.73781Z" fill="#F4F4F4"/>
<path d="M11.3915 5.93317V5.79568H11.3555L11.3141 5.89016L11.2728 5.79568H11.2368V5.93317H11.2621V5.82944L11.301 5.9188H11.3273L11.3661 5.82915V5.93317H11.3915ZM11.1637 5.93317V5.81911H11.2098V5.79588H11.0924V5.81911H11.1385V5.93317H11.1637Z" fill="#F4F4F4"/>
<path d="M11.5022 3.73764C11.5022 5.69432 9.91358 7.28058 7.95395 7.28058C7.12627 7.28058 6.36464 6.99754 5.76111 6.52308C6.58642 5.87433 7.11632 4.86774 7.11632 3.73764C7.11632 2.60744 6.58642 1.60095 5.76111 0.952202C6.36464 0.477743 7.12627 0.194702 7.95395 0.194702C9.91358 0.194702 11.5022 1.78095 11.5022 3.73764Z" fill="#F4F4F4"/>
<path d="M18.5892 3.75307C18.5892 3.33894 18.8607 2.99892 19.3051 2.99892C19.7296 2.99892 20.0159 3.32428 20.0159 3.75307C20.0159 4.18186 19.7296 4.50722 19.3051 4.50722C18.8607 4.50722 18.5892 4.1672 18.5892 3.75307ZM20.4998 3.75307V2.57494H19.9863V2.86084C19.8233 2.64895 19.5765 2.5158 19.2408 2.5158C18.5792 2.5158 18.0609 3.03346 18.0609 3.75307C18.0609 4.47278 18.5792 4.99034 19.2408 4.99034C19.5765 4.99034 19.8233 4.85719 19.9863 4.6453V4.93119H20.4998V3.75307ZM37.8383 3.75307C37.8383 3.33894 38.1098 2.99892 38.5542 2.99892C38.9787 2.99892 39.2652 3.32428 39.2652 3.75307C39.2652 4.18186 38.9787 4.50722 38.5542 4.50722C38.1098 4.50722 37.8383 4.1672 37.8383 3.75307ZM40.3233 4.8193V4.8563H40.3575C40.3653 4.8563 40.3715 4.85482 40.3761 4.85177C40.3808 4.84862 40.3831 4.8439 40.3831 4.8376C40.3831 4.8315 40.3808 4.82697 40.3761 4.82382C40.3715 4.82077 40.3653 4.8193 40.3575 4.8193H40.3233ZM40.3579 4.79331C40.3756 4.79331 40.3894 4.79725 40.3992 4.80522C40.4087 4.8131 40.4136 4.82392 40.4136 4.8376C40.4136 4.84912 40.4097 4.85856 40.402 4.86604C40.3944 4.87342 40.3833 4.87805 40.3692 4.87982L40.4148 4.93218H40.3791L40.3369 4.88012H40.3233V4.93218H40.2935V4.79331H40.3579ZM40.349 4.97981C40.3652 4.97981 40.3802 4.97676 40.3942 4.97076C40.4081 4.96456 40.4203 4.95619 40.4308 4.94576C40.4414 4.93523 40.4497 4.92283 40.4557 4.90876C40.4616 4.89458 40.4646 4.87943 40.4646 4.86329C40.4646 4.84715 40.4616 4.83199 40.4557 4.81782C40.4497 4.80365 40.4414 4.79135 40.4308 4.78082C40.4203 4.77029 40.4081 4.76202 40.3942 4.75611C40.3802 4.75001 40.3652 4.74706 40.349 4.74706C40.3326 4.74706 40.3172 4.75001 40.3029 4.75611C40.2886 4.76202 40.2762 4.77029 40.2656 4.78082C40.2552 4.79135 40.2469 4.80365 40.2409 4.81782C40.235 4.83199 40.2319 4.84715 40.2319 4.86329C40.2319 4.87943 40.235 4.89458 40.2409 4.90876C40.2469 4.92283 40.2552 4.93523 40.2656 4.94576C40.2762 4.95619 40.2886 4.96456 40.3029 4.97076C40.3172 4.97676 40.3326 4.97981 40.349 4.97981ZM40.349 4.7137C40.3701 4.7137 40.3898 4.71763 40.4083 4.72541C40.4268 4.73328 40.4429 4.74401 40.4568 4.75759C40.4705 4.77107 40.4815 4.78692 40.4895 4.80522C40.4974 4.82333 40.5014 4.84272 40.5014 4.86329C40.5014 4.88386 40.4974 4.90315 40.4895 4.92125C40.4815 4.93926 40.4705 4.95501 40.4568 4.96859C40.4429 4.98227 40.4268 4.9929 40.4083 5.00087C40.3898 5.00884 40.3701 5.01278 40.349 5.01278C40.3274 5.01278 40.3073 5.00884 40.2886 5.00087C40.2699 4.9929 40.2537 4.98227 40.24 4.96859C40.2263 4.95501 40.2155 4.93926 40.2075 4.92125C40.1995 4.90315 40.1955 4.88386 40.1955 4.86329C40.1955 4.84272 40.1995 4.82333 40.2075 4.80522C40.2155 4.78692 40.2263 4.77107 40.24 4.75759C40.2537 4.74401 40.2699 4.73328 40.2886 4.72541C40.3073 4.71763 40.3274 4.7137 40.349 4.7137ZM39.7489 3.75307V1.62859H39.2355V2.86084C39.0727 2.64895 38.8257 2.5158 38.49 2.5158C37.8284 2.5158 37.3101 3.03346 37.3101 3.75307C37.3101 4.47278 37.8284 4.99034 38.49 4.99034C38.8257 4.99034 39.0727 4.85719 39.2355 4.6453V4.93119H39.7489V3.75307ZM26.8684 2.97421C27.1993 2.97421 27.4115 3.18128 27.4658 3.546H26.2415C26.2958 3.20588 26.5031 2.97421 26.8684 2.97421ZM26.8783 2.5158C26.1872 2.5158 25.7033 3.0186 25.7033 3.75307C25.7033 4.5024 26.2069 4.99034 26.9128 4.99034C27.2684 4.99034 27.5941 4.90157 27.8806 4.66006L27.6287 4.28047C27.4312 4.43823 27.1795 4.527 26.9425 4.527C26.6117 4.527 26.3106 4.37417 26.2365 3.95019H27.9891C27.994 3.88613 27.9989 3.82216 27.9989 3.75307C27.994 3.0186 27.5399 2.5158 26.8783 2.5158ZM33.0741 3.75307C33.0741 3.33894 33.3457 2.99892 33.7901 2.99892C34.2145 2.99892 34.501 3.32428 34.501 3.75307C34.501 4.18186 34.2145 4.50722 33.7901 4.50722C33.3457 4.50722 33.0741 4.1672 33.0741 3.75307ZM34.9847 3.75307V2.57494H34.4713V2.86084C34.3085 2.64895 34.0617 2.5158 33.7257 2.5158C33.0643 2.5158 32.546 3.03346 32.546 3.75307C32.546 4.47278 33.0643 4.99034 33.7257 4.99034C34.0617 4.99034 34.3085 4.85719 34.4713 4.6453V4.93119H34.9847V3.75307ZM30.1762 3.75307C30.1762 4.46786 30.6748 4.99034 31.4351 4.99034C31.7906 4.99034 32.0275 4.91141 32.2842 4.70927L32.0375 4.29524C31.8449 4.43341 31.6425 4.50722 31.4203 4.50722C31.0106 4.5024 30.7094 4.20656 30.7094 3.75307C30.7094 3.29957 31.0106 3.00384 31.4203 2.99892C31.6425 2.99892 31.8449 3.07282 32.0375 3.2109L32.2842 2.79677C32.0275 2.59463 31.7906 2.5158 31.4351 2.5158C30.6748 2.5158 30.1762 3.03828 30.1762 3.75307ZM36.7917 2.5158C36.4955 2.5158 36.3029 2.65387 36.1696 2.86084V2.57494H35.6611V4.93119H36.1746V3.61007C36.1746 3.22074 36.3424 3.00384 36.6781 3.00384C36.7818 3.00384 36.8905 3.0186 36.999 3.06298L37.1571 2.57996C37.0435 2.53548 36.8954 2.5158 36.7917 2.5158ZM23.0373 2.76233C22.7904 2.59965 22.4499 2.5158 22.0746 2.5158C21.4773 2.5158 21.0922 2.80169 21.0922 3.26995C21.0922 3.65456 21.3785 3.89114 21.9068 3.96505L22.1486 3.9995C22.4301 4.03896 22.5633 4.11287 22.5633 4.24593C22.5633 4.42839 22.3757 4.53192 22.0252 4.53192C21.6698 4.53192 21.413 4.41845 21.2402 4.28549L20.9984 4.68466C21.2798 4.89173 21.6352 4.99034 22.0204 4.99034C22.7016 4.99034 23.0966 4.6699 23.0966 4.22133C23.0966 3.8073 22.7855 3.59039 22.2721 3.51648L22.0302 3.48194C21.808 3.45241 21.6304 3.40803 21.6304 3.25037C21.6304 3.07775 21.7981 2.97421 22.0795 2.97421C22.3808 2.97421 22.672 3.08769 22.8152 3.17636L23.0373 2.76233ZM29.6577 2.5158C29.3615 2.5158 29.169 2.65387 29.0357 2.86084V2.57494H28.5272V4.93119H29.0406V3.61007C29.0406 3.22074 29.2085 3.00384 29.5443 3.00384C29.6479 3.00384 29.7566 3.0186 29.8651 3.06298L30.0231 2.57996C29.9096 2.53548 29.7614 2.5158 29.6577 2.5158ZM25.2787 2.57494H24.4395V1.86025H23.9211V2.57494H23.4422V3.0433H23.9211V4.11789C23.9211 4.66498 24.1333 4.99034 24.7406 4.99034C24.9628 4.99034 25.2194 4.92135 25.3824 4.80788L25.2343 4.36924C25.0812 4.45801 24.9134 4.5024 24.7801 4.5024C24.5233 4.5024 24.4395 4.34454 24.4395 4.10795V3.0433H25.2787V2.57494ZM17.6067 4.93119V3.45241C17.6067 2.89538 17.2512 2.52082 16.6785 2.5158C16.3774 2.51088 16.0664 2.60457 15.8492 2.93485C15.6862 2.67356 15.4295 2.5158 15.0691 2.5158C14.8173 2.5158 14.5704 2.58971 14.3779 2.86576V2.57494H13.8645V4.93119H14.3829V3.62493C14.3829 3.21582 14.61 2.99892 14.9605 2.99892C15.3011 2.99892 15.4739 3.22074 15.4739 3.62001V4.93119H15.9923V3.62493C15.9923 3.21582 16.2293 2.99892 16.5699 2.99892C16.9204 2.99892 17.0883 3.22074 17.0883 3.62001V4.93119H17.6067Z" fill="#F4F4F4"/>
</g>
<defs>
<clipPath id="clip0_1_3527">
<rect width="40.5114" height="7.18429" fill="white" transform="translate(0.00537109 0.193069)"/>
</clipPath>
</defs>
</svg>
