<svg width="38" height="8" viewBox="0 0 38 8" fill="none" xmlns="http://www.w3.org/2000/svg">
<g clip-path="url(#clip0_1_3600)">
<path d="M15.2559 0.100922H15.9587L17.3528 3.33663L18.7124 0.100922H19.4152V5.06843H18.6778V1.96942H18.6548L17.5833 4.5671H17.1224L16.0048 1.96942H15.9933V5.06843H15.2559V0.100922Z" fill="white"/>
<path d="M21.1549 1.52481H20.4636V5.05674H21.1549V1.52481Z" fill="white"/>
<path d="M22.1805 0.100922H24.9342V0.8073H22.9179V2.27704H24.9342V2.93787H22.9179V5.06843H22.1805V0.100922Z" fill="white"/>
<path d="M26.3512 1.52481H25.6599V5.05674H26.3512V1.52481Z" fill="white"/>
<path d="M27.3074 1.52506H27.9987V1.90106H28.0102C28.2407 1.61624 28.5402 1.47951 28.9089 1.47951C29.197 1.47951 29.462 1.58205 29.6924 1.78713C29.9228 1.9922 30.0496 2.29982 30.0611 2.70998V5.05702H29.3698V2.96065C29.3698 2.70998 29.3007 2.52769 29.1739 2.39096C29.0472 2.25423 28.8859 2.19728 28.6785 2.19728C28.4826 2.19728 28.3098 2.26563 28.1831 2.39096C28.0563 2.5163 27.9872 2.70998 27.9872 2.96065V5.06842H27.2959L27.3074 1.52506Z" fill="white"/>
<path d="M31.6743 1.52481H30.983V5.05674H31.6743V1.52481Z" fill="white"/>
<path d="M32.7113 0.112244H33.4027V1.52503H33.9098V2.07189H33.4027V4.1341C33.4027 4.31639 33.4833 4.39613 33.6445 4.39613H33.9098V5.06836H33.5525C33.3105 5.06836 33.1031 4.98861 32.9533 4.84048C32.792 4.69236 32.7113 4.47588 32.7113 4.20245V2.07189H32.3657V1.52503H32.7113V0.112244Z" fill="white"/>
<path d="M34.3704 1.52481H35.1077L35.926 3.99715H35.9375L36.7555 1.52481H37.4928L36.0067 5.7973C35.9142 6.05934 35.7762 6.24165 35.6149 6.34419C35.4421 6.44673 35.2461 6.49229 35.0389 6.49229H34.8084V5.8201H35.0156C35.1077 5.8201 35.1884 5.79731 35.269 5.74032C35.3497 5.68337 35.3959 5.61502 35.4303 5.51248L35.6149 4.92001L34.3704 1.52481Z" fill="white"/>
<path d="M20.8094 0.94403C21.0448 0.94403 21.2357 0.755279 21.2357 0.522476C21.2357 0.289672 21.0448 0.100922 20.8094 0.100922C20.5739 0.100922 20.3831 0.289672 20.3831 0.522476C20.3831 0.755279 20.5739 0.94403 20.8094 0.94403Z" fill="white"/>
<path d="M26.0057 0.94403C26.2412 0.94403 26.4321 0.755279 26.4321 0.522476C26.4321 0.289672 26.2412 0.100922 26.0057 0.100922C25.7703 0.100922 25.5795 0.289672 25.5795 0.522476C25.5795 0.755279 25.7703 0.94403 26.0057 0.94403Z" fill="white"/>
<path d="M31.3287 0.94403C31.5641 0.94403 31.755 0.755279 31.755 0.522476C31.755 0.289672 31.5641 0.100922 31.3287 0.100922C31.0932 0.100922 30.9023 0.289672 30.9023 0.522476C30.9023 0.755279 31.0932 0.94403 31.3287 0.94403Z" fill="white"/>
<path d="M6.05005 1.93497C6.16457 1.93497 6.25742 1.84314 6.25742 1.72989C6.25742 1.61661 6.16457 1.52481 6.05005 1.52481C5.9355 1.52481 5.84265 1.61661 5.84265 1.72989C5.84265 1.84314 5.9355 1.93497 6.05005 1.93497Z" fill="#F4F4F4"/>
<path d="M5.53147 1.52488C5.65875 1.52488 5.76189 1.42287 5.76189 1.29701C5.76189 1.17115 5.65875 1.06914 5.53147 1.06914C5.4042 1.06914 5.30103 1.17115 5.30103 1.29701C5.30103 1.42287 5.4042 1.52488 5.53147 1.52488Z" fill="#F4F4F4"/>
<path d="M4.93239 1.14889C5.06602 1.14889 5.17434 1.04177 5.17434 0.909616C5.17434 0.777491 5.06602 0.67038 4.93239 0.67038C4.79875 0.67038 4.69043 0.777491 4.69043 0.909616C4.69043 1.04177 4.79875 1.14889 4.93239 1.14889Z" fill="#F4F4F4"/>
<path d="M4.22962 0.886833C4.36325 0.886833 4.47157 0.779689 4.47157 0.647564C4.47157 0.515438 4.36325 0.408295 4.22962 0.408295C4.09598 0.408295 3.98767 0.515438 3.98767 0.647564C3.98767 0.779689 4.09598 0.886833 4.22962 0.886833Z" fill="#F4F4F4"/>
<path d="M3.4576 0.85261C3.61668 0.85261 3.74564 0.725089 3.74564 0.567785C3.74564 0.41045 3.61668 0.282928 3.4576 0.282928C3.29852 0.282928 3.16956 0.41045 3.16956 0.567785C3.16956 0.725089 3.29852 0.85261 3.4576 0.85261Z" fill="#F4F4F4"/>
<path d="M2.61655 1.05792C2.79472 1.05792 2.93916 0.915085 2.93916 0.738906C2.93916 0.562728 2.79472 0.419891 2.61655 0.419891C2.43838 0.419891 2.29395 0.562728 2.29395 0.738906C2.29395 0.915085 2.43838 1.05792 2.61655 1.05792Z" fill="#F4F4F4"/>
<path d="M1.81005 1.65015C2.00732 1.65015 2.16723 1.49203 2.16723 1.29698C2.16723 1.10189 2.00732 0.943771 1.81005 0.943771C1.61279 0.943771 1.45288 1.10189 1.45288 1.29698C1.45288 1.49203 1.61279 1.65015 1.81005 1.65015Z" fill="#F4F4F4"/>
<path d="M1.23397 2.47059C1.44396 2.47059 1.61419 2.30228 1.61419 2.09463C1.61419 1.88697 1.44396 1.71866 1.23397 1.71866C1.02399 1.71866 0.85376 1.88697 0.85376 2.09463C0.85376 2.30228 1.02399 2.47059 1.23397 2.47059Z" fill="#F4F4F4"/>
<path d="M1.18797 3.64417C1.41705 3.64417 1.60276 3.46054 1.60276 3.23401C1.60276 3.00748 1.41705 2.82385 1.18797 2.82385C0.958897 2.82385 0.773193 3.00748 0.773193 3.23401C0.773193 3.46054 0.958897 3.64417 1.18797 3.64417Z" fill="#F4F4F4"/>
<path d="M1.84446 4.70366C2.10536 4.70366 2.31685 4.49453 2.31685 4.23655C2.31685 3.97857 2.10536 3.76941 1.84446 3.76941C1.58357 3.76941 1.37207 3.97857 1.37207 4.23655C1.37207 4.49453 1.58357 4.70366 1.84446 4.70366Z" fill="#F4F4F4"/>
<path d="M6.87961 3.10869C7.10872 3.10869 7.29441 2.92507 7.29441 2.69853C7.29441 2.472 7.10872 2.28838 6.87961 2.28838C6.65054 2.28838 6.46484 2.472 6.46484 2.69853C6.46484 2.92507 6.65054 3.10869 6.87961 3.10869Z" fill="#F4F4F4"/>
<path d="M7.77827 2.21977C8.02006 2.21977 8.21609 2.02592 8.21609 1.78682C8.21609 1.54771 8.02006 1.35387 7.77827 1.35387C7.53648 1.35387 7.34045 1.54771 7.34045 1.78682C7.34045 2.02592 7.53648 2.21977 7.77827 2.21977Z" fill="#F4F4F4"/>
<path d="M5.8427 4.03162C6.09725 4.03162 6.30357 3.82759 6.30357 3.57591C6.30357 3.3242 6.09725 3.12016 5.8427 3.12016C5.58819 3.12016 5.38184 3.3242 5.38184 3.57591C5.38184 3.82759 5.58819 4.03162 5.8427 4.03162Z" fill="#F4F4F4"/>
<path d="M4.66744 4.84028C4.97287 4.84028 5.22046 4.59543 5.22046 4.29339C5.22046 3.99136 4.97287 3.74651 4.66744 3.74651C4.36198 3.74651 4.11438 3.99136 4.11438 4.29339C4.11438 4.59543 4.36198 4.84028 4.66744 4.84028Z" fill="#F4F4F4"/>
<path d="M3.20425 5.26184C3.55423 5.26184 3.83795 4.9813 3.83795 4.63521C3.83795 4.28912 3.55423 4.00858 3.20425 4.00858C2.85427 4.00858 2.57056 4.28912 2.57056 4.63521C2.57056 4.9813 2.85427 5.26184 3.20425 5.26184Z" fill="#F4F4F4"/>
<path d="M8.98802 1.57054C9.28073 1.57054 9.51799 1.33591 9.51799 1.04645C9.51799 0.756986 9.28073 0.522354 8.98802 0.522354C8.69528 0.522354 8.45801 0.756986 8.45801 1.04645C8.45801 1.33591 8.69528 1.57054 8.98802 1.57054Z" fill="#F4F4F4"/>
<path d="M10.4513 1.24025C10.7695 1.24025 11.0274 0.985209 11.0274 0.670603C11.0274 0.355964 10.7695 0.100922 10.4513 0.100922C10.1332 0.100922 9.87524 0.355964 9.87524 0.670603C9.87524 0.985209 10.1332 1.24025 10.4513 1.24025Z" fill="#F4F4F4"/>
<path d="M11.7533 1.54773C12.0142 1.54773 12.2257 1.3386 12.2257 1.08062C12.2257 0.822608 12.0142 0.61348 11.7533 0.61348C11.4924 0.61348 11.2809 0.822608 11.2809 1.08062C11.2809 1.3386 11.4924 1.54773 11.7533 1.54773Z" fill="#F4F4F4"/>
<path d="M12.41 2.57325C12.6391 2.57325 12.8248 2.38959 12.8248 2.16306C12.8248 1.93656 12.6391 1.7529 12.41 1.7529C12.1809 1.7529 11.9952 1.93656 11.9952 2.16306C11.9952 2.38959 12.1809 2.57325 12.41 2.57325Z" fill="#F4F4F4"/>
<path d="M12.387 3.64402C12.5842 3.64402 12.7441 3.4859 12.7441 3.29081C12.7441 3.09576 12.5842 2.93764 12.387 2.93764C12.1897 2.93764 12.0298 3.09576 12.0298 3.29081C12.0298 3.4859 12.1897 3.64402 12.387 3.64402Z" fill="#F4F4F4"/>
<path d="M11.7879 4.40744C11.9661 4.40744 12.1105 4.2646 12.1105 4.08842C12.1105 3.91225 11.9661 3.76941 11.7879 3.76941C11.6098 3.76941 11.4653 3.91225 11.4653 4.08842C11.4653 4.2646 11.6098 4.40744 11.7879 4.40744Z" fill="#F4F4F4"/>
<path d="M11.0274 4.92026C11.2056 4.92026 11.3501 4.77742 11.3501 4.60124C11.3501 4.42506 11.2056 4.28223 11.0274 4.28223C10.8493 4.28223 10.7048 4.42506 10.7048 4.60124C10.7048 4.77742 10.8493 4.92026 11.0274 4.92026Z" fill="#F4F4F4"/>
<path d="M10.1747 5.05683C10.3338 5.05683 10.4628 4.92931 10.4628 4.77201C10.4628 4.61471 10.3338 4.48715 10.1747 4.48715C10.0157 4.48715 9.88672 4.61471 9.88672 4.77201C9.88672 4.92931 10.0157 5.05683 10.1747 5.05683Z" fill="#F4F4F4"/>
<path d="M9.36818 4.95437C9.50181 4.95437 9.61013 4.84723 9.61013 4.7151C9.61013 4.58297 9.50181 4.47583 9.36818 4.47583C9.23454 4.47583 9.12622 4.58297 9.12622 4.7151C9.12622 4.84723 9.23454 4.95437 9.36818 4.95437Z" fill="#F4F4F4"/>
<path d="M8.70002 4.65814C8.82729 4.65814 8.93047 4.55612 8.93047 4.4303C8.93047 4.30444 8.82729 4.20242 8.70002 4.20242C8.57275 4.20242 8.4696 4.30444 8.4696 4.4303C8.4696 4.55612 8.57275 4.65814 8.70002 4.65814Z" fill="#F4F4F4"/>
<path d="M8.08936 4.29363C8.20388 4.29363 8.29673 4.2018 8.29673 4.08855C8.29673 3.9753 8.20388 3.88347 8.08936 3.88347C7.97481 3.88347 7.88196 3.9753 7.88196 4.08855C7.88196 4.2018 7.97481 4.29363 8.08936 4.29363Z" fill="#F4F4F4"/>
</g>
<defs>
<clipPath id="clip0_1_3600">
<rect width="36.7197" height="7.18429" fill="white" transform="translate(0.773193 0.100998)"/>
</clipPath>
</defs>
</svg>
