<svg width="35" height="8" viewBox="0 0 35 8" fill="none" xmlns="http://www.w3.org/2000/svg">
<g clip-path="url(#clip0_1_3582)">
<path d="M3.21149 5.97474C3.05848 5.97474 2.90546 5.88995 2.82045 5.75429L0.916224 2.48136C0.79721 2.2609 0.865218 1.98956 1.08624 1.85389C1.30727 1.73519 1.5793 1.80301 1.71532 2.02347L3.61954 5.27946C3.73856 5.49992 3.67055 5.77126 3.44952 5.90689C3.36451 5.95777 3.29651 5.97474 3.21149 5.97474Z" fill="#F4F4F4"/>
<path d="M8.00604 4.19422C8.00604 3.95679 7.92105 3.73633 7.78501 3.49893C7.58101 3.12584 7.34297 2.88844 7.01994 2.7358C6.7479 2.60013 6.44186 2.53231 6.13582 2.56622C6.23783 2.34577 6.30586 2.12531 6.32284 1.88791C6.35685 1.54872 6.23783 1.24348 6.03382 0.870409C5.89779 0.632982 5.72778 0.463404 5.54076 0.327735C5.33672 0.209036 5.13272 0.124247 4.89468 0.107277C4.65664 0.0903281 4.41863 0.107277 4.16361 0.158156C4.07859 0.175126 3.99357 0.209036 3.90856 0.226006C3.87456 0.242946 3.84056 0.259915 3.80655 0.276855C3.65353 0.327735 3.26249 0.548193 3.12647 0.632982L2.46339 1.02302H2.44639C2.20836 1.17566 2.12336 1.4809 2.25937 1.73527C2.36138 1.90485 2.5314 1.98964 2.70142 1.98964C2.78643 1.98964 2.87144 1.9727 2.95645 1.92182H2.97346L4.04459 1.31133C4.14659 1.26045 4.2486 1.22654 4.35063 1.20957C4.45263 1.1926 4.55464 1.20957 4.65664 1.22654C4.75867 1.26045 4.84366 1.31133 4.94569 1.37914C5.03068 1.44699 5.09871 1.53178 5.16672 1.63351C5.21773 1.73527 5.26872 1.83703 5.28574 1.95573C5.30272 2.07443 5.30272 2.17619 5.28574 2.27795C5.26872 2.37967 5.23472 2.46446 5.16672 2.54925C5.1157 2.63404 5.03068 2.70189 4.94569 2.75277L4.29961 3.14281L4.02757 3.29542L3.85756 3.39718C3.61953 3.53284 3.55152 3.82112 3.68754 4.05855C3.77255 4.21116 3.94256 4.29595 4.11259 4.29595C4.19761 4.29595 4.2826 4.27901 4.35063 4.22813L4.70766 4.02464L5.62578 3.53284C5.72778 3.48196 5.8128 3.44805 5.9148 3.44805C6.01681 3.44805 6.11884 3.46499 6.20383 3.49893C6.30586 3.53284 6.39085 3.58372 6.47587 3.65154C6.56088 3.71939 6.62888 3.80418 6.69689 3.90591C6.7479 4.00767 6.78191 4.10943 6.79892 4.21116C6.81591 4.31292 6.81591 4.43161 6.78191 4.53337C6.76489 4.63513 6.7139 4.71992 6.6459 4.82165C6.57787 4.90644 6.49288 4.97429 6.39085 5.04211L4.80966 5.94091H4.72467L4.43562 6.11049L3.87456 6.41574C3.63653 6.5514 3.53452 6.85665 3.67054 7.09405C3.75555 7.26363 3.92557 7.36539 4.11259 7.36539C4.19761 7.36539 4.2826 7.34845 4.35063 7.29757L5.71077 6.56834L6.81591 5.97482C7.05394 5.83915 7.27497 5.66957 7.46199 5.48303C7.64901 5.29651 7.78501 5.09299 7.87003 4.8895C7.97203 4.65207 8.02305 4.43161 8.00604 4.19422Z" fill="#F4F4F4"/>
<path d="M22.0837 5.07593C21.9817 5.07593 21.8627 5.07593 21.7776 4.99114C21.6926 4.90635 21.6926 4.78762 21.6926 4.68589V2.14216C21.6926 2.0404 21.6926 1.9217 21.7776 1.83691C21.8627 1.75212 21.9817 1.75212 22.0837 1.75212H23.0358C23.6989 1.75212 24.0729 2.12519 24.0729 2.6848C24.0729 3.0579 23.8349 3.2953 23.6479 3.38008C23.8519 3.48184 24.1069 3.68536 24.1069 4.12625C24.1069 4.75371 23.6819 5.09287 23.0868 5.09287H22.0837V5.07593ZM22.3557 2.32871V3.09181H23.0018C23.2738 3.09181 23.4268 2.9392 23.4268 2.70177C23.4268 2.46434 23.2738 2.31174 23.0018 2.31174H22.3557V2.32871ZM23.0358 4.49934C23.3248 4.49934 23.4779 4.3128 23.4779 4.09234C23.4779 3.87188 23.3418 3.68536 23.0358 3.68536H22.3557V4.49934H23.0358Z" fill="#F4F4F4"/>
<path d="M25.144 4.0415C25.144 4.36372 25.3311 4.58417 25.6881 4.58417C25.8411 4.58417 25.9941 4.55027 26.1132 4.44851C26.2152 4.38069 26.2662 4.36372 26.3342 4.36372C26.4532 4.36372 26.5722 4.48242 26.5722 4.61808C26.5722 4.73681 26.4702 4.83854 26.3342 4.92333C26.1642 5.04206 25.9431 5.09291 25.6711 5.09291C25.093 5.09291 24.532 4.83854 24.532 3.83801C24.532 3.04097 24.957 2.58311 25.6031 2.58311C26.2662 2.58311 26.6402 3.05794 26.6742 3.66843C26.6742 3.77019 26.6572 3.87192 26.5892 3.93977C26.5042 4.02456 26.4192 4.02456 26.3172 4.02456H25.144V4.0415ZM26.0282 3.36319C25.9601 3.21058 25.8241 3.10882 25.6201 3.10882C25.4161 3.10882 25.2801 3.21058 25.2121 3.36319C25.1781 3.44798 25.161 3.51583 25.161 3.63452H26.0962C26.0792 3.51583 26.0622 3.44798 26.0282 3.36319Z" fill="#F4F4F4"/>
<path d="M27.2692 3.17671H27.2012C27.0822 3.17671 27.0482 3.17671 26.9972 3.1428C26.9292 3.10889 26.8782 3.04104 26.8782 2.93928C26.8782 2.85449 26.9122 2.7697 26.9972 2.73579C27.0482 2.70188 27.0822 2.70188 27.2012 2.70188H27.2692V2.37967C27.2692 2.22706 27.2692 2.17618 27.3032 2.10836C27.3543 2.02354 27.4393 1.95572 27.5753 1.95572C27.6943 1.95572 27.7963 2.0066 27.8473 2.10836C27.8813 2.17618 27.8813 2.22706 27.8813 2.37967V2.70188H28.0683C28.1874 2.70188 28.2214 2.70188 28.2724 2.73579C28.3404 2.7697 28.3914 2.83755 28.3914 2.93928C28.3914 3.0241 28.3574 3.10889 28.2724 3.1428C28.2214 3.17671 28.1874 3.17671 28.0683 3.17671H27.8813V4.34682C27.8813 4.46555 27.9153 4.55033 28.0853 4.56727C28.1703 4.56727 28.2214 4.58424 28.2724 4.60118C28.3404 4.63512 28.3914 4.70294 28.3914 4.82164C28.3914 4.9234 28.3404 5.00819 28.2724 5.0421C28.2214 5.07604 28.1363 5.07604 28.0173 5.07604H27.9833C27.4733 5.07604 27.2692 4.73685 27.2692 4.38073V3.17671Z" fill="#F4F4F4"/>
<path d="M28.9185 3.17671H28.8505C28.7315 3.17671 28.6975 3.17671 28.6465 3.1428C28.5785 3.10889 28.5275 3.04104 28.5275 2.93928C28.5275 2.85449 28.5615 2.7697 28.6465 2.73579C28.6975 2.70188 28.7315 2.70188 28.8505 2.70188H28.9185V2.37967C28.9185 2.22706 28.9185 2.17618 28.9525 2.10836C29.0035 2.02354 29.0885 1.95572 29.2245 1.95572C29.3436 1.95572 29.4456 2.0066 29.4966 2.10836C29.5306 2.17618 29.5306 2.22706 29.5306 2.37967V2.70188H29.7176C29.8366 2.70188 29.8706 2.70188 29.9216 2.73579C29.9896 2.7697 30.0406 2.83755 30.0406 2.93928C30.0406 3.0241 30.0066 3.10889 29.9216 3.1428C29.8706 3.17671 29.8366 3.17671 29.7176 3.17671H29.5306V4.34682C29.5306 4.46555 29.5646 4.55033 29.7346 4.56727C29.8196 4.56727 29.8706 4.58424 29.9216 4.60118C29.9896 4.63512 30.0406 4.70294 30.0406 4.82164C30.0406 4.9234 29.9896 5.00819 29.9216 5.0421C29.8706 5.07604 29.7856 5.07604 29.6666 5.07604H29.6326C29.1225 5.07604 28.9185 4.73685 28.9185 4.38073V3.17671Z" fill="#F4F4F4"/>
<path d="M30.8906 4.0415C30.8906 4.36372 31.0778 4.58417 31.4347 4.58417C31.5877 4.58417 31.7406 4.55027 31.8598 4.44851C31.9618 4.38069 32.0128 4.36372 32.0807 4.36372C32.1998 4.36372 32.3187 4.48242 32.3187 4.61808C32.3187 4.73681 32.2167 4.83854 32.0807 4.92333C31.9108 5.04206 31.6897 5.09291 31.4178 5.09291C30.8397 5.09291 30.2786 4.83854 30.2786 3.83801C30.2786 3.04097 30.7036 2.58311 31.3496 2.58311C32.0128 2.58311 32.3869 3.05794 32.421 3.66843C32.421 3.77019 32.4038 3.87192 32.3359 3.93977C32.2508 4.02456 32.1657 4.02456 32.0638 4.02456H30.8906V4.0415ZM31.7747 3.36319C31.7069 3.21058 31.5708 3.10882 31.3668 3.10882C31.1626 3.10882 31.0267 3.21058 30.9586 3.36319C30.9246 3.44798 30.9077 3.51583 30.9077 3.63452H31.8426C31.8088 3.51583 31.8088 3.44798 31.7747 3.36319Z" fill="#F4F4F4"/>
<path d="M34.0701 2.59996C34.2572 2.59996 34.3761 2.6339 34.4952 2.71869C34.5803 2.78651 34.6482 2.8713 34.6482 2.97306C34.6482 3.05785 34.6141 3.14264 34.5631 3.19351C34.5121 3.24439 34.4271 3.2783 34.3592 3.2783C34.2913 3.2783 34.24 3.26133 34.1552 3.21045C34.087 3.17654 34.002 3.14264 33.9172 3.14264C33.7129 3.14264 33.509 3.2783 33.509 3.58355V4.66887C33.509 4.82151 33.509 4.87236 33.4749 4.94021C33.4239 5.025 33.3391 5.09282 33.2031 5.09282C33.067 5.09282 32.9819 5.04197 32.9309 4.94021C32.8969 4.87236 32.8969 4.82151 32.8969 4.66887V3.02394C32.8969 2.8713 32.8969 2.82042 32.9478 2.7526C32.9991 2.66781 33.1011 2.61693 33.2031 2.61693C33.2881 2.61693 33.356 2.65084 33.3901 2.68475C33.4411 2.73563 33.4749 2.78651 33.4749 2.8713C33.611 2.73563 33.8321 2.59996 34.0701 2.59996Z" fill="#F4F4F4"/>
<path d="M11.5764 4.19395L11.0324 3.12557V4.61789C11.0324 4.7705 11.0324 4.82138 10.9814 4.90617C10.9304 4.99096 10.8283 5.05881 10.6923 5.05881C10.5563 5.05881 10.4543 4.99096 10.4033 4.90617C10.3693 4.82138 10.3523 4.7705 10.3523 4.61789V2.12504C10.3523 1.98937 10.3693 1.88761 10.4543 1.81979C10.5053 1.76891 10.5903 1.735 10.6753 1.735C10.7603 1.735 10.8114 1.75197 10.8623 1.78588C10.9304 1.81979 10.9814 1.90458 11.0324 1.98937L11.8655 3.56648L12.6986 1.98937C12.7326 1.90458 12.8006 1.83676 12.8686 1.78588C12.9196 1.75197 12.9876 1.735 13.0556 1.735C13.1406 1.735 13.2086 1.76891 13.2766 1.81979C13.3616 1.90458 13.3786 1.98937 13.3786 2.12504V4.63486C13.3786 4.78747 13.3786 4.83835 13.3276 4.92314C13.2766 5.00793 13.1746 5.07575 13.0386 5.07575C12.9026 5.07575 12.8006 5.00793 12.7496 4.92314C12.7156 4.83835 12.6986 4.78747 12.6986 4.63486V3.14254L12.2055 4.19395C12.1205 4.34656 12.0525 4.4144 11.8995 4.4144C11.7465 4.4144 11.6614 4.36352 11.5764 4.19395Z" fill="#F4F4F4"/>
<path d="M13.0726 5.09301C12.9366 5.09301 12.8176 5.0252 12.7666 4.92344C12.7156 4.83865 12.7156 4.78777 12.7156 4.63516V3.24456L12.2226 4.21118C12.1375 4.36382 12.0695 4.44861 11.8825 4.44861C11.7125 4.44861 11.6275 4.36382 11.5425 4.21118L11.0494 3.24456V4.63516C11.0494 4.78777 11.0494 4.83865 10.9984 4.92344C10.9474 5.0252 10.8284 5.09301 10.6924 5.09301C10.5563 5.09301 10.4373 5.0252 10.3863 4.92344C10.3353 4.83865 10.3353 4.7708 10.3353 4.63516V2.12533C10.3353 1.98966 10.3523 1.88794 10.4373 1.78618C10.5053 1.71833 10.5734 1.68442 10.6754 1.68442C10.7604 1.68442 10.8284 1.70139 10.8794 1.7353C10.9644 1.78618 11.0154 1.88794 11.0494 1.93879L11.8485 3.46502L12.6476 1.93879C12.6816 1.88794 12.7326 1.78618 12.8176 1.7353C12.8686 1.70139 12.9366 1.68442 13.0217 1.68442C13.1237 1.68442 13.1917 1.71833 13.2597 1.78618C13.3447 1.87097 13.3617 1.97272 13.3617 2.12533V4.63516C13.3617 4.78777 13.3617 4.83865 13.3107 4.92344C13.3277 5.0252 13.2087 5.09301 13.0726 5.09301ZM12.7666 3.0241V4.63516C12.7666 4.78777 12.7666 4.83865 12.8006 4.90647C12.8516 4.99126 12.9536 5.04214 13.0557 5.04214C13.1747 5.04214 13.2597 4.99126 13.3107 4.90647C13.3447 4.83865 13.3447 4.78777 13.3447 4.63516V2.12533C13.3447 1.98966 13.3277 1.90488 13.2597 1.83706C13.2087 1.78618 13.1406 1.75227 13.0557 1.75227C12.9876 1.75227 12.9366 1.76921 12.8686 1.80312C12.8176 1.83706 12.7666 1.90488 12.7156 1.98966L11.8655 3.60069L11.0154 1.98966C10.9644 1.90488 10.9134 1.83706 10.8624 1.80312C10.8114 1.76921 10.7604 1.75227 10.6754 1.75227C10.5904 1.75227 10.5223 1.78618 10.4713 1.83706C10.4033 1.90488 10.3863 2.00663 10.3863 2.12533V4.63516C10.3863 4.78777 10.3863 4.83865 10.4203 4.90647C10.4713 4.99126 10.5734 5.04214 10.6754 5.04214C10.7944 5.04214 10.8794 4.99126 10.9304 4.90647C11.0154 4.83865 11.0154 4.78777 11.0154 4.63516V3.0241L11.6105 4.17727C11.6955 4.34685 11.7635 4.39773 11.8995 4.39773C12.0355 4.39773 12.1035 4.34685 12.1886 4.17727L12.7666 3.0241Z" fill="#F4F4F4"/>
<path d="M14.8407 5.07585C14.6026 5.07585 14.3986 4.99106 14.2626 4.85542C14.0586 4.6519 14.0076 4.43144 14.0076 4.16011V3.00697C14.0076 2.85433 14.0076 2.80348 14.0416 2.73563C14.0926 2.65084 14.1776 2.59996 14.2966 2.59996C14.4156 2.59996 14.5176 2.65084 14.5516 2.73563C14.5856 2.80348 14.5856 2.85433 14.5856 3.00697V4.07532C14.5856 4.39753 14.7897 4.51623 14.9937 4.51623C15.1807 4.51623 15.4017 4.4145 15.4017 4.07532V3.00697C15.4017 2.85433 15.4017 2.80348 15.4357 2.73563C15.4868 2.65084 15.5718 2.59996 15.6908 2.59996C15.8098 2.59996 15.9118 2.65084 15.9458 2.73563C15.9798 2.80348 15.9798 2.85433 15.9798 3.00697V4.63496C15.9798 4.78757 15.9798 4.83845 15.9288 4.90627C15.8778 4.99106 15.7758 5.04194 15.6738 5.04194C15.5888 5.04194 15.5208 5.00803 15.4868 4.97412C15.4357 4.92324 15.4188 4.87236 15.4017 4.80454C15.2997 4.99106 15.0617 5.07585 14.8407 5.07585Z" fill="#F4F4F4"/>
<path d="M14.8407 5.10988C14.6027 5.10988 14.3986 5.02509 14.2457 4.88942C14.0756 4.71984 13.9906 4.49939 13.9906 4.17717V3.024C13.9906 2.87139 13.9906 2.82051 14.0246 2.73572C14.0756 2.63396 14.1776 2.58311 14.3137 2.58311C14.4497 2.58311 14.5517 2.63396 14.6027 2.73572C14.6367 2.80357 14.6367 2.87139 14.6367 3.024V4.09238C14.6367 4.46545 14.9257 4.49939 15.0107 4.49939C15.0957 4.49939 15.3848 4.46545 15.3848 4.09238V3.024C15.3848 2.87139 15.3848 2.82051 15.4188 2.73572C15.4698 2.63396 15.5718 2.58311 15.7078 2.58311C15.8438 2.58311 15.9458 2.63396 15.9968 2.73572C16.0308 2.80357 16.0308 2.87139 16.0308 3.024V4.65199C16.0308 4.80463 16.0308 4.85551 15.9798 4.9403C15.9288 5.02509 15.8268 5.09291 15.6908 5.09291C15.6058 5.09291 15.5378 5.059 15.4868 5.00812C15.4358 4.97421 15.4188 4.92333 15.4018 4.87245C15.2828 5.02509 15.0617 5.10988 14.8407 5.10988ZM14.3306 2.63396C14.2116 2.63396 14.1266 2.68484 14.0926 2.76963C14.0586 2.82051 14.0586 2.88836 14.0586 3.024V4.17717C14.0586 4.48242 14.1266 4.6859 14.2966 4.83854C14.4327 4.97421 14.6197 5.04203 14.8577 5.04203C15.0787 5.04203 15.2998 4.95724 15.4528 4.78766L15.4868 4.75375L15.5038 4.80463C15.5208 4.88942 15.5378 4.92333 15.5888 4.97421C15.6398 5.00812 15.6908 5.04203 15.7588 5.04203C15.8608 5.04203 15.9628 4.99115 15.9968 4.92333C16.0308 4.85551 16.0308 4.82157 16.0308 4.66896V3.04097C16.0308 2.88836 16.0308 2.83748 15.9968 2.7866C15.9628 2.70181 15.8608 2.65093 15.7588 2.65093C15.6568 2.65093 15.5548 2.70181 15.5208 2.7866C15.4868 2.83748 15.4868 2.9053 15.4868 3.04097V4.10935C15.4868 4.44851 15.2657 4.56721 15.0617 4.56721C14.8577 4.56721 14.6367 4.44851 14.6367 4.10935V3.04097C14.6367 2.88836 14.6367 2.83748 14.6027 2.7866C14.5177 2.68484 14.4327 2.63396 14.3306 2.63396Z" fill="#F4F4F4"/>
<path d="M18.0882 2.71884C18.2243 2.78669 18.3773 2.90539 18.3773 3.05803C18.3773 3.14282 18.3432 3.1937 18.2923 3.26152C18.2583 3.3124 18.1732 3.34631 18.1052 3.34631C18.0372 3.34631 17.9862 3.32934 17.9012 3.26152C17.7992 3.1937 17.7312 3.15976 17.6122 3.15976C17.4761 3.15976 17.3571 3.21064 17.2721 3.3124C17.1871 3.4311 17.1361 3.58374 17.1361 3.8381C17.1361 4.09247 17.1701 4.26205 17.2721 4.38075C17.3571 4.48251 17.4761 4.53339 17.6122 4.53339C17.7312 4.53339 17.7992 4.49948 17.9012 4.43163C17.9862 4.36381 18.0372 4.34684 18.1052 4.34684C18.1732 4.34684 18.2412 4.38075 18.2923 4.43163C18.3432 4.48251 18.3773 4.55033 18.3773 4.63511C18.3773 4.78775 18.2243 4.90645 18.0882 4.9743C17.9522 5.05909 17.7992 5.093 17.6122 5.093C17.1361 5.093 16.524 4.83863 16.524 3.85504C16.524 2.87148 17.1191 2.61711 17.6122 2.61711C17.7992 2.60014 17.9352 2.63405 18.0882 2.71884Z" fill="#F4F4F4"/>
<path d="M17.595 5.10979C17.391 5.10979 17.102 5.05891 16.8469 4.85542C16.6089 4.63496 16.4729 4.29577 16.4729 3.85486C16.4729 3.397 16.5919 3.07479 16.8469 2.85433C17.085 2.63387 17.391 2.59996 17.595 2.59996C17.782 2.59996 17.9351 2.63387 18.0881 2.71866C18.2241 2.78651 18.3941 2.90521 18.3941 3.07479C18.3941 3.15957 18.3601 3.22742 18.3091 3.29524C18.2581 3.34612 18.1731 3.38003 18.1051 3.38003C18.0371 3.38003 17.9691 3.36309 17.8841 3.29524C17.782 3.22742 17.714 3.19351 17.612 3.19351C17.476 3.19351 17.374 3.24436 17.289 3.34612C17.204 3.46482 17.153 3.61746 17.153 3.85486C17.153 4.10926 17.187 4.26186 17.289 4.38056C17.374 4.48232 17.476 4.5332 17.612 4.5332C17.714 4.5332 17.7991 4.49929 17.8841 4.43144C17.9691 4.38056 18.0201 4.32971 18.1051 4.32971C18.1731 4.32971 18.2581 4.36362 18.3091 4.4145C18.3771 4.48232 18.3941 4.55017 18.3941 4.63496C18.3941 4.7706 18.2921 4.88933 18.0881 5.00803C17.9351 5.07585 17.7991 5.10979 17.595 5.10979ZM17.612 2.63387C17.289 2.63387 16.5579 2.7526 16.5579 3.83792C16.5579 4.94021 17.289 5.05891 17.612 5.05891C17.7991 5.05891 17.9351 5.025 18.0711 4.94021C18.2581 4.83845 18.3431 4.73669 18.3431 4.61799C18.3431 4.55017 18.3091 4.49929 18.2581 4.43144C18.2241 4.39753 18.1561 4.36362 18.0881 4.36362C18.0201 4.36362 17.9691 4.38056 17.9011 4.44841C17.7991 4.5332 17.714 4.55017 17.595 4.55017C17.442 4.55017 17.323 4.49929 17.238 4.38056C17.136 4.26186 17.102 4.09229 17.102 3.83792C17.102 3.58355 17.153 3.41397 17.238 3.29524C17.323 3.19351 17.442 3.12567 17.595 3.12567C17.7311 3.12567 17.7991 3.15957 17.9011 3.22742C17.9861 3.2783 18.0371 3.31221 18.0881 3.31221C18.1561 3.31221 18.2071 3.2783 18.2581 3.24436C18.3091 3.19351 18.3431 3.12567 18.3431 3.05785C18.3431 2.90521 18.1731 2.78651 18.0711 2.73563C17.9351 2.66781 17.7991 2.63387 17.612 2.63387Z" fill="#F4F4F4"/>
<path d="M20.7745 4.92314C20.7235 5.00793 20.6385 5.05881 20.5195 5.05881C20.4005 5.05881 20.2985 5.00793 20.2645 4.92314C20.2305 4.85529 20.2305 4.80444 20.2305 4.6518V3.58345C20.2305 3.26124 20.0264 3.14254 19.8224 3.14254C19.6184 3.14254 19.4144 3.24427 19.4144 3.58345V4.6518C19.4144 4.80444 19.4144 4.85529 19.3804 4.92314C19.3294 5.00793 19.2443 5.05881 19.1253 5.05881C19.0063 5.05881 18.9043 5.00793 18.8703 4.92314C18.8363 4.85529 18.8363 4.80444 18.8363 4.6518V2.14201C18.8363 1.98937 18.8363 1.93849 18.8703 1.87067C18.9213 1.78588 19.0063 1.735 19.1253 1.735C19.2443 1.735 19.3464 1.78588 19.3804 1.87067C19.4144 1.93849 19.4144 1.98937 19.4144 2.14201V2.85423C19.5674 2.70162 19.7374 2.59986 20.0094 2.59986C20.2475 2.59986 20.4515 2.68465 20.5875 2.82032C20.7915 3.02381 20.8425 3.24427 20.8425 3.5156V4.66877C20.8255 4.80444 20.8085 4.85529 20.7745 4.92314Z" fill="#F4F4F4"/>
<path d="M20.5194 5.09291C20.3834 5.09291 20.2814 5.04203 20.2304 4.9403C20.1964 4.87245 20.1964 4.80463 20.1964 4.65199V3.58364C20.1964 3.21054 19.9074 3.17663 19.8224 3.17663C19.7374 3.17663 19.4483 3.21054 19.4483 3.58364V4.65199C19.4483 4.80463 19.4483 4.85551 19.4143 4.9403C19.3633 5.04203 19.2613 5.09291 19.1253 5.09291C18.9893 5.09291 18.8873 5.04203 18.8362 4.9403C18.8022 4.87245 18.8022 4.80463 18.8022 4.65199V2.14219C18.8022 1.98956 18.8022 1.93868 18.8362 1.85389C18.8873 1.75216 18.9893 1.70128 19.1253 1.70128C19.2613 1.70128 19.3633 1.75216 19.4143 1.85389C19.4483 1.92174 19.4483 1.98956 19.4483 2.14219V2.80357C19.6183 2.65093 19.7884 2.58311 20.0094 2.58311C20.2474 2.58311 20.4514 2.6679 20.6045 2.80357C20.7745 2.97315 20.8595 3.1936 20.8595 3.51579V4.66896C20.8595 4.82157 20.8595 4.87245 20.8255 4.95724C20.7575 5.04203 20.6555 5.09291 20.5194 5.09291ZM19.8224 3.12575C20.0264 3.12575 20.2474 3.24445 20.2474 3.58364V4.65199C20.2474 4.80463 20.2474 4.85551 20.2814 4.90636C20.3154 4.99115 20.4174 5.04203 20.5194 5.04203C20.6215 5.04203 20.7235 4.99115 20.7575 4.90636C20.7915 4.85551 20.7915 4.78766 20.7915 4.65199V3.49885C20.7915 3.1936 20.7235 2.99009 20.5534 2.83748C20.4174 2.70181 20.2304 2.63396 19.9924 2.63396C19.7544 2.63396 19.5843 2.70181 19.4143 2.87139L19.3633 2.92227V2.14219C19.3633 1.98956 19.3633 1.93868 19.3293 1.8878C19.2953 1.80301 19.1933 1.75216 19.0913 1.75216C18.9723 1.75216 18.8873 1.80301 18.8533 1.8878C18.8192 1.93868 18.8192 2.00653 18.8192 2.14219V4.66896C18.8192 4.82157 18.8192 4.87245 18.8533 4.92333C18.8873 5.00812 18.9893 5.059 19.0913 5.059C19.1933 5.059 19.2953 5.00812 19.3293 4.92333C19.3633 4.87245 19.3633 4.80463 19.3633 4.66896V3.60058C19.3803 3.24445 19.6013 3.12575 19.8224 3.12575Z" fill="#F4F4F4"/>
</g>
<defs>
<clipPath id="clip0_1_3582">
<rect width="33.7263" height="7.18429" fill="white" transform="translate(0.858276 0.100998)"/>
</clipPath>
</defs>
</svg>
