<svg width="44" height="8" viewBox="0 0 44 8" fill="none" xmlns="http://www.w3.org/2000/svg">
<g clip-path="url(#clip0_1_3535)">
<path d="M38.7103 3.25173C38.4948 3.39399 38.1356 3.46512 37.7045 3.46512H37.2735L37.5609 1.6157H37.9201C38.2793 1.6157 38.5667 1.68683 38.7822 1.75796C38.9259 1.90023 39.0696 2.04249 39.0696 2.46928C39.0696 2.89607 38.9259 3.10946 38.7103 3.25173ZM11.5537 5.59907H8.03342L8.24895 4.3187H10.4761L10.6916 2.9672H8.53632L8.75185 1.75796H12.2722L11.5537 5.59907ZM40.6501 0.690991C40.0754 0.335333 39.2851 0.193069 38.2793 0.193069H35.6211L34.6153 5.59907H31.095L31.3105 4.3187H33.394L33.6813 2.9672H31.526L31.8134 1.75796H33.9687L34.2561 0.193069H29.8018L28.8679 5.31454H27.2155L28.2213 0.193069H25.8505L24.9165 5.31454H23.336L24.2699 0.193069H21.9709L20.9651 5.59907H17.4448L17.6604 4.3187H19.7438L20.0312 2.9672H17.8759L18.0914 1.75796H20.3186L20.6059 0.193069H6.74025L5.94998 4.46097L4.44128 0.193069H1.99862L0.705444 7.16397H3.00442L3.79469 2.75381L5.30339 7.16397H13.5653L14.5711 1.75796H15.8643L14.8585 7.16397H36.5551L37.2016 3.74965L38.2074 7.16397H40.5064L39.4288 4.38983L39.7161 4.3187C40.219 4.17644 40.6501 3.96304 40.9375 3.60739C41.2248 3.25173 41.3685 2.75381 41.3685 2.18475C41.3685 1.54457 41.153 1.04665 40.6501 0.690991ZM42.518 6.31039H43.0209C43.0209 6.23925 43.0209 6.23925 43.0928 6.23925V6.09699C43.0928 6.02586 43.0928 6.02586 43.0209 5.95473H42.518V6.31039ZM42.3743 6.95057V5.8836L42.8054 5.81247H43.0928C43.0928 5.8836 43.1646 5.8836 43.1646 5.95473C43.2364 5.95473 43.2364 6.02586 43.2364 6.09699C43.2364 6.16812 43.2364 6.23925 43.1646 6.31039C43.1646 6.38152 43.0209 6.38152 42.9491 6.45265H43.0209L43.1646 6.59491L43.3801 6.87944H43.1646L43.0209 6.66604C43.0209 6.59491 42.9491 6.59491 42.9491 6.52378C42.8772 6.52378 42.8772 6.45265 42.8772 6.45265H42.518V6.95057H42.3743Z" fill="#F4F4F4"/>
<path d="M41.9433 6.38145C41.9433 6.16806 42.0152 5.95466 42.1588 5.8124C42.3025 5.67014 42.5181 5.52787 42.7336 5.52787C43.2365 5.52787 43.5957 5.88353 43.6675 6.31032V6.38145C43.6675 6.80824 43.3083 7.1639 42.8054 7.23503C42.3744 7.23503 41.9433 6.87937 41.9433 6.38145ZM42.7336 5.38561C42.4462 5.38561 42.2307 5.45674 42.0152 5.67014C41.7996 5.88353 41.7278 6.16806 41.7278 6.45258C41.7996 7.02164 42.2307 7.44843 42.8054 7.37729C43.3802 7.37729 43.8112 6.87937 43.8112 6.31032C43.8112 5.74127 43.3083 5.31448 42.7336 5.38561Z" fill="#F4F4F4"/>
</g>
<defs>
<clipPath id="clip0_1_3535">
<rect width="43.1057" height="7.18429" fill="white" transform="translate(0.705444 0.193069)"/>
</clipPath>
</defs>
</svg>
