<svg width="43" height="8" viewBox="0 0 43 8" fill="none" xmlns="http://www.w3.org/2000/svg">
<g clip-path="url(#clip0_1_3550)">
<path fill-rule="evenodd" clip-rule="evenodd" d="M7.95754 3.36264C7.95754 3.22177 7.88703 3.15134 7.746 3.15134H7.04088C6.82934 3.15134 6.75883 3.29221 6.75883 3.43308V4.70089C6.75883 4.9122 6.89985 4.98263 7.04088 4.98263H7.746C7.81651 4.98263 7.81651 4.98263 7.88703 4.9122C7.95754 4.9122 7.95754 4.84176 7.95754 4.77133V3.36264ZM5.84216 3.22177C5.84216 2.8696 5.91268 2.6583 6.0537 2.447C6.12421 2.37656 6.26524 2.37656 6.33575 2.30613C6.47678 2.2357 6.54729 2.2357 6.68831 2.2357H8.02805C8.59215 2.2357 8.8742 2.51743 8.8742 3.15134V5.1235C8.8742 5.3348 8.80369 5.5461 8.59215 5.68697C8.45112 5.82784 8.23959 5.96871 8.02805 5.96871H6.75883V7.37739H5.84216V3.22177ZM10.5665 4.84176C10.5665 4.84176 10.5665 4.9122 10.637 4.9122C10.637 4.98263 10.7075 4.98263 10.778 4.98263H11.4832C11.6242 4.98263 11.6947 4.9122 11.7652 4.84176V4.56002C11.7652 4.41916 11.6242 4.34872 11.4832 4.34872H10.5665V4.84176ZM11.7652 3.36264C11.7652 3.22177 11.6242 3.15134 11.4832 3.15134H9.64984V2.2357H11.6947C12.3293 2.2357 12.6114 2.51743 12.6819 3.08091V5.05306C12.6114 5.3348 12.5408 5.5461 12.3998 5.68697C12.2588 5.89827 12.0473 5.96871 11.8357 5.96871H10.5665C9.93189 5.96871 9.64984 5.68697 9.64984 5.1235V4.34872C9.64984 3.78525 9.93189 3.50351 10.496 3.43308H11.7652V3.36264ZM15.2203 6.39131C15.2908 6.39131 15.3613 6.39131 15.4319 6.32088C15.5024 6.25045 15.5024 6.25045 15.5024 6.18001V5.96871H14.3037C14.1626 5.96871 14.0216 5.89827 13.9511 5.89827C13.8806 5.82784 13.7396 5.75741 13.669 5.68697C13.5985 5.61654 13.528 5.47567 13.4575 5.40524C13.387 5.26437 13.387 5.1235 13.387 4.98263V2.2357H14.3037V4.70089C14.3037 4.9122 14.3742 4.98263 14.5857 4.98263H15.2203C15.2908 4.98263 15.3613 4.98263 15.4319 4.9122C15.4319 4.9122 15.5024 4.84176 15.5024 4.77133V2.2357H16.419V6.32088C16.419 6.60262 16.3485 6.88435 16.2075 7.09566C15.996 7.23653 15.7844 7.37739 15.5729 7.37739H13.387V6.39131H15.2203ZM17.1242 4.98263H18.7459C18.887 4.98263 19.028 4.9122 19.028 4.84176V4.77133C19.028 4.70089 19.028 4.70089 18.9575 4.63046C18.9575 4.56002 18.887 4.56002 18.8165 4.56002H18.0408C17.7588 4.56002 17.6177 4.48959 17.4062 4.27829C17.2652 4.13742 17.1242 3.99655 17.1242 3.78525V3.08091C17.1242 2.51743 17.4767 2.2357 18.0408 2.2357H19.9447V3.15134H18.3229C18.1113 3.15134 18.0408 3.22177 18.0408 3.36264V3.43308C18.0408 3.57395 18.1113 3.57395 18.3229 3.57395H19.169C19.3806 3.64438 19.5216 3.71481 19.7331 3.85568C19.8741 3.99655 19.9447 4.20785 19.9447 4.41916V5.1235C19.9447 5.3348 19.8741 5.47567 19.6626 5.68697C19.5921 5.82784 19.5216 5.82784 19.4511 5.89827C19.31 5.96871 19.2395 5.96871 19.028 5.96871H17.1242V4.98263ZM21.4959 4.84176L21.5664 4.9122C21.637 4.98263 21.7075 4.98263 21.778 4.98263H22.4831C22.6241 4.98263 22.6946 4.9122 22.6946 4.84176V4.56002C22.6946 4.41916 22.6241 4.34872 22.4831 4.34872H21.5664C21.5664 4.41916 21.4959 4.48959 21.4959 4.56002V4.84176ZM22.6946 3.36264C22.6946 3.22177 22.6241 3.15134 22.4831 3.15134H20.5793V2.2357H22.6946C23.3293 2.2357 23.6113 2.51743 23.6113 3.08091V5.05306C23.6113 5.3348 23.5408 5.5461 23.3998 5.68697C23.2587 5.89827 23.0472 5.96871 22.7652 5.96871H21.4959C20.9318 5.96871 20.5793 5.68697 20.5793 5.1235V4.34872C20.5793 3.78525 20.9318 3.50351 21.4959 3.43308H22.6946V3.36264ZM24.3869 1.67222C24.3869 1.46092 24.4575 1.24962 24.669 1.03831C24.81 0.897445 25.0921 0.827011 25.3741 0.827011H25.9382V1.74266H25.5857C25.3741 1.74266 25.3036 1.81309 25.3036 2.02439V2.2357H25.9382V3.15134H25.3036V5.96871H24.3869V1.67222ZM28.5472 3.36264V3.29221C28.5472 3.29221 28.5472 3.22177 28.4767 3.22177C28.4767 3.15134 28.4062 3.15134 28.3356 3.15134H27.701C27.6305 3.15134 27.56 3.15134 27.4895 3.22177C27.419 3.29221 27.419 3.36264 27.419 3.43308V3.78525L28.5472 3.36264ZM27.419 4.70089V4.77133C27.419 4.84176 27.419 4.9122 27.4895 4.9122C27.4895 4.98263 27.56 4.98263 27.6305 4.98263H29.4638V5.96871H27.4895C27.278 5.96871 27.1369 5.89827 27.0664 5.89827C26.9254 5.82784 26.8549 5.82784 26.7844 5.68697C26.6433 5.61654 26.5728 5.5461 26.5728 5.40524C26.5023 5.3348 26.5023 5.19393 26.5023 4.98263V3.08091C26.5023 2.51743 26.7844 2.2357 27.419 2.2357H28.6177C29.1818 2.2357 29.4638 2.51743 29.5344 3.15134V3.85568L27.419 4.70089ZM31.4382 5.96871C31.2972 5.96871 31.1561 5.96871 31.0856 5.89827C30.9446 5.89827 30.8036 5.82784 30.7331 5.75741C30.592 5.61654 30.5215 5.5461 30.451 5.40524C30.3805 5.26437 30.3805 5.1235 30.3805 4.9122V2.79917C30.451 2.6583 30.5215 2.58787 30.592 2.447C30.7331 2.37656 30.8036 2.30613 30.9446 2.2357C31.0856 2.2357 31.2267 2.16526 31.3677 2.16526H32.7779V2.447H31.3677C31.1561 2.447 30.9446 2.447 30.8036 2.58787C30.6626 2.6583 30.592 2.8696 30.592 3.15134V4.9122C30.592 4.98263 30.592 5.1235 30.6626 5.26437C30.6626 5.3348 30.7331 5.47567 30.8036 5.5461C30.9446 5.61654 31.0151 5.68697 31.1561 5.68697C31.2267 5.68697 31.3677 5.75741 31.4382 5.75741H32.7779V5.96871H31.4382ZM36.3741 3.64438H34.5407C34.3292 3.64438 34.1177 3.71481 34.0472 3.85568C33.9061 3.99655 33.8356 4.20785 33.8356 4.41916V5.26437C33.9061 5.40524 33.9061 5.47567 34.0472 5.5461C34.1882 5.68697 34.3292 5.75741 34.5407 5.75741H35.6689C36.1625 5.75741 36.3741 5.47567 36.3741 4.98263V3.64438ZM36.5856 4.9122V5.3348C36.5151 5.40524 36.5151 5.5461 36.3741 5.68697C36.1625 5.82784 35.951 5.96871 35.6689 5.96871H34.5407C34.2587 5.96871 34.0472 5.89827 33.9061 5.68697C33.6946 5.5461 33.6241 5.26437 33.6241 4.98263V4.41916C33.6241 3.78525 33.9061 3.43308 34.5407 3.43308H36.3741V3.22177C36.3741 3.01047 36.3036 2.79917 36.233 2.6583C36.1625 2.58787 36.0215 2.51743 35.951 2.447H33.6241V2.16526H35.5279C35.6689 2.16526 35.81 2.2357 35.951 2.2357C36.0215 2.2357 36.092 2.30613 36.1625 2.30613C36.233 2.37656 36.3036 2.37656 36.3741 2.51743C36.5151 2.72874 36.5856 2.94004 36.5856 3.22177V4.9122ZM38.701 2.447C38.1369 2.447 37.9253 2.72874 37.9253 3.22177V5.96871H37.7138V3.22177C37.7138 2.51743 37.9959 2.16526 38.701 2.16526H38.983V2.447H38.701ZM42.3676 2.447H40.3228C40.1817 2.447 40.1112 2.51743 40.0407 2.6583C39.8997 2.72874 39.8292 2.8696 39.8292 2.94004C39.8292 3.01047 39.7587 3.15134 39.7587 3.29221V4.98263C39.7587 5.26437 39.8997 5.47567 40.0407 5.5461C40.1112 5.61654 40.2523 5.68697 40.3228 5.68697C40.3933 5.68697 40.5343 5.75741 40.6753 5.75741H41.451C41.733 5.75741 41.9446 5.68697 42.0856 5.5461C42.2971 5.40524 42.3676 5.19393 42.3676 4.9122V2.447ZM42.6497 4.9122C42.5792 5.61654 42.2266 5.96871 41.451 5.96871H40.6753C40.4638 5.96871 40.3228 5.96871 40.1817 5.89827C40.0407 5.89827 39.8997 5.75741 39.8292 5.68697C39.6882 5.5461 39.6176 5.40524 39.6176 5.26437C39.5471 5.19393 39.5471 5.05306 39.5471 4.84176V3.29221C39.5471 2.51743 39.9702 2.16526 40.6753 2.16526H42.3676V0.96788H42.6497V4.9122Z" fill="#F4F4F4"/>
<path fill-rule="evenodd" clip-rule="evenodd" d="M0.765116 2.09479C0.835628 2.02436 0.906141 2.02436 0.976653 2.02436C1.11768 1.39045 1.68178 0.897412 2.31639 0.897412C3.02152 0.897412 3.58562 1.39045 3.65613 2.02436C3.86767 2.02436 4.0792 2.09479 4.22023 2.23566V1.88349C4.0792 0.967846 3.30357 0.193069 2.31639 0.193069C1.32922 0.193069 0.483066 0.967846 0.412553 2.02436V2.23566C0.553578 2.16523 0.624091 2.09479 0.765116 2.09479ZM3.44459 2.23566H1.18819C1.04717 2.23566 0.976653 2.23566 0.835628 2.3061C0.694603 2.37653 0.624091 2.37653 0.553578 2.44696C0.412553 2.65827 0.342041 2.86957 0.342041 3.22174V4.9826C0.342041 5.26433 0.412553 5.54607 0.553578 5.68694C0.624091 5.75737 0.694603 5.82781 0.835628 5.89824C0.976653 5.89824 1.04717 5.96868 1.18819 5.96868H3.44459C4.00869 5.96868 4.29074 5.6165 4.29074 4.9826V3.15131C4.29074 2.5174 4.00869 2.23566 3.44459 2.23566Z" fill="#F4F4F4"/>
</g>
<defs>
<clipPath id="clip0_1_3550">
<rect width="42.3075" height="7.18429" fill="white" transform="translate(0.342041 0.193069)"/>
</clipPath>
</defs>
</svg>
