<svg width="16" height="8" viewBox="0 0 16 8" fill="none" xmlns="http://www.w3.org/2000/svg">
<g clip-path="url(#clip0_1_3555)">
<path d="M10.2714 0.172318H10.8565L10.851 0.194289C10.8407 0.235486 10.8287 0.275653 10.8147 0.315134L10.8291 0.225187C10.7684 0.203559 10.703 0.202529 10.6396 0.198066C10.4992 0.193946 10.3741 0.166825 10.2399 0.22656L10.2704 0.174034L10.2714 0.172318Z" fill="#F4F4F4"/>
<path d="M2.29955 0.185745C2.70444 0.196044 3.11071 0.184029 3.51561 0.190895C3.64132 0.207374 3.77903 0.291141 3.82253 0.416448C3.86261 0.533859 3.84377 0.649898 3.79992 0.762846C3.59782 1.296 3.39811 1.83053 3.19566 2.36335C3.11859 2.55972 2.96273 2.70151 2.77672 2.79317C2.67293 3.39533 2.56914 3.99852 2.46637 4.60103H2.45096C2.25262 4.57734 2.04914 4.59554 1.84944 4.59004C1.9594 4.01466 2.06387 3.43756 2.17383 2.86183C2.07484 2.86114 1.97618 2.86114 1.87718 2.86183C1.66138 3.43859 1.43735 4.0126 1.22325 4.5897C1.01841 4.58901 0.812878 4.59279 0.608032 4.58695C0.679625 4.44997 0.725185 4.30544 0.781363 4.16194C1.28834 2.83677 1.7912 1.51023 2.29955 0.185745ZM2.7017 0.704484C2.48144 1.25755 2.27557 1.82573 2.05976 2.38154C2.23652 2.38189 2.41293 2.38189 2.58969 2.38189C2.80207 1.82161 3.01308 1.26133 3.22581 0.701394C3.05145 0.703454 2.87606 0.695214 2.7017 0.704484Z" fill="#F4F4F4"/>
<path d="M5.39684 0.190964C5.64827 0.185815 5.90005 0.190964 6.15148 0.188561C6.31077 0.183412 6.48239 0.291554 6.52315 0.451535C6.55878 0.570663 6.52212 0.673312 6.48307 0.784544C6.01069 2.05272 5.54243 3.32262 5.07108 4.59149C4.86897 4.58737 4.66687 4.59183 4.46442 4.58805C4.6768 4.01198 4.88987 3.43625 5.10739 2.8619C4.92138 2.86293 4.73401 2.85572 4.54834 2.8643C4.52436 2.89863 4.51101 2.94189 4.49559 2.98068C4.29828 3.5183 4.09344 4.05284 3.89613 4.59011C3.69505 4.58874 3.49431 4.59149 3.29358 4.5884C3.755 3.35626 4.21812 2.12482 4.68023 0.893372C4.7203 0.789007 4.75422 0.676745 4.8104 0.580276C4.93577 0.374291 5.16185 0.232161 5.39684 0.190964ZM5.353 0.698717C5.13959 1.24938 4.93885 1.80932 4.72716 2.36101C4.9159 2.36204 5.1043 2.36204 5.29305 2.36067C5.49687 1.80451 5.70651 1.25076 5.91135 0.69494C5.72569 0.697687 5.53832 0.688074 5.353 0.698717Z" fill="#F4F4F4"/>
<path d="M7.65592 0.191011C8.03341 0.186548 8.41159 0.191011 8.78908 0.188608C8.94871 0.182772 9.12067 0.291944 9.16315 0.451239C9.19398 0.557321 9.16966 0.654477 9.13472 0.75541C8.90144 1.39396 8.66816 2.03286 8.43591 2.6721C8.34102 2.98142 8.01834 3.22688 7.69292 3.2159C7.50863 3.21624 7.32399 3.21521 7.13936 3.21555C6.97151 3.67353 6.79989 4.13047 6.63581 4.58947C6.5013 4.58901 6.29953 4.58799 6.03052 4.58638C6.75216 2.6325 7.29396 1.16738 7.65592 0.191011ZM8.55512 0.700824C8.39138 0.702197 8.22696 0.696361 8.06356 0.704257C7.81726 1.36787 7.57542 2.03423 7.32879 2.69785C7.4939 2.69819 7.65901 2.6975 7.82446 2.69853C8.07041 2.03354 8.31568 1.36821 8.55512 0.700824Z" fill="#F4F4F4"/>
<path d="M11.8659 0.189033C12.256 0.189377 12.6465 0.18972 13.0367 0.18869C13.196 0.179421 13.3765 0.285159 13.4211 0.445141C13.4485 0.544357 13.4348 0.64323 13.4019 0.739356C13.009 1.84549 12.6137 2.95198 12.2218 4.05846C12.1111 4.39387 11.7581 4.58715 11.3925 4.59024C11.1463 4.5923 10.7766 4.59127 10.2833 4.58715C10.3345 4.44273 10.3734 4.3331 10.4001 4.25826C10.8882 2.90185 11.3781 1.54579 11.8659 0.189033ZM12.2797 0.701592C11.8751 1.82043 11.4668 2.96296 11.0643 4.08455C11.2469 4.08386 11.4298 4.08626 11.6124 4.08249C12.0132 2.95266 12.4191 1.82421 12.8212 0.694726C12.6414 0.699532 12.4581 0.68477 12.2797 0.701592Z" fill="#F4F4F4"/>
<path d="M15.349 0.179688L15.3497 0.661005L15.2825 0.659289L15.2829 0.462917L14.1525 0.45811V0.393568H15.2819L15.2829 0.179688H15.349Z" fill="#F4F4F4"/>
<path d="M10.2618 0.188705L10.8509 0.187332L9.2663 4.58753L8.66101 4.58856L10.2618 0.188705Z" fill="#F4F4F4"/>
<path d="M14.1534 0.769253C14.5419 0.762044 14.9629 0.770283 15.352 0.769253C15.3513 0.897958 15.3873 1.12183 15.2452 1.17607C15.1294 1.19804 15.0037 1.18809 14.8858 1.185C14.8183 1.18637 14.7909 1.14037 14.7447 1.10055C14.7002 1.13968 14.6734 1.18637 14.608 1.18534C14.4669 1.18946 14.2949 1.19221 14.1541 1.185L14.1534 1.12183C14.3114 1.10913 14.4744 1.13041 14.6306 1.10775C14.7313 1.06278 14.7019 0.927518 14.7115 0.838258C14.5258 0.835855 14.3398 0.840661 14.1541 0.834138L14.1534 0.769253ZM14.7786 0.835855L14.7776 0.853364C14.7793 0.953266 14.7461 1.05214 14.855 1.10638C14.9728 1.11668 15.1098 1.11737 15.2277 1.10501C15.3102 1.04939 15.275 0.925802 15.2839 0.837915C15.1153 0.836542 14.9471 0.838945 14.7786 0.835855Z" fill="#F4F4F4"/>
<path d="M14.1593 1.32491C14.5056 1.38086 14.8492 1.44953 15.1948 1.50858C15.2558 1.52299 15.3188 1.52196 15.3661 1.56625V1.59715C15.239 1.6483 15.0907 1.65688 14.9557 1.68572C14.6961 1.73859 14.4344 1.77464 14.1761 1.83334C14.1744 1.80897 14.1727 1.78425 14.1713 1.75988C14.2528 1.74408 14.3347 1.73104 14.4166 1.71868C14.4179 1.6253 14.4183 1.53226 14.4183 1.43923C14.3655 1.42984 14.2801 1.41358 14.162 1.39043L14.1593 1.32491ZM14.4905 1.45296C14.4909 1.53604 14.4912 1.61912 14.4916 1.7022C14.7259 1.65517 14.9643 1.62839 15.1969 1.5738C14.9609 1.5357 14.7266 1.48969 14.4905 1.45296Z" fill="#F4F4F4"/>
<path d="M13.6322 1.85643C13.6333 2.771 13.6364 3.68626 13.6305 4.60083H13.6288C13.288 4.5744 12.9437 4.60049 12.6025 4.58641C12.9297 3.72025 13.2537 2.85237 13.5785 1.98483C13.5956 1.94157 13.6134 1.899 13.6322 1.85643Z" fill="#F4F4F4"/>
<path d="M14.1782 1.96938C14.5287 1.9656 14.8791 1.96903 15.2292 1.96732C15.2809 1.97693 15.3895 1.94088 15.3508 2.03426C15.14 2.11208 14.8196 2.21804 14.3896 2.35216H15.3662V2.41327C14.9644 2.42083 14.5612 2.41774 14.1591 2.41499C14.17 2.31131 14.2594 2.32642 14.3358 2.29243C14.5958 2.20729 14.8599 2.13073 15.1175 2.03804C14.7989 2.02396 14.479 2.03975 14.1601 2.03495L14.1782 1.96938Z" fill="#F4F4F4"/>
<path d="M14.5946 2.58532C14.5925 2.60901 14.5905 2.63304 14.5884 2.65707C14.4887 2.65776 14.3843 2.64815 14.286 2.66462C14.2089 2.70822 14.2068 2.89121 14.286 2.93206C14.3846 2.9482 14.4976 2.94579 14.597 2.93412C14.7241 2.85928 14.7809 2.66977 14.9128 2.60077C15.0111 2.57468 15.1238 2.58463 15.2249 2.5891C15.316 2.5994 15.3496 2.66462 15.366 2.74633V2.84898C15.3568 2.90453 15.3445 2.93412 15.3109 2.96777C15.2266 3.0402 15.0701 3.00484 14.9659 3.01034C14.9669 2.98733 14.9676 2.96433 14.9683 2.94133C15.0608 2.93206 15.2187 2.97189 15.2797 2.8888C15.2883 2.81808 15.3102 2.70891 15.2355 2.66703C15.1516 2.64952 15.032 2.64883 14.9484 2.66874C14.8265 2.74702 14.7679 2.94751 14.6309 3.00347C14.5254 3.02441 14.4106 3.01755 14.3038 3.01137C14.2342 3.00587 14.1794 2.95335 14.1691 2.88469C14.1561 2.78616 14.1482 2.64334 14.2585 2.59665C14.3647 2.56953 14.4853 2.58532 14.5946 2.58532Z" fill="#F4F4F4"/>
<path d="M14.1659 3.17365C14.6957 3.17525 15.0909 3.17525 15.3515 3.17365C15.3511 3.28831 15.3511 3.40332 15.3515 3.51798H15.2816C15.2819 3.42804 15.2823 3.33706 15.2816 3.24711C15.124 3.24814 14.9661 3.24814 14.8085 3.24711C14.8083 3.30639 14.8075 3.39542 14.8061 3.51421H14.7359C14.737 3.39382 14.737 3.30456 14.7359 3.24643C14.6092 3.24803 14.4192 3.24814 14.1659 3.24677V3.17365Z" fill="#F4F4F4"/>
<path d="M14.1747 3.65823C14.6981 3.65732 15.0906 3.65663 15.352 3.65617C15.3513 3.73262 15.3509 3.84728 15.3507 4.00017L15.2821 3.9988V3.72346C15.0714 3.72392 14.9132 3.72392 14.8077 3.72346C14.8081 3.8141 14.8077 3.90439 14.8063 3.99502H14.7378C14.7382 3.90576 14.7378 3.81272 14.7378 3.72346C14.6271 3.72369 14.4607 3.72369 14.2387 3.72346V4.00017H14.1747V3.65823Z" fill="#F4F4F4"/>
<path d="M14.172 4.16003C14.5649 4.15969 14.9578 4.15969 15.3504 4.16003C15.3497 4.26096 15.3593 4.36636 15.3422 4.46592C15.3257 4.51467 15.3028 4.56171 15.2339 4.58423C15.1041 4.58458 14.9772 4.58745 14.8461 4.58093C14.7949 4.55896 14.7681 4.53201 14.7437 4.48789C14.7136 4.52051 14.6841 4.55312 14.6499 4.58127C14.4834 4.58711 14.349 4.58711 14.1823 4.58711V4.51261C14.3241 4.50025 14.4714 4.52222 14.6122 4.50162C14.7362 4.47347 14.7006 4.32619 14.7115 4.23247C14.5317 4.23075 14.3518 4.23213 14.172 4.2311V4.16003ZM14.7749 4.2311C14.7793 4.30559 14.7584 4.41202 14.8115 4.47038C14.8715 4.51948 14.9495 4.5078 15.0236 4.5078C15.1073 4.5078 15.2387 4.52286 15.264 4.46489C15.2774 4.43167 15.2816 4.3542 15.2765 4.23247C15.0551 4.23201 14.8879 4.23155 14.7749 4.2311Z" fill="#F4F4F4"/>
<path d="M6.63942 6.32428C6.63942 6.15212 6.58514 6.07044 6.4585 6.05231C6.43136 6.05231 6.40423 6.05231 6.37709 6.06146C6.359 6.07044 6.34091 6.07959 6.32281 6.08857V6.57821C6.33186 6.57821 6.34091 6.58718 6.359 6.58718C6.37709 6.59625 6.39518 6.59625 6.42232 6.59625C6.49468 6.59625 6.54896 6.56905 6.58514 6.52372C6.62133 6.46942 6.63942 6.40587 6.63942 6.32428ZM6.92888 6.11577C6.94697 6.17923 6.95602 6.25175 6.98316 6.35157C6.98316 6.43307 6.97411 6.50559 6.94697 6.56905C6.91984 6.63251 6.88365 6.69606 6.83842 6.74139C6.78415 6.78672 6.72987 6.82289 6.66655 6.85018C6.60323 6.86822 6.52182 6.88635 6.44041 6.88635C6.40423 6.88635 6.36804 6.88635 6.33186 6.87738C6.29568 6.86822 6.25949 6.86822 6.22331 6.85916C6.17808 6.85916 6.15095 6.85018 6.11476 6.84103C6.07858 6.83205 6.05144 6.82289 6.0243 6.81383L6.01526 6.80485V5.39051L6.32281 5.34518V5.83482C6.34995 5.82566 6.37709 5.8166 6.40423 5.80762C6.44041 5.80762 6.47659 5.79846 6.51278 5.79846C6.58514 5.79846 6.64846 5.80762 6.70274 5.83482C6.74797 5.86192 6.79319 5.88912 6.83842 5.94361C6.88365 5.99791 6.91079 6.05231 6.92888 6.11577ZM7.67067 5.82566L7.98727 5.83482L7.97823 5.85295C7.91491 6.03426 7.86063 6.21558 7.79731 6.38774C7.73399 6.55092 7.67067 6.7142 7.5983 6.87738C7.57117 6.93168 7.54403 6.98617 7.51689 7.02234C7.48975 7.05869 7.46262 7.09487 7.42643 7.12215C7.39025 7.1402 7.36311 7.15833 7.31789 7.17646C7.27266 7.18552 7.22743 7.19468 7.17315 7.19468C7.12792 7.19468 7.09174 7.18552 7.04651 7.17646C7.00128 7.16748 6.97415 7.15833 6.94701 7.14935L6.93796 7.1402L6.99224 6.88635L7.01033 6.89551C7.03747 6.90449 7.0646 6.90449 7.0827 6.91355C7.10079 6.92271 7.11888 6.92271 7.14602 6.92271C7.20029 6.92271 7.22743 6.91355 7.25457 6.88635C7.2817 6.85916 7.29979 6.83205 7.31789 6.78672C7.25457 6.66887 7.19124 6.52372 7.12792 6.36961C7.0646 6.21558 7.00128 6.04324 6.94701 5.84379L6.93796 5.82566H7.27266L7.2817 5.83482C7.29075 5.88912 7.30884 5.94361 7.32693 5.99791C7.34502 6.05231 7.36311 6.11577 7.38121 6.17025C7.3993 6.23362 7.41739 6.28811 7.43548 6.34241C7.45357 6.38774 7.46262 6.42409 7.48071 6.46026C7.48975 6.41494 7.4988 6.37876 7.51689 6.34241C7.53498 6.28811 7.55308 6.22455 7.57117 6.17025C7.58021 6.11577 7.5983 6.05231 7.6164 5.99791C7.63449 5.93445 7.64353 5.88015 7.66162 5.83482L7.67067 5.82566ZM8.39433 5.68065C8.39433 5.36334 8.6838 5.14577 9.00944 5.15483C9.18131 5.15483 9.25368 5.15483 9.43459 5.19109C9.55219 5.21829 9.58837 5.23642 9.65169 5.25456V5.63532C9.61551 5.62625 9.57028 5.60812 9.52505 5.58999C9.38032 5.54466 9.0999 5.4812 8.95517 5.54466C8.84662 5.58092 8.84662 5.70784 8.94612 5.75317C9.02754 5.7985 9.58837 5.75317 9.68788 6.18833C9.77833 6.58722 9.42555 6.85013 9.03658 6.85013C8.89185 6.85013 8.53002 6.84106 8.42147 6.78667V6.38777C8.45765 6.39684 8.49383 6.41497 8.53002 6.42404C8.67475 6.46937 8.80139 6.4875 8.94612 6.4875C9.23559 6.4875 9.24463 6.26992 9.11799 6.22459C9.01849 6.18833 8.39433 6.21552 8.39433 5.68065ZM9.81449 5.23639C9.88686 5.23639 10.1854 5.14573 10.2758 5.14573V6.01613C10.3301 5.9708 10.502 5.68061 10.5201 5.58995H11.0447C11.0357 5.6535 10.9362 5.86192 10.9 5.91632C10.701 6.30624 10.6648 6.06146 10.8819 6.51475L10.9904 6.75952C10.9995 6.78672 11.0085 6.82289 11.0176 6.84103H10.4567C10.4567 6.77757 10.4025 6.62354 10.3844 6.57821C10.3663 6.53288 10.3482 6.49653 10.3301 6.46026L10.2849 6.37876C10.2758 6.36054 10.2849 6.36961 10.2758 6.35157V6.83205H9.81449V5.23639ZM12.5734 5.22736C12.6639 5.21829 12.9353 5.14577 13.0167 5.14577V6.832H12.5734V5.22736ZM13.2067 5.22736C13.261 5.22736 13.5957 5.14577 13.6498 5.14577V6.832H13.2067V5.22736ZM11.09 6.1249C11.09 5.9163 11.1804 5.77134 11.298 5.69881C11.4427 5.60816 11.5332 5.60816 11.6689 5.59002C11.8046 5.58096 11.7322 5.59002 11.8136 5.59002V5.96163C11.5694 5.96163 11.5332 6.05229 11.5332 6.30622V6.84101H11.09V6.1249ZM11.9493 6.832V5.59896H12.3925V6.832H11.9493ZM11.9584 5.25454C11.9584 5.09135 12.1845 4.9735 12.3202 5.11855C12.5282 5.32706 12.2207 5.62632 12.0217 5.42679C11.9674 5.37239 11.9584 5.32706 11.9584 5.25454Z" fill="#F4F4F4"/>
</g>
<defs>
<clipPath id="clip0_1_3555">
<rect width="15.1668" height="7.18429" fill="white" transform="translate(0.589966 0.100998)"/>
</clipPath>
</defs>
</svg>
