<svg width="22" height="8" viewBox="0 0 22 8" fill="none" xmlns="http://www.w3.org/2000/svg">
<g clip-path="url(#clip0_1_3540)">
<path fill-rule="evenodd" clip-rule="evenodd" d="M0.00244141 2.70586C0.00244141 4.8293 2.5303 4.72313 2.92194 4.86469C3.42039 5.04164 3.38478 5.92641 2.24547 5.92641C1.64021 5.92641 1.14176 5.85563 0.572099 5.67867C0.429684 5.64328 0.28727 5.5725 0.144856 5.53711V7.12969C0.572099 7.34203 2.03185 7.37742 2.63711 7.37742C4.20367 7.37742 5.62781 6.3157 5.23617 4.72313C4.84453 2.98899 2.5659 3.16594 2.24547 2.98899C1.85383 2.81204 1.85383 2.31657 2.28107 2.13961C2.85073 1.89188 3.99004 2.13961 4.5597 2.31657C4.73772 2.38735 4.91574 2.45813 5.05815 2.49352V0.971724C4.80893 0.900943 4.66651 0.830162 4.16806 0.72399C3.45599 0.582428 3.17116 0.582428 2.45909 0.582428C1.17736 0.582428 0.00244141 1.4318 0.00244141 2.70586Z" fill="#F4F4F4"/>
<path fill-rule="evenodd" clip-rule="evenodd" d="M5.73486 0.936334V7.30664H7.58625V5.39555C7.62185 5.46633 7.58625 5.43094 7.62185 5.50172L7.79987 5.82024C7.87108 5.9618 7.94229 6.10336 8.01349 6.28031C8.0847 6.45727 8.29832 7.0943 8.29832 7.30664H10.5413C10.5057 7.23586 10.4701 7.0943 10.4345 6.98812L10.0073 6.03258C9.1172 4.22766 9.29522 5.1832 10.0785 3.66141C10.2209 3.44907 10.6126 2.63508 10.6482 2.35196H8.54755C8.47634 2.70586 7.79987 3.87375 7.58625 4.05071V0.582428C7.23021 0.582428 6.01969 0.936334 5.73486 0.936334Z" fill="#F4F4F4"/>
<path fill-rule="evenodd" clip-rule="evenodd" d="M16.8075 0.900943V7.30664H18.5877V0.582428C18.3028 0.582428 17.1991 0.865553 16.8075 0.900943Z" fill="#F4F4F4"/>
<path fill-rule="evenodd" clip-rule="evenodd" d="M19.3708 0.900943V7.30664H21.151V0.582428C20.9374 0.582428 19.5845 0.900943 19.3708 0.900943Z" fill="#F4F4F4"/>
<path fill-rule="evenodd" clip-rule="evenodd" d="M10.8617 4.47534V7.30658H12.6419V5.18315C12.6419 4.19221 12.7843 3.80292 13.7812 3.80292V2.31651C13.4608 2.31651 13.7456 2.28112 13.2115 2.31651C12.6775 2.38729 12.2858 2.38729 11.7162 2.7412C11.2177 3.05971 10.8617 3.66135 10.8617 4.47534Z" fill="#F4F4F4"/>
<path fill-rule="evenodd" clip-rule="evenodd" d="M14.3153 7.30647H16.0955V2.38718H14.3153V7.30647Z" fill="#F4F4F4"/>
<path fill-rule="evenodd" clip-rule="evenodd" d="M14.3508 1.00706C14.3508 1.29019 14.3864 1.46714 14.6001 1.67949C15.3833 2.45808 16.6295 1.29019 15.8106 0.440815C15.2765 -0.125435 14.3508 0.370033 14.3508 1.00706Z" fill="#F4F4F4"/>
</g>
<defs>
<clipPath id="clip0_1_3540">
<rect width="21.1537" height="7.18429" fill="white" transform="translate(0 0.193069)"/>
</clipPath>
</defs>
</svg>
