<svg width="47" height="8" viewBox="0 0 47 8" fill="none" xmlns="http://www.w3.org/2000/svg">
<g clip-path="url(#clip0_1_3638)">
<path d="M12.4685 0.102188C10.0832 0.102188 8.2725 1.88812 8.2725 4.01628C8.2725 5.94164 9.75824 7.28394 11.7817 7.28394C14.1671 7.28394 15.965 5.44731 15.965 3.31915C15.9777 1.38111 14.492 0.102188 12.4685 0.102188ZM11.9321 5.47266C11.0197 5.47266 10.3826 4.86425 10.3826 3.92629C10.3826 2.88819 11.1701 1.9008 12.3067 1.9008C13.2178 1.9008 13.8549 2.53456 13.8549 3.47252C13.8676 4.52329 13.0687 5.47266 11.9308 5.47266H11.9321ZM26.8176 0.102188C24.4322 0.102188 22.6343 1.88812 22.6343 4.01628C22.6343 5.94164 24.12 7.28394 26.1435 7.28394C28.5288 7.28394 30.328 5.44731 30.328 3.31915C30.3408 1.38111 28.8538 0.102188 26.8176 0.102188ZM26.2938 5.47266C25.3815 5.47266 24.7457 4.86425 24.7457 3.92629C24.7457 2.88819 25.5319 1.9008 26.6685 1.9008C27.5795 1.9008 28.2167 2.53456 28.2167 3.47252C28.2167 4.52329 27.4305 5.47266 26.2926 5.47266H26.2938ZM37.3465 2.36978C37.3465 1.07691 36.3602 0.253024 34.561 0.253024H32.0381L30.9269 7.13184H33.0498L33.4002 4.96565H33.4996L34.6235 7.13311H37.0585L35.4976 4.72483C36.6597 4.31922 37.3452 3.4459 37.3452 2.36978H37.3465ZM33.9494 3.51054H33.6372L33.8742 2.06557H34.1622C34.8235 2.06557 35.1726 2.26838 35.1726 2.71201C35.1726 3.23169 34.6731 3.51054 33.9494 3.51054ZM5.83745 3.00227C5.02577 2.58399 4.84993 2.48259 4.84993 2.25443C4.84993 1.97558 5.17486 1.83615 5.61191 1.83615C6.12415 1.83615 6.89888 1.89953 7.66087 2.63469C7.84818 2.03896 8.16036 1.50787 8.5592 1.03888C7.4863 0.417801 6.48603 0.100922 5.57496 0.100922C3.76429 0.100922 2.7156 1.08958 2.7156 2.28105C2.7156 3.30774 3.47632 3.83883 4.37592 4.30781C5.1876 4.72609 5.38765 4.86552 5.38765 5.11902C5.38765 5.39788 5.04998 5.54998 4.60018 5.54998C3.82673 5.54998 2.92713 5.05565 2.39068 4.54864L2.07849 6.46133C2.62641 6.86693 3.42662 7.28521 4.63841 7.28521C6.51152 7.28521 7.52325 6.3219 7.52325 5.09241C7.52325 4.07839 6.8734 3.53463 5.83745 3.00227ZM21.5728 3.26845H19.0754L19.2754 2.06431H21.9475C22.3021 1.34091 22.8346 0.718314 23.4957 0.25429H19.1251C18.1516 0.25429 17.3271 0.926076 17.1882 1.83742L16.3409 7.14452H18.4637L18.8129 4.97833H21.3358L21.5232 3.80081C21.5359 3.61068 21.5486 3.4459 21.5741 3.26845H21.5728ZM37.3962 0.25429C37.9696 0.697922 38.32 1.31901 38.3952 2.06557H40.1689L39.3572 7.13184H41.4801L42.2917 2.06557H44.2655L44.5522 0.253024H37.3962V0.25429Z" fill="#EDEDED"/>
</g>
<defs>
<clipPath id="clip0_1_3638">
<rect width="45.7001" height="7.18429" fill="white" transform="translate(0.681396 0.100998)"/>
</clipPath>
</defs>
</svg>
