<svg width="22" height="8" viewBox="0 0 22 8" fill="none" xmlns="http://www.w3.org/2000/svg">
<g clip-path="url(#clip0_1_3767)">
<path d="M8.92557 3.13675H8.56592V5.48769H8.92557V3.13675Z" fill="#F4F4F4"/>
<path d="M10.5366 2.14087H7.6051V2.50092H10.5366V2.14087Z" fill="#F4F4F4"/>
<path d="M9.57511 3.13675H9.21545V5.48769H9.57511V3.13675Z" fill="#F4F4F4"/>
<path d="M19.5111 5.4899H19.874V4.07398L19.5111 3.67012V5.4899Z" fill="#F4F4F4"/>
<path d="M21.4219 2.14074V4.76578L18.855 1.90962V5.48996H19.2171V2.8641L21.7857 5.72107V2.14074H21.4219Z" fill="#F4F4F4"/>
<path d="M16.5049 2.1393C15.5823 2.1393 14.8322 2.89024 14.8322 3.81392C14.8322 4.73758 15.5823 5.48851 16.5049 5.48851C17.4275 5.48851 18.1776 4.73758 18.1776 3.81392C18.1776 2.89105 17.4275 2.1393 16.5049 2.1393ZM16.5049 5.12764C15.7815 5.12764 15.1926 4.53889 15.1926 3.81392C15.1926 3.08892 15.7807 2.50017 16.5049 2.50017C17.2282 2.50017 17.8171 3.08892 17.8171 3.81392C17.8171 4.53809 17.2282 5.12764 16.5049 5.12764Z" fill="#F4F4F4"/>
<path d="M16.5051 3.57292C16.3723 3.57292 16.2645 3.68077 16.2645 3.81378C16.2645 3.94676 16.3723 4.05461 16.5051 4.05461C16.6379 4.05461 16.7457 3.94676 16.7457 3.81378C16.7457 3.68077 16.6379 3.57292 16.5051 3.57292Z" fill="#F4F4F4"/>
<path d="M14.203 3.16832C14.203 2.60228 13.7462 2.14166 13.1848 2.14166H11.2715V5.49088H11.6287V2.50497H13.1848C13.5453 2.50497 13.8385 2.8026 13.8385 3.16832C13.8385 3.53244 13.5493 3.82843 13.1921 3.83249L11.9228 3.83169V5.49088H12.28V4.19499H13.1167L13.8004 5.49006H14.216L13.5023 4.1439C13.9146 4.00684 14.203 3.60786 14.203 3.16832Z" fill="#F4F4F4"/>
<path d="M5.13212 1.47749L0.257324 0.579773L2.82271 7.04141L6.3966 2.68174L5.13212 1.47749ZM5.05437 1.87323L5.8004 2.58282L3.76074 2.95261L5.05437 1.87323ZM3.31765 2.87881L1.16781 1.09391L4.68093 1.74105L3.31765 2.87881ZM3.16375 3.19508L2.81381 6.09584L0.923985 1.33395L3.16375 3.19508ZM3.48776 3.34834L5.74614 2.93882L3.15644 6.09827L3.48776 3.34834Z" fill="#F4F4F4"/>
</g>
<defs>
<clipPath id="clip0_1_3767">
<rect width="21.952" height="7.18429" fill="white" transform="translate(0.0313721 0.100998)"/>
</clipPath>
</defs>
</svg>
