<svg width="20" height="8" viewBox="0 0 20 8" fill="none" xmlns="http://www.w3.org/2000/svg">
<g clip-path="url(#clip0_1_3753)">
<path fill-rule="evenodd" clip-rule="evenodd" d="M6.93767 3.67472C6.93767 1.73348 5.43674 0.162399 3.58218 0.162399C1.73548 0.162399 0.226685 1.73348 0.226685 3.67472C0.226685 5.61596 1.72762 7.18704 3.58218 7.18704C5.43674 7.18704 6.93767 5.61596 6.93767 3.67472ZM3.99856 2.68726V3.20547L4.01427 3.1808C4.93369 3.24661 5.63308 3.41934 5.63308 3.64965C5.63308 3.87998 4.94155 4.07739 4.01427 4.11851V5.82121H3.18915V4.1432C2.26186 4.09383 1.56248 3.90465 1.56248 3.67433C1.56248 3.44402 2.26186 3.25483 3.18129 3.20547V2.68726H2.03398V1.88117H5.14586V2.68726H3.99856ZM3.60563 3.98691H4.01427C4.83154 3.93755 5.44448 3.79771 5.44448 3.61676C5.44448 3.4358 4.83154 3.28774 4.02213 3.24661V3.83885H3.6135H3.18915V3.25483C2.37188 3.29596 1.75894 3.45224 1.75894 3.62498C1.75894 3.79771 2.37188 3.94577 3.18915 3.98691H3.60563Z" fill="#F4F4F4"/>
<path d="M10.1137 0.570541H9.6057V2.00005C9.6057 2.43277 9.37785 2.71481 9.03794 2.71481C8.67935 2.71481 8.44403 2.43277 8.44403 2.00005V0.570541H7.93604V2.00005C7.93604 2.7264 8.3768 3.21707 9.03794 3.21707C9.68414 3.21707 10.1137 2.7264 10.1137 2.00005V0.570541Z" fill="#F4F4F4"/>
<path d="M11.5331 0.512589C10.9467 0.512589 10.5806 0.837127 10.5806 1.30075C10.5806 1.80688 10.9392 1.97687 11.238 2.04255L11.7685 2.14687C11.9926 2.19323 12.0598 2.28209 12.0598 2.42891C12.0598 2.61436 11.9067 2.75731 11.6153 2.75731C11.3314 2.75731 11.1223 2.62981 11.055 2.33618L10.5209 2.44823C10.5844 2.96594 11.0438 3.21707 11.5667 3.21707C12.1607 3.21707 12.5603 2.90413 12.5603 2.40186C12.5603 2.00005 12.3101 1.74892 11.9029 1.66006L11.365 1.54802C11.1708 1.50938 11.1148 1.41666 11.1148 1.2853C11.1148 1.11144 11.2679 0.964624 11.5219 0.964624C11.7722 0.964624 11.9776 1.12303 12.015 1.36643L12.523 1.25825C12.4259 0.798491 12.0411 0.512589 11.5331 0.512589Z" fill="#F4F4F4"/>
<path d="M13.0085 0.570541V3.15912H13.9312C14.7567 3.15912 15.3057 2.63754 15.3057 1.86483C15.3057 1.09212 14.7567 0.570541 13.9312 0.570541H13.0085ZM13.5165 2.6839V1.04576H13.9312C14.4504 1.04576 14.794 1.36257 14.794 1.86483C14.794 2.36709 14.4504 2.6839 13.9312 2.6839H13.5165Z" fill="#F4F4F4"/>
<path d="M17.7036 1.04576V0.570541H15.5298V1.04576H16.3628V3.15912H16.8708V1.04576H17.7036Z" fill="#F4F4F4"/>
<path d="M9.85963 6.03211H8.46637V5.44485H9.74383V4.97736H8.46637V4.39396H9.85216V3.91875H7.95837V6.50733H9.85963V6.03211Z" fill="#F4F4F4"/>
<path d="M12.5453 6.50733L11.7049 5.5453C12.1419 5.47962 12.422 5.17054 12.422 4.73782C12.422 4.24715 12.0634 3.91875 11.5256 3.91875H10.3265V6.50733H10.8345V5.55689H11.0997L11.9252 6.50733H12.5453ZM10.8345 5.08168V4.39396H11.5256C11.7609 4.39396 11.9178 4.53305 11.9178 4.73782C11.9178 4.94259 11.7609 5.08168 11.5256 5.08168H10.8345Z" fill="#F4F4F4"/>
<path d="M14.0471 6.07462C13.5989 6.07462 13.244 5.70372 13.244 5.21305C13.244 4.72238 13.5989 4.35534 14.0471 4.35534C14.3945 4.35534 14.6933 4.55238 14.7867 5.00056L15.2798 4.85761C15.1528 4.23557 14.6485 3.86081 14.0471 3.86081C13.3113 3.86081 12.7323 4.4558 12.7323 5.21305C12.7323 5.97417 13.3113 6.56529 14.0471 6.56529C14.6485 6.56529 15.1565 6.19439 15.2798 5.52986L14.7867 5.42555C14.6933 5.87758 14.3945 6.07462 14.0471 6.07462Z" fill="#F4F4F4"/>
<path d="M17.2517 6.03212H16.3068L16.6914 5.64191C17.0576 5.27101 17.2368 5.0276 17.2368 4.66829C17.2368 4.18921 16.8895 3.86081 16.3852 3.86081C15.8773 3.86081 15.5261 4.17762 15.5037 4.68761L15.9668 4.78806C15.9893 4.45966 16.1349 4.31284 16.3777 4.31284C16.5944 4.31284 16.7475 4.46352 16.7475 4.67988C16.7475 4.96965 16.5457 5.14351 16.3926 5.30191L15.5485 6.16735V6.50734H17.2517V6.03212Z" fill="#F4F4F4"/>
<path d="M18.6266 3.86081C17.984 3.86081 17.5508 4.40943 17.5508 5.21305C17.5508 6.02053 17.984 6.56529 18.6266 6.56529C19.269 6.56529 19.7023 6.02053 19.7023 5.21305C19.7023 4.40943 19.269 3.86081 18.6266 3.86081ZM18.6266 6.08235C18.2829 6.08235 18.0663 5.7269 18.0663 5.21305C18.0663 4.6992 18.2829 4.34375 18.6266 4.34375C18.9702 4.34375 19.1869 4.6992 19.1869 5.21305C19.1869 5.7269 18.9702 6.08235 18.6266 6.08235Z" fill="#F4F4F4"/>
</g>
<defs>
<clipPath id="clip0_1_3753">
<rect width="19.7568" height="7.18429" fill="white" transform="translate(0.215576 0.0826721)"/>
</clipPath>
</defs>
</svg>
