<svg width="36" height="8" viewBox="0 0 36 8" fill="none" xmlns="http://www.w3.org/2000/svg">
<g clip-path="url(#clip0_1_3577)">
<path d="M33.0799 5.34448C33.0954 5.30132 33.1131 5.25548 33.1333 5.20697C33.2205 4.99675 33.3303 4.77327 33.4629 4.53606C33.5954 4.29901 33.7149 4.09283 33.8213 3.91752C33.9278 3.74233 34.0249 3.58581 34.1134 3.4484L33.9989 3.46334C33.9203 3.47124 33.8378 3.4798 33.7506 3.4887C33.6634 3.49772 33.6106 3.50223 33.5923 3.50223H33.5653C33.5072 3.50223 33.4511 3.49069 33.3968 3.46772C33.3428 3.44488 33.3154 3.40751 33.3154 3.35567C33.3154 3.33986 33.33 3.31587 33.3592 3.28401C33.3881 3.25227 33.4058 3.22728 33.412 3.20933C33.4259 3.16555 33.4784 3.11673 33.5699 3.06289C33.6612 3.00918 33.7341 2.98031 33.7881 2.97629L34.1767 2.95837L34.4473 2.94642C34.4554 2.93438 34.4861 2.8901 34.5392 2.81327C34.5926 2.73673 34.6295 2.68389 34.6506 2.65504C34.6717 2.62617 34.7028 2.58525 34.7441 2.53257C34.785 2.47973 34.8238 2.43343 34.8598 2.39351C34.88 2.36765 34.8949 2.35122 34.9048 2.34431C34.9151 2.33728 34.9352 2.33376 34.9653 2.33376C34.9812 2.33376 35.0048 2.33077 35.0358 2.32486C35.0668 2.31883 35.0907 2.31584 35.1066 2.31584C35.1348 2.31584 35.1587 2.32085 35.1789 2.33077C35.1991 2.34079 35.2161 2.34568 35.2304 2.34568C35.2481 2.34568 35.2642 2.35473 35.2782 2.37269C35.2925 2.39061 35.2993 2.40844 35.2993 2.4264C35.2993 2.44043 35.2782 2.48222 35.236 2.55189C35.1938 2.62165 35.1444 2.70085 35.087 2.78956C35.0299 2.87815 34.9992 2.92648 34.9951 2.93438C35.1519 2.92246 35.2512 2.91646 35.2934 2.91646C35.3815 2.91646 35.4368 2.92047 35.4588 2.92837C35.4849 2.93852 35.5135 2.96388 35.5448 3.00467C35.5758 3.04556 35.6004 3.07294 35.6187 3.08685C35.6525 3.11473 35.6696 3.14358 35.6696 3.17345C35.6696 3.22728 35.6441 3.26858 35.5929 3.29745C35.5417 3.32642 35.4871 3.34388 35.4287 3.34976C34.9632 3.39569 34.7062 3.41956 34.6581 3.42142C34.4955 3.66852 34.2683 4.05353 33.9765 4.57648C33.6845 5.0994 33.5293 5.42657 33.5113 5.5581C33.5029 5.61784 33.4989 5.65674 33.4989 5.67454C33.4989 5.73052 33.5113 5.76879 33.5352 5.78964C33.5594 5.81058 33.5963 5.82113 33.6466 5.82113C33.713 5.82113 33.7962 5.78964 33.8964 5.72687C33.997 5.66427 34.0886 5.596 34.1721 5.52219C34.2552 5.44853 34.3325 5.38026 34.4036 5.31766C34.475 5.25477 34.5187 5.2234 34.5346 5.2234C34.587 5.2234 34.6128 5.31299 34.6128 5.49235C34.6128 5.58996 34.5678 5.67755 34.4774 5.75538C34.2748 5.92867 34.1233 6.04725 34.0231 6.11089C33.8462 6.22244 33.6888 6.2783 33.5504 6.2783C33.52 6.2783 33.492 6.27528 33.466 6.26927C33.3055 6.2394 33.1876 6.18106 33.1125 6.09446C33.0687 6.04414 33.0377 5.97712 33.019 5.89344C33.0063 5.90437 32.9942 5.9146 32.9827 5.92419C32.9315 5.9671 32.862 6.01981 32.7735 6.08254C32.6854 6.1453 32.5976 6.1921 32.51 6.22297C32.4228 6.25384 32.3372 6.2693 32.2527 6.2693C32.1243 6.26526 32.0079 6.21846 31.9036 6.12887C31.7991 6.03913 31.747 5.92469 31.747 5.78525C31.747 5.66766 31.7811 5.52726 31.8493 5.36386C31.9176 5.20059 31.9874 5.06054 32.0585 4.94407C32.1298 4.8275 32.2195 4.68956 32.3282 4.53018C32.4284 4.38073 32.4815 4.28713 32.4877 4.24923L32.4815 4.24331C32.4154 4.24923 32.2515 4.37873 31.9896 4.63171C31.7274 4.88473 31.5172 5.09794 31.3588 5.27123C31.1761 5.47252 30.9664 5.72943 30.7294 6.04215C30.6633 6.12785 30.6001 6.17066 30.5398 6.17066C30.5158 6.17066 30.4681 6.15722 30.3969 6.13037C30.3791 6.12365 30.363 6.11727 30.3485 6.11123C30.139 6.22851 29.9459 6.28729 29.7692 6.28729C29.6328 6.28729 29.5072 6.23445 29.3929 6.12878C29.2785 6.02323 29.2212 5.90477 29.2212 5.77327C29.2212 5.68555 29.2765 5.53722 29.3869 5.32802C29.4973 5.11882 29.6076 4.92555 29.718 4.74834C29.8284 4.57104 29.8836 4.4784 29.8836 4.47037C29.8836 4.44856 29.863 4.41567 29.8219 4.37173C29.7807 4.32795 29.7602 4.29506 29.7602 4.27309C29.7602 4.25327 29.8018 4.19894 29.8851 4.11035C29.9683 4.02173 30.0697 3.93401 30.1892 3.84732C30.3085 3.76072 30.4074 3.71741 30.4858 3.71741C30.5338 3.71741 30.583 3.74529 30.6332 3.80099C30.6833 3.85684 30.7084 3.90856 30.7084 3.95635C30.7084 4.00029 30.4696 4.43061 29.9919 5.24733C29.986 5.25925 29.9693 5.28573 29.9423 5.32649C29.9152 5.36741 29.8941 5.4013 29.879 5.42815C29.864 5.45501 29.8464 5.48777 29.8265 5.52679C29.8063 5.56556 29.7913 5.60147 29.7812 5.63433C29.7712 5.66722 29.7662 5.69759 29.7662 5.72544C29.7662 5.79322 29.8175 5.8271 29.9198 5.8271C30.0021 5.8271 30.0928 5.79561 30.1922 5.73297C30.2916 5.67024 30.3768 5.60094 30.4481 5.52517C30.4926 5.47797 30.5355 5.43319 30.5769 5.39097L31.2111 4.32388C31.2272 4.29603 31.2534 4.25072 31.2895 4.18799C31.3256 4.12522 31.3576 4.07152 31.3857 4.02658C31.4139 3.98178 31.4439 3.93949 31.4761 3.8996C31.5664 3.78602 31.719 3.72929 31.9337 3.72929C31.9818 3.72929 32.006 3.76806 32.006 3.84589C32.006 3.88768 31.9833 3.95041 31.9382 4.03411C31.8931 4.11769 31.8284 4.22237 31.744 4.34787L31.6176 4.53609C31.7119 4.43257 31.7967 4.34447 31.872 4.27154C31.947 4.199 32.0411 4.11632 32.1534 4.02357C32.2658 3.93109 32.3803 3.8598 32.4967 3.80998C32.6131 3.76016 32.7254 3.73533 32.8337 3.73533C32.9123 3.73533 32.9787 3.76016 33.0339 3.80998C33.0892 3.8598 33.1165 3.92455 33.1165 4.00424C33.1165 4.04603 33.0957 4.10929 33.0535 4.19399C33.0113 4.27869 32.9688 4.35437 32.9256 4.42115C32.8825 4.48789 32.826 4.57197 32.7555 4.67363C32.6854 4.77516 32.645 4.83401 32.6351 4.84994C32.6329 4.85184 32.6196 4.87228 32.5945 4.91121C32.5693 4.94998 32.551 4.97833 32.5386 4.99628C32.5268 5.01424 32.5066 5.0461 32.4787 5.09203C32.4504 5.13771 32.4278 5.17511 32.4107 5.20399C32.3937 5.23296 32.3729 5.26924 32.3477 5.31302C32.3226 5.35696 32.3024 5.39486 32.2875 5.4266C32.2723 5.45846 32.2574 5.49284 32.2422 5.52975C32.2273 5.56653 32.2161 5.59954 32.209 5.62826C32.2022 5.65727 32.1987 5.6826 32.1987 5.70444C32.1987 5.74838 32.2161 5.78124 32.2515 5.8032C32.2863 5.82505 32.3291 5.83597 32.3791 5.83597C32.4433 5.83597 32.5243 5.80408 32.6215 5.74035C32.7189 5.67659 32.8067 5.60642 32.885 5.52975C32.9529 5.46313 33.0178 5.40136 33.0799 5.34448ZM20.0119 5.50554C20.0842 5.51064 20.1204 5.53118 20.1204 5.567C20.1204 5.57113 20.1199 5.57904 20.1189 5.59096C20.1179 5.6029 20.1174 5.61093 20.1174 5.61495C20.1174 5.66477 20.1364 5.70755 20.1745 5.74334C20.2127 5.77921 20.2477 5.79717 20.28 5.79717C20.5208 5.79717 20.7341 5.76126 20.9197 5.6896C21.1053 5.61784 21.1981 5.54618 21.1981 5.47452C21.1981 5.44063 21.1644 5.41126 21.0973 5.3863C21.0299 5.36131 20.9166 5.33057 20.7571 5.29366C20.5974 5.25679 20.4756 5.22642 20.3914 5.20255C20.3312 5.18463 20.28 5.16668 20.2379 5.14872C20.1957 5.1308 20.152 5.10594 20.1068 5.07407C20.0617 5.04218 20.0271 5.00229 20.003 4.95446C19.9788 4.90666 19.9668 4.85093 19.9668 4.78717C19.9668 4.65166 20.0155 4.51976 20.1128 4.39124C20.2102 4.26261 20.3321 4.15254 20.4786 4.06094C20.6251 3.96933 20.7827 3.88864 20.9513 3.819C21.1198 3.74921 21.2779 3.6974 21.4254 3.66351C21.5729 3.62963 21.6948 3.61282 21.7911 3.61282C21.8755 3.61282 21.9472 3.6202 22.0064 3.63513C22.0656 3.65007 22.1092 3.66703 22.1374 3.68598C22.1655 3.70493 22.1871 3.72876 22.202 3.75764C22.2172 3.78661 22.2252 3.80746 22.2262 3.82037C22.2272 3.83344 22.2277 3.84987 22.2277 3.86969V3.89067C22.2277 3.99618 22.2037 4.08091 22.1554 4.14464C22.1133 4.20037 22.0435 4.25221 21.9461 4.30001C21.8488 4.34784 21.758 4.37179 21.6738 4.37179C21.6436 4.37179 21.6211 4.36778 21.6061 4.35975C21.591 4.35185 21.5784 4.34142 21.5684 4.32839C21.5584 4.31544 21.5483 4.30704 21.5383 4.30303C21.5182 4.29512 21.5082 4.27617 21.5082 4.24618C21.5082 4.22835 21.5182 4.20703 21.5383 4.18204C21.5584 4.15721 21.5724 4.13073 21.5804 4.10285C21.448 4.10876 21.3095 4.13913 21.165 4.19396C21.0205 4.24882 20.8966 4.31006 20.7933 4.37771C20.6899 4.44545 20.604 4.5102 20.5359 4.57197C20.4676 4.63371 20.4335 4.67761 20.4335 4.70347C20.4335 4.73537 20.4791 4.7602 20.5705 4.77815C20.6618 4.79611 20.7962 4.82445 20.9738 4.86322C21.1514 4.90225 21.3125 4.95446 21.457 5.02009C21.5432 5.06013 21.6115 5.11785 21.6617 5.19353C21.7119 5.26921 21.7369 5.33798 21.7369 5.39971C21.7369 5.52723 21.6858 5.64768 21.5834 5.76126C21.4811 5.87484 21.3547 5.96797 21.2041 6.04063C21.0536 6.11341 20.8971 6.17063 20.7345 6.21255C20.5719 6.25434 20.4264 6.27528 20.2979 6.27528C20.0993 6.27528 19.9543 6.2389 19.8629 6.16625C19.7754 6.09661 19.7299 6.01822 19.7262 5.93106C19.6911 5.96255 19.6529 5.9951 19.6116 6.02871C19.4149 6.18909 19.2282 6.2693 19.0517 6.2693C18.9432 6.2693 18.8428 6.23691 18.7507 6.17216C18.6583 6.10753 18.6121 6.01141 18.6121 5.88377C18.6121 5.68851 18.6554 5.51332 18.7416 5.35783C18.2438 5.97752 17.8534 6.28723 17.5705 6.28723C17.4581 6.28723 17.3673 6.24746 17.2981 6.16777C17.2572 6.12078 17.2284 6.06997 17.2116 6.01533C17.1834 6.0363 17.1525 6.05871 17.1189 6.08254C17.0306 6.1453 16.9428 6.1921 16.8555 6.22297C16.7684 6.25384 16.6825 6.2693 16.5982 6.2693C16.4698 6.26526 16.3533 6.21846 16.249 6.12887C16.1446 6.03913 16.0924 5.92469 16.0924 5.78525C16.0924 5.66766 16.1265 5.52726 16.1948 5.36386C16.2629 5.20059 16.3328 5.06054 16.404 4.94407C16.4752 4.8275 16.5651 4.68956 16.6735 4.53018C16.7738 4.38073 16.8269 4.28713 16.833 4.24923L16.8269 4.24331C16.7607 4.24923 16.5967 4.37873 16.3347 4.63171C16.0729 4.88473 15.8625 5.09794 15.7041 5.27123C15.5214 5.47252 15.3117 5.72943 15.0749 6.04215C15.0086 6.12785 14.9454 6.17066 14.8851 6.17066C14.8612 6.17066 14.8135 6.15722 14.7423 6.13037C14.6711 6.10351 14.6263 6.08204 14.6083 6.06611C14.5942 6.05821 14.5873 6.04215 14.5873 6.01832C14.5873 6.0125 14.5877 6.0064 14.5885 5.99999C14.2815 6.1875 13.9872 6.28125 13.7052 6.28125C13.6067 6.28125 13.5124 6.27273 13.4221 6.25592C13.3319 6.23884 13.244 6.21099 13.1588 6.17222C13.0735 6.13329 13.0052 6.07607 12.9541 6.00039C12.9029 5.92462 12.8773 5.83513 12.8773 5.73136C12.8773 5.45653 13.0689 5.24833 13.4522 5.1069C13.376 5.07301 13.3268 5.0297 13.3047 4.97686C13.2827 4.92418 13.2717 4.85087 13.2717 4.75727C13.2717 4.61784 13.3263 4.48282 13.4357 4.35241C13.5452 4.2219 13.6791 4.11436 13.8376 4.02951C13.9963 3.94506 14.1607 3.87679 14.3313 3.82498C14.502 3.77314 14.6524 3.74728 14.7829 3.74728C14.8491 3.74728 14.9164 3.76321 14.9845 3.79498C15.0528 3.82697 15.0869 3.87178 15.0869 3.9295C15.0869 4.06103 15.0332 4.1766 14.9259 4.27611C14.8185 4.37575 14.6965 4.4256 14.5601 4.4256C14.516 4.4256 14.4868 4.41517 14.4729 4.3942C14.4587 4.37326 14.4517 4.33887 14.4517 4.29105C14.4517 4.27122 14.4557 4.24537 14.4638 4.21338C14.3916 4.23734 14.3093 4.27611 14.217 4.32994C14.1327 4.37575 14.0262 4.44741 13.8979 4.54505C13.7694 4.6427 13.7052 4.71548 13.7052 4.76328C13.7052 4.77924 13.7252 4.78714 13.7654 4.78714C13.8196 4.78714 13.8957 4.77068 13.9941 4.73782C14.0925 4.70493 14.1668 4.6885 14.217 4.6885C14.2449 4.6885 14.2652 4.69049 14.2772 4.69451C14.3032 4.70845 14.3313 4.73882 14.3614 4.78562C14.3916 4.83242 14.4066 4.86783 14.4066 4.89167C14.4066 4.92166 14.3715 4.96647 14.3013 5.02618C14.2671 5.05406 14.217 5.07952 14.1508 5.10236C14.0845 5.12532 14.0404 5.14265 14.0183 5.1547C13.5947 5.38975 13.383 5.55113 13.383 5.63872C13.383 5.79421 13.5166 5.87191 13.7835 5.87191C13.8658 5.87191 13.9505 5.85847 14.0378 5.83149C14.1251 5.80464 14.2119 5.76434 14.2983 5.71051C14.3845 5.65667 14.4582 5.60798 14.5195 5.56407C14.5807 5.52026 14.6544 5.46353 14.7408 5.39364C14.827 5.324 14.8863 5.27717 14.9184 5.25321C14.9485 5.23339 14.9715 5.22346 14.9876 5.22346C14.9981 5.22346 15.0076 5.2267 15.0161 5.23314L15.5566 4.32388C15.5725 4.29603 15.5988 4.25072 15.6348 4.18799C15.671 4.12522 15.703 4.07152 15.7312 4.02658C15.7592 3.98178 15.7893 3.93949 15.8215 3.8996C15.9118 3.78602 16.0643 3.72929 16.279 3.72929C16.3273 3.72929 16.3513 3.76806 16.3513 3.84589C16.3513 3.88768 16.3287 3.95041 16.2837 4.03411C16.2385 4.11769 16.1737 4.22237 16.0895 4.34787L15.9629 4.53609C16.0572 4.43257 16.1421 4.34447 16.2174 4.27154C16.2926 4.199 16.3864 4.11632 16.4988 4.02357C16.6112 3.93109 16.7256 3.8598 16.8421 3.80998C16.9584 3.76016 17.0708 3.73533 17.1792 3.73533C17.2575 3.73533 17.3241 3.76016 17.3794 3.80998C17.4346 3.8598 17.4622 3.92455 17.4622 4.00424C17.4622 4.04603 17.4411 4.10929 17.399 4.19399C17.3567 4.27869 17.3142 4.35437 17.2711 4.42115C17.2278 4.48789 17.1712 4.57197 17.1009 4.67363C17.0306 4.77516 16.9905 4.83401 16.9805 4.84994C16.9785 4.85184 16.965 4.87228 16.9398 4.91121C16.9148 4.94998 16.8962 4.97833 16.8842 4.99628C16.872 5.01424 16.8521 5.0461 16.824 5.09203C16.7958 5.13771 16.7733 5.17511 16.7562 5.20399C16.7392 5.23296 16.7182 5.26924 16.693 5.31302C16.668 5.35696 16.6477 5.39486 16.6328 5.4266C16.6177 5.45846 16.6026 5.49284 16.5877 5.52975C16.5725 5.56653 16.5615 5.59954 16.5546 5.62826C16.5474 5.65727 16.544 5.6826 16.544 5.70444C16.544 5.74838 16.5615 5.78124 16.5967 5.8032C16.6318 5.82505 16.6744 5.83597 16.7246 5.83597C16.7888 5.83597 16.8695 5.80408 16.9669 5.74035C17.0643 5.67659 17.1521 5.60642 17.2303 5.52975C17.2487 5.51173 17.2669 5.49409 17.2848 5.47679C17.2921 5.45535 17.2996 5.43466 17.3072 5.41468C17.3342 5.34302 17.3743 5.25443 17.4275 5.14875C17.4807 5.04308 17.5203 4.96641 17.5465 4.91861C17.5725 4.87079 17.6141 4.79863 17.6714 4.70201C17.7285 4.60536 17.7572 4.55604 17.7572 4.55405C17.9438 4.22937 18.0612 4.03511 18.1094 3.97138C18.1835 3.87573 18.2548 3.82793 18.3231 3.82793C18.3713 3.82793 18.4174 3.85177 18.4615 3.8996C18.5058 3.94739 18.5278 3.98831 18.5278 4.0222C18.5278 4.04805 18.461 4.18046 18.3277 4.41962C18.1941 4.65857 18.0612 4.90719 17.9288 5.16518C17.7963 5.4232 17.7301 5.58999 17.7301 5.66567C17.7301 5.69554 17.741 5.71048 17.7632 5.71048C17.8595 5.71048 18.0993 5.50327 18.4827 5.08888C18.866 4.67462 19.0908 4.40469 19.157 4.27919C19.2112 4.17153 19.2669 4.07793 19.3241 3.99824C19.3813 3.91855 19.4239 3.86972 19.452 3.85177C19.4801 3.83381 19.5273 3.81499 19.5936 3.79504C19.6597 3.7751 19.7239 3.76417 19.7862 3.76218C19.8082 3.76218 19.8243 3.76318 19.8344 3.76517C19.8484 3.76719 19.8635 3.78412 19.8795 3.81602C19.8956 3.84775 19.9036 3.87274 19.9036 3.89067L19.9006 3.8996C19.8022 4.08894 19.7029 4.26917 19.6025 4.44047C19.5022 4.61189 19.444 4.71343 19.4279 4.74529C19.1911 5.23134 19.0727 5.54808 19.0727 5.69554C19.0727 5.77924 19.1048 5.82116 19.169 5.82116C19.2273 5.81313 19.297 5.78024 19.3783 5.72239C19.4595 5.6648 19.5303 5.60493 19.5905 5.54319C19.6507 5.48142 19.7104 5.41869 19.7697 5.35493C19.8288 5.29118 19.8603 5.25732 19.8645 5.25331C19.8886 5.23535 19.9106 5.2263 19.9307 5.2263C19.9688 5.2263 19.9899 5.24537 19.9939 5.28315C20.0059 5.36085 20.012 5.43061 20.012 5.49235C20.012 5.49686 20.012 5.50125 20.0119 5.50554ZM14.515 2.01407C14.515 2.11759 14.4452 2.29191 14.3058 2.53699C14.1662 2.78209 13.9801 3.05956 13.7473 3.36915C13.5144 3.67901 13.2194 4.01772 12.8622 4.38527C12.5051 4.75273 12.1346 5.08503 11.7514 5.38182C11.4143 5.64473 11.1036 5.84792 10.8197 5.99134C10.5356 6.13479 10.2672 6.20657 10.0143 6.20657C9.85178 6.20657 9.7299 6.15122 9.64861 6.04066C9.56733 5.9301 9.52673 5.80613 9.52673 5.66869C9.52673 5.52527 9.57428 5.34342 9.66972 5.1233C9.76506 4.90318 9.87984 4.68508 10.0143 4.46885C10.1488 4.25274 10.3039 4.02459 10.4795 3.78453C10.6551 3.54458 10.8092 3.34279 10.9416 3.17939C11.0741 3.01612 11.1985 2.86667 11.3149 2.73112C11.2186 2.81094 11.1444 2.87118 11.0921 2.91198C11.0399 2.95289 10.9657 3.00673 10.8694 3.07335C10.773 3.14012 10.6837 3.18945 10.6013 3.22131C10.5192 3.2532 10.4429 3.26914 10.3727 3.26914C10.2723 3.26914 10.1984 3.23376 10.1513 3.16296C10.1041 3.0923 10.0806 3.01211 10.0806 2.92252C10.0806 2.84672 10.1142 2.76766 10.1815 2.68495C10.2486 2.60227 10.3124 2.56085 10.3727 2.56085C10.3946 2.56085 10.4058 2.56888 10.4058 2.58481C10.4058 2.60074 10.3982 2.6192 10.3832 2.64001C10.3681 2.66099 10.3607 2.67555 10.3607 2.68333C10.3607 2.70542 10.3786 2.71634 10.4148 2.71634C10.4469 2.71634 10.488 2.70542 10.5382 2.68333C10.6245 2.64555 10.8026 2.53699 11.0725 2.35766C11.3425 2.17846 11.5407 2.03 11.6671 1.91241C11.7172 1.86863 11.7865 1.84678 11.8748 1.84678C11.9732 1.84678 12.0694 1.86912 12.1639 1.91393C12.258 1.95883 12.3053 2.00401 12.3053 2.04994C12.3053 2.05987 12.3043 2.0669 12.3023 2.07079C12.2962 2.0847 12.2913 2.10717 12.2873 2.13807C12.2832 2.16894 12.2752 2.19339 12.2631 2.21122C12.221 2.279 12.0052 2.58229 11.6159 3.12117C11.2265 3.66006 10.8858 4.15762 10.5939 4.61379C10.3018 5.07009 10.156 5.36878 10.156 5.51033C10.156 5.59992 10.191 5.64473 10.2613 5.64473C10.3576 5.64473 10.5442 5.55763 10.8212 5.38331C11.0982 5.2089 11.3922 4.98237 11.7031 4.70341C11.8657 4.55797 12.0614 4.36772 12.2903 4.13266C12.5191 3.8976 12.7549 3.64161 12.9977 3.36476C13.2405 3.08791 13.4462 2.81987 13.6148 2.56085C13.7835 2.30196 13.8677 2.10567 13.8677 1.97228C13.8677 1.94832 13.8547 1.9364 13.8286 1.9364C13.8145 1.9364 13.7955 1.93988 13.7714 1.94679C13.7473 1.95382 13.7333 1.95722 13.7292 1.95722C13.7071 1.95722 13.6961 1.94041 13.6961 1.90653C13.6961 1.88456 13.7041 1.86962 13.7202 1.86159C13.913 1.75215 14.0975 1.69733 14.2742 1.69733C14.3524 1.69733 14.4122 1.72667 14.4532 1.78542C14.4944 1.84414 14.515 1.92044 14.515 2.01407ZM28.1977 2.70735C28.1977 2.92847 28.12 3.1526 27.9645 3.3796C27.8088 3.60675 27.6143 3.80453 27.3804 3.97281C27.1466 4.14125 26.8872 4.27916 26.6022 4.3867C26.3173 4.49424 26.0503 4.5481 25.8014 4.5481C25.6007 4.5481 25.4382 4.45849 25.3138 4.27916C25.2055 4.44856 25.0925 4.62527 24.975 4.80949C24.8577 4.99385 24.7543 5.15762 24.665 5.30104C24.5757 5.44461 24.4935 5.57552 24.4181 5.69398C24.3429 5.81257 24.2846 5.90567 24.2435 5.97344C24.2024 6.04122 24.1808 6.0761 24.1788 6.078C24.1367 6.12393 24.0915 6.14677 24.0434 6.14677C24.0273 6.14677 24.0032 6.15128 23.9711 6.16018C23.939 6.16923 23.9139 6.17374 23.8959 6.17374C23.8879 6.17374 23.8757 6.17262 23.8597 6.17073C23.8436 6.16874 23.8316 6.16771 23.8237 6.16771H23.7725C23.654 6.16771 23.5948 6.13083 23.5948 6.05715C23.5948 6.04122 23.5978 6.02429 23.6039 6.00634C23.67 5.83504 23.8828 5.47134 24.242 4.91566C24.6013 4.35972 24.956 3.83291 25.3063 3.33482C25.6564 2.83686 25.8707 2.54595 25.949 2.46224C25.9872 2.42248 26.0288 2.39699 26.0739 2.38607C26.119 2.37515 26.1917 2.36964 26.2922 2.36964H26.4427C26.4687 2.36964 26.4818 2.39864 26.4818 2.45636C26.4818 2.4802 26.4768 2.50014 26.4668 2.51608C26.2902 2.76106 25.971 3.24521 25.5094 3.9683C25.5255 4.00032 25.5522 4.02014 25.5892 4.02817C25.6264 4.03607 25.685 4.04009 25.7654 4.04009H25.7954C25.9801 4.04009 26.1797 3.99578 26.3945 3.90706C26.6093 3.81847 26.7979 3.71243 26.9605 3.5888C27.123 3.46533 27.2589 3.33632 27.3684 3.20192C27.4777 3.06737 27.5325 2.95532 27.5325 2.86571C27.5325 2.76408 27.5024 2.67546 27.4422 2.59978C27.3819 2.52413 27.2996 2.46427 27.1953 2.42045C27.091 2.37667 26.9756 2.34428 26.8491 2.32334C26.7227 2.30236 26.5852 2.29197 26.4366 2.29197C26.1537 2.29197 25.806 2.36712 25.3935 2.5176C24.9812 2.66805 24.6806 2.81489 24.4919 2.95834C24.4257 3.00614 24.3926 3.05698 24.3926 3.11069C24.3926 3.13866 24.4047 3.1615 24.4287 3.17946C24.4527 3.19741 24.4849 3.20631 24.5251 3.20631C24.5631 3.20631 24.6124 3.19539 24.6726 3.17342H24.6755C24.6856 3.17342 24.6907 3.19439 24.6907 3.23618C24.6907 3.27607 24.6866 3.30007 24.6785 3.30797C24.4718 3.45341 24.2913 3.52607 24.1367 3.52607C24.0062 3.52607 23.9089 3.48627 23.8448 3.40661C23.7804 3.32692 23.7484 3.22439 23.7484 3.09877C23.7484 2.96724 23.8196 2.82933 23.9621 2.68488C24.1046 2.54044 24.2964 2.40704 24.5371 2.28444C24.7779 2.16193 25.0764 2.06093 25.4327 1.98124C25.7889 1.90155 26.1598 1.86162 26.5451 1.86162C27.0488 1.86162 27.45 1.94785 27.7492 2.12014C28.0482 2.29247 28.1977 2.48823 28.1977 2.70735ZM28.86 4.2851H28.8391C28.7688 4.2851 28.7336 4.23426 28.7336 4.13275C28.5871 4.18055 28.4335 4.26413 28.273 4.38374C28.1123 4.50333 27.9659 4.64777 27.8334 4.81705C27.7111 4.97444 27.6173 5.12629 27.552 5.27272C27.4868 5.41919 27.4532 5.54017 27.4511 5.6358C27.4511 5.74735 27.4923 5.8032 27.5747 5.8032C27.6568 5.8032 27.7793 5.74922 27.9419 5.6418C28.1045 5.53414 28.268 5.37777 28.4326 5.17259C28.5871 4.97945 28.704 4.80952 28.7833 4.66321C28.8626 4.51661 28.9021 4.4106 28.9021 4.34494C28.9021 4.30505 28.8881 4.2851 28.86 4.2851ZM29.4441 4.2014C29.4441 4.32098 29.405 4.46882 29.3267 4.64525C29.2484 4.82147 29.1411 5.00079 29.0045 5.18314C28.868 5.36536 28.718 5.53678 28.5545 5.69703C28.391 5.85741 28.2144 5.98891 28.0247 6.09157C27.835 6.1941 27.6568 6.24544 27.4903 6.24544C27.3477 6.24544 27.2299 6.19699 27.1366 6.1005C27.0433 6.00385 26.9966 5.88678 26.9966 5.74922C26.9966 5.54216 27.0392 5.33396 27.1246 5.12476C27.2098 4.91556 27.3197 4.73085 27.4542 4.57048C27.5886 4.41022 27.7346 4.26678 27.8923 4.14029C28.0498 4.01364 28.2043 3.91652 28.3559 3.84888C28.5073 3.7811 28.6392 3.74722 28.7517 3.74722C28.8078 3.74722 28.8586 3.75577 28.9038 3.7727C28.9489 3.7895 28.9814 3.80746 29.0015 3.82641C29.0216 3.84536 29.0316 3.86179 29.0316 3.87573V3.89368C29.0598 3.88979 29.0938 3.88765 29.134 3.88765C29.2143 3.88765 29.2861 3.91462 29.3493 3.96833C29.4125 4.0222 29.4441 4.09986 29.4441 4.2014ZM31.3376 2.88363C31.3376 2.99721 31.2844 3.11128 31.1781 3.22573C31.0716 3.34042 30.9624 3.39765 30.85 3.39765C30.7315 3.39765 30.6724 3.33881 30.6724 3.22134C30.6724 3.09973 30.7229 2.98479 30.8243 2.8761C30.9256 2.76769 31.0376 2.71336 31.16 2.71336C31.2142 2.71336 31.2573 2.72826 31.2895 2.75813C31.3216 2.78801 31.3376 2.8298 31.3376 2.88363Z" fill="#F4F4F4"/>
<path fill-rule="evenodd" clip-rule="evenodd" d="M4.44487 7.29896C6.37742 7.29896 7.94421 5.7322 7.94421 3.79963C7.94421 1.86707 6.37742 0.300308 4.44487 0.300308C2.51232 0.300308 0.945557 1.86707 0.945557 3.79963C0.945557 5.7322 2.51232 7.29896 4.44487 7.29896ZM4.51402 5.54624V2.06025H5.81098V1.91551H3.081V2.06025H4.37798V5.54624H3.81667V5.69099H5.07531V5.54624H4.51402ZM3.67632 5.80847V5.95319H5.21567V5.80847H3.67632ZM3.68224 3.77196H3.84571L3.28333 2.20513H3.2789L3.13687 2.20346H3.13675L2.56047 3.77157L2.71161 3.77196L3.20681 2.4044L3.68224 3.77196ZM3.83703 3.9095H2.57814C2.69286 4.1425 2.93106 4.30505 3.20818 4.30673C3.48818 4.30827 3.72625 4.14498 3.83703 3.9095ZM6.1654 3.77196H6.32898L5.76647 2.20513H5.76218L5.62015 2.20346H5.61989L5.04374 3.77157L5.19488 3.77196L5.68994 2.4044L6.1654 3.77196ZM6.32019 3.9095H5.06141C5.17616 4.1425 5.41424 4.30505 5.69147 4.30673C5.97145 4.30827 6.20953 4.14498 6.32019 3.9095Z" fill="#F4F4F4"/>
</g>
<defs>
<clipPath id="clip0_1_3577">
<rect width="34.7241" height="7.18429" fill="white" transform="translate(0.945557 0.100998)"/>
</clipPath>
</defs>
</svg>
