<svg width="23" height="8" viewBox="0 0 23 8" fill="none" xmlns="http://www.w3.org/2000/svg">
<g clip-path="url(#clip0_1_3522)">
<path fill-rule="evenodd" clip-rule="evenodd" d="M8.61249 7.29125L9.71389 0.319882H11.4989L10.3975 7.29125H8.61249ZM16.816 0.482006C16.4742 0.360413 15.9425 0.198288 15.2209 0.198288C13.4738 0.198288 12.2585 1.13051 12.2205 2.50857C12.2205 3.48132 13.132 4.04875 13.7777 4.373C14.4993 4.73778 14.7271 4.94044 14.7271 5.26469C14.7271 5.71053 14.1575 5.91319 13.6637 5.91319C12.9421 5.91319 12.5623 5.83213 11.9926 5.54841L11.7268 5.46734L11.4989 7.00753C11.9167 7.21019 12.6763 7.37231 13.4738 7.37231C15.3348 7.37231 16.5501 6.44009 16.5881 5.0215C16.5881 4.21088 16.0944 3.60291 15.069 3.11653C14.4613 2.79228 14.0815 2.58963 14.0815 2.26538C14.0815 1.98166 14.4233 1.65741 15.1069 1.65741C15.6766 1.65741 16.0944 1.779 16.4362 1.9006L16.5881 1.98166L16.816 0.482006ZM21.4115 0.319882H20.0063C19.5885 0.319882 19.2847 0.441475 19.0948 0.887318L16.4362 7.29125H18.2972C18.2972 7.29125 18.601 6.44009 18.677 6.23744H20.9557C21.0317 6.48062 21.1836 7.29125 21.1836 7.29125H22.8167L21.4115 0.319882ZM19.2087 4.81885C19.3606 4.41353 19.8923 2.87335 19.8923 2.87335C19.8923 2.87335 20.0442 2.46804 20.1582 2.18432L20.2721 2.79228C20.2721 2.79228 20.6139 4.45406 20.6899 4.81885H19.2087ZM7.09332 0.319882L5.38425 5.06203L5.19436 4.08928C4.85255 2.99494 3.86509 1.779 2.72571 1.17104L4.32084 7.29125H6.18182L8.99228 0.319882H7.09332Z" fill="#F4F4F4"/>
<path fill-rule="evenodd" clip-rule="evenodd" d="M3.75117 0.319977H0.902725L0.864746 0.482102C3.10552 1.04954 4.58671 2.4276 5.19438 4.08938L4.54873 0.927945C4.47277 0.482102 4.13096 0.319977 3.75117 0.319977Z" fill="#F4F4F4"/>
</g>
<defs>
<clipPath id="clip0_1_3522">
<rect width="21.952" height="7.18429" fill="white" transform="translate(0.864746 0.193069)"/>
</clipPath>
</defs>
</svg>
