<svg width="23" height="8" viewBox="0 0 23 8" fill="none" xmlns="http://www.w3.org/2000/svg">
<g clip-path="url(#clip0_1_3744)">
<path d="M8.89211 3.02533C8.83412 3.00597 8.71171 2.99306 8.58926 2.99306C8.22196 2.99306 7.82888 3.29103 7.82888 3.65886V5.41301H6.99121V2.28321H7.79667V2.59942C7.98354 2.36711 8.32505 2.21867 8.70524 2.21867C8.80032 2.21935 8.89515 2.22799 8.98878 2.2445L8.89211 3.02533Z" fill="#F4F4F4"/>
<path d="M9.83935 0.637802C10.1422 0.637802 10.3871 0.870116 10.3871 1.17342C10.3871 1.47673 10.1422 1.70902 9.83935 1.70902C9.53649 1.70902 9.29163 1.47673 9.29163 1.17342C9.29163 0.870116 9.53651 0.637802 9.83935 0.637802ZM10.2582 5.41315H9.4205V2.28338H10.2582V5.41315Z" fill="#F4F4F4"/>
<path d="M12.7327 2.21851C12.4003 2.2143 12.0767 2.32622 11.8177 2.53502V2.28319H11.0121V6.9616H11.8499V5.19365C12.0881 5.38214 12.384 5.48246 12.6876 5.47765C13.1516 5.47765 13.5961 5.27098 13.8732 4.9483C14.1182 4.66431 14.2661 4.27733 14.2661 3.85132C14.2661 2.92852 13.5831 2.21851 12.7327 2.21851ZM12.6309 4.71599C12.1105 4.71599 11.7685 4.35636 11.7685 3.85408C11.7685 3.35178 12.1105 2.99216 12.6309 2.99216C13.0751 2.99216 13.4352 3.37812 13.4352 3.85408C13.4352 4.33002 13.0751 4.71599 12.6309 4.71599Z" fill="#F4F4F4"/>
<path d="M19.3503 5.41291H18.5126V0.831131H19.3503V5.41291Z" fill="#F4F4F4"/>
<path d="M22.7656 4.9161C22.4626 5.27749 21.9665 5.47753 21.4832 5.47753C20.5488 5.47753 19.8464 4.83224 19.8464 3.85134C19.8464 2.98017 20.4393 2.21867 21.3672 2.21867C22.2307 2.21867 22.8428 2.94788 22.8428 3.81907C22.8434 3.89908 22.8368 3.97896 22.8234 4.05785H20.6584C20.7035 4.49665 21.0579 4.79995 21.5025 4.79995C21.857 4.79995 22.1403 4.59991 22.2886 4.43858L22.7656 4.9161ZM21.9859 3.44479C21.9599 3.1673 21.7087 2.89627 21.3672 2.89627C21.0192 2.89627 20.7357 3.16085 20.697 3.44479H21.9859Z" fill="#F4F4F4"/>
<path d="M16.4831 2.21851C16.1506 2.2143 15.8271 2.32622 15.5681 2.53502V2.28319H14.7625V6.9616H15.6002V5.19365C15.8385 5.38214 16.1344 5.48246 16.438 5.47765C16.902 5.47765 17.3465 5.27098 17.6236 4.9483C17.8686 4.66431 18.0165 4.27733 18.0165 3.85132C18.0165 2.92852 17.3335 2.21851 16.4831 2.21851ZM16.3813 4.71599C15.8609 4.71599 15.5189 4.35636 15.5189 3.85408C15.5189 3.35178 15.8609 2.99214 16.3813 2.99214C16.8254 2.99214 17.1856 3.37812 17.1856 3.85406C17.1856 4.33002 16.8254 4.71599 16.3813 4.71599Z" fill="#F4F4F4"/>
<path d="M5.26427 4.27264C5.07512 4.16328 4.86213 4.13157 4.65117 4.12421C4.47415 4.118 4.21007 4.00441 4.21007 3.68196C4.21007 3.4417 4.40455 3.24834 4.65125 3.23972C4.86221 3.23234 5.07518 3.20059 5.26427 3.09127C5.43411 2.99306 5.57515 2.85181 5.67321 2.68172C5.77128 2.51164 5.8229 2.31868 5.8229 2.12227C5.8229 1.92586 5.77128 1.73292 5.67321 1.56282C5.57515 1.39273 5.43409 1.25148 5.26425 1.15328C5.0944 1.05508 4.90174 1.00338 4.70561 1.00339C4.50948 1.00339 4.31682 1.0551 4.14697 1.1533C3.97712 1.25151 3.83609 1.39276 3.73804 1.56286C3.63998 1.73296 3.58835 1.92591 3.58837 2.12233C3.58837 2.33909 3.66536 2.5386 3.76359 2.72363C3.84623 2.87925 3.88802 3.16808 3.60464 3.33192C3.39384 3.4538 3.13075 3.37662 2.99936 3.16602C2.88836 2.98813 2.75436 2.82146 2.56676 2.71296C2.39692 2.61477 2.20425 2.56306 2.00813 2.56306C1.81201 2.56306 1.61935 2.61475 1.4495 2.71296C1.27965 2.81116 1.13862 2.95241 1.04055 3.1225C0.942494 3.29259 0.890869 3.48555 0.890869 3.68196C0.890869 3.87835 0.942494 4.07131 1.04055 4.24139C1.13862 4.41148 1.27965 4.55273 1.4495 4.65094C1.61935 4.74914 1.81201 4.80083 2.00813 4.80083C2.20425 4.80083 2.39692 4.74912 2.56676 4.65094C2.75431 4.54247 2.88832 4.37592 2.99924 4.19813C3.09034 4.05215 3.31782 3.86605 3.60464 4.03201C3.81511 4.1538 3.88017 4.42064 3.76349 4.64042C3.66528 4.82542 3.58837 5.02486 3.58837 5.24161C3.58839 5.43802 3.64 5.63095 3.73806 5.80106C3.83613 5.97115 3.97716 6.11238 4.14701 6.21059C4.31686 6.30879 4.50952 6.3605 4.70563 6.3605C4.90176 6.3605 5.09442 6.30879 5.26427 6.21059C5.43409 6.11238 5.57515 5.97115 5.67319 5.80106C5.77126 5.63095 5.82288 5.43802 5.82288 5.24163C5.82288 5.04522 5.77126 4.85228 5.67319 4.68217C5.57515 4.51208 5.43409 4.37085 5.26427 4.27264Z" fill="#F4F4F4"/>
</g>
<defs>
<clipPath id="clip0_1_3744">
<rect width="21.952" height="7.18429" fill="white" transform="translate(0.890625 0.100998)"/>
</clipPath>
</defs>
</svg>
